<svg xmlns="http://www.w3.org/2000/svg" viewBox="0 0 1366 768"><defs><style>.cls-1{fill:#e9290f;}.cls-2{fill:#f15a24;}</style></defs><title>Asset 12</title><g id="Layer_2" data-name="Layer 2"><g id="Layer_1-2" data-name="Layer 1"><rect class="cls-1" width="1366" height="768"/><path class="cls-2" d="M116.83,35.16c-12.08,2.88-15.64,17.75-17,28.32-1.87,14.1-2.58,35-20,38.76-1.89.41-1.09,3.3.8,2.9,11.92-2.59,17.93-14,20-25.13,2.4-12.57.72-38.08,17-42,1.87-.45,1.08-3.34-.8-2.89Z"/><path class="cls-2" d="M139.32,42.54c-13.38,4.74-18.92,17-18.86,30.53,0,8.37,3,17.74,0,25.84-2.84,7.67-10.48,11.9-18,13.62-1.88.43-1.08,3.32.8,2.9,12.51-2.84,21.5-11.6,21.46-24.85,0-8.58-2.14-17-.61-25.58,1.62-9.17,7.21-16.43,16.07-19.57,1.81-.64,1-3.54-.8-2.89Z"/><path class="cls-2" d="M170.12,50.83C156,44.77,149.2,64.07,146.28,74.07c-2.39,8.2-2.88,16.21-3.68,24.63-1,10.18-7.77,15.36-15.92,20.45-1.63,1-.13,3.62,1.52,2.59,4.73-2.95,9.63-6.06,13.05-10.56,3.8-5,4.25-10.76,4.61-16.82.57-9.5,6.15-48.08,22.74-40.94,1.76.76,3.29-1.82,1.52-2.59Z"/><path class="cls-2" d="M68.34,207.46A491.55,491.55,0,0,1,121,168c1.61-1.05.11-3.65-1.52-2.59a499.38,499.38,0,0,0-53.28,40c-1.46,1.26.67,3.38,2.13,2.12Z"/><path class="cls-2" d="M76,221.5a540.49,540.49,0,0,1,64.66-33.71c1.76-.78.24-3.36-1.52-2.59a541.25,541.25,0,0,0-64.66,33.71c-1.64,1-.14,3.6,1.52,2.59Z"/><path class="cls-2" d="M86.38,237.22q34.29-16.87,69.89-30.81c1.78-.69,1-3.59-.79-2.89q-36,14.07-70.61,31.11c-1.73.85-.22,3.44,1.51,2.59Z"/><path class="cls-2" d="M100.83,297.16c-12.08,2.88-15.64,17.75-17,28.32-1.87,14.1-2.58,35-20,38.76-1.89.41-1.09,3.3.8,2.9,11.92-2.59,17.93-14,20-25.13,2.4-12.57.72-38.08,17-42,1.87-.45,1.08-3.34-.8-2.89Z"/><path class="cls-2" d="M123.32,304.54c-13.38,4.74-18.92,17-18.86,30.53,0,8.37,3,17.74,0,25.84-2.84,7.67-10.48,11.9-18,13.62-1.88.43-1.08,3.32.8,2.9,12.51-2.84,21.5-11.6,21.46-24.85,0-8.58-2.14-17-.61-25.58,1.62-9.17,7.21-16.43,16.07-19.57,1.81-.64,1-3.54-.8-2.89Z"/><path class="cls-2" d="M154.12,312.83c-14.09-6.06-20.92,13.24-23.84,23.24-2.39,8.2-2.88,16.21-3.68,24.63-1,10.18-7.77,15.36-15.92,20.45-1.63,1-.13,3.62,1.52,2.59,4.73-2.95,9.63-6.06,13-10.56,3.8-5,4.25-10.76,4.61-16.82.57-9.5,6.15-48.08,22.74-40.94,1.76.76,3.29-1.82,1.52-2.59Z"/><path class="cls-2" d="M52.34,469.46A491.55,491.55,0,0,1,105,430c1.61-1.05.11-3.65-1.52-2.59a499.38,499.38,0,0,0-53.28,40c-1.46,1.26.67,3.38,2.13,2.12Z"/><path class="cls-2" d="M60,483.5a540.49,540.49,0,0,1,64.66-33.71c1.76-.78.24-3.36-1.52-2.59a541.25,541.25,0,0,0-64.66,33.71c-1.64,1-.14,3.6,1.52,2.59Z"/><path class="cls-2" d="M70.38,499.22q34.29-16.87,69.89-30.81c1.78-.69,1-3.59-.79-2.89q-36,14.07-70.61,31.11c-1.73.85-.22,3.44,1.51,2.59Z"/><path class="cls-2" d="M84.83,537.16c-12.08,2.88-15.64,17.75-17,28.32-1.87,14.1-2.58,35-20,38.76-1.89.41-1.09,3.3.8,2.9,11.92-2.59,17.93-14,20-25.13,2.4-12.57.72-38.08,17-42,1.87-.45,1.08-3.34-.8-2.89Z"/><path class="cls-2" d="M107.32,544.54c-13.38,4.74-18.92,17-18.86,30.53,0,8.37,3,17.74,0,25.84-2.84,7.67-10.48,11.9-18,13.62-1.88.43-1.08,3.32.8,2.9,12.51-2.84,21.5-11.6,21.46-24.85,0-8.58-2.14-17-.61-25.58,1.62-9.17,7.21-16.43,16.07-19.57,1.81-.64,1-3.54-.8-2.89Z"/><path class="cls-2" d="M138.12,552.83c-14.09-6.06-20.92,13.24-23.84,23.24-2.39,8.2-2.88,16.21-3.68,24.63-1,10.18-7.77,15.36-15.92,20.45-1.63,1-.13,3.62,1.52,2.59,4.73-3,9.63-6.06,13-10.56,3.8-5,4.25-10.76,4.61-16.82.57-9.5,6.15-48.08,22.74-40.94,1.76.76,3.29-1.82,1.52-2.59Z"/><path class="cls-2" d="M36.34,709.46A491.55,491.55,0,0,1,89,670c1.61-1.05.11-3.65-1.52-2.59a499.38,499.38,0,0,0-53.28,40c-1.46,1.26.67,3.38,2.13,2.12Z"/><path class="cls-2" d="M44,723.5a540.49,540.49,0,0,1,64.66-33.71c1.76-.78.24-3.36-1.52-2.59a541.25,541.25,0,0,0-64.66,33.71c-1.64,1-.14,3.6,1.52,2.59Z"/><path class="cls-2" d="M54.38,739.22q34.29-16.87,69.89-30.81c1.78-.69,1-3.59-.79-2.89q-36,14.07-70.61,31.11c-1.73.85-.22,3.44,1.51,2.59Z"/><path class="cls-2" d="M245.34,76.46A491.55,491.55,0,0,1,298,37c1.61-1,.11-3.65-1.52-2.59a499.38,499.38,0,0,0-53.28,40c-1.46,1.26.67,3.38,2.13,2.12Z"/><path class="cls-2" d="M253,90.5a540.49,540.49,0,0,1,64.66-33.71c1.76-.78.24-3.36-1.52-2.59a541.25,541.25,0,0,0-64.66,33.71c-1.64,1-.14,3.6,1.52,2.59Z"/><path class="cls-2" d="M263.38,106.22q34.29-16.87,69.89-30.81c1.78-.69,1-3.59-.79-2.89q-36,14.07-70.61,31.11c-1.73.85-.22,3.44,1.51,2.59Z"/><path class="cls-2" d="M264.83,130.16c-12.08,2.88-15.64,17.75-17,28.32-1.87,14.1-2.58,35-20,38.76-1.89.41-1.09,3.3.8,2.9,11.92-2.59,17.93-14,20-25.13,2.4-12.57.72-38.08,17-42,1.87-.45,1.08-3.34-.8-2.89Z"/><path class="cls-2" d="M287.32,137.54c-13.38,4.74-18.92,17-18.86,30.53,0,8.37,3,17.74,0,25.84-2.84,7.67-10.48,11.9-18,13.62-1.88.43-1.08,3.32.8,2.9,12.51-2.84,21.5-11.6,21.46-24.85,0-8.58-2.14-17-.61-25.58,1.62-9.17,7.21-16.43,16.07-19.57,1.81-.64,1-3.54-.8-2.89Z"/><path class="cls-2" d="M318.12,145.83c-14.09-6.06-20.92,13.24-23.84,23.24-2.39,8.2-2.88,16.21-3.68,24.63-1,10.18-7.77,15.36-15.92,20.45-1.63,1-.13,3.62,1.52,2.59,4.73-3,9.63-6.06,13.05-10.56,3.8-5,4.25-10.76,4.61-16.82.57-9.5,6.15-48.08,22.74-40.94,1.76.76,3.29-1.82,1.52-2.59Z"/><path class="cls-2" d="M240.34,333.46A491.55,491.55,0,0,1,293,294c1.61-1.05.11-3.65-1.52-2.59a499.38,499.38,0,0,0-53.28,40c-1.46,1.26.67,3.38,2.13,2.12Z"/><path class="cls-2" d="M248,347.5a540.49,540.49,0,0,1,64.66-33.71c1.76-.78.24-3.36-1.52-2.59a541.25,541.25,0,0,0-64.66,33.71c-1.64,1-.14,3.6,1.52,2.59Z"/><path class="cls-2" d="M258.38,363.22q34.29-16.87,69.89-30.81c1.78-.69,1-3.59-.79-2.89q-36,14.07-70.61,31.11c-1.73.85-.22,3.44,1.51,2.59Z"/><path class="cls-2" d="M259.83,387.16c-12.08,2.88-15.64,17.75-17,28.32-1.87,14.1-2.58,35-20,38.76-1.89.41-1.09,3.3.8,2.9,11.92-2.59,17.93-14,20-25.13,2.4-12.57.72-38.08,17-42,1.87-.45,1.08-3.34-.8-2.89Z"/><path class="cls-2" d="M282.32,394.54c-13.38,4.74-18.92,17-18.86,30.53,0,8.37,3,17.74,0,25.84-2.84,7.67-10.48,11.9-18,13.62-1.88.43-1.08,3.32.8,2.9,12.51-2.84,21.5-11.6,21.46-24.85,0-8.58-2.14-17-.61-25.58,1.62-9.17,7.21-16.43,16.07-19.57,1.81-.64,1-3.54-.8-2.89Z"/><path class="cls-2" d="M313.12,402.83c-14.09-6.06-20.92,13.24-23.84,23.24-2.39,8.2-2.88,16.21-3.68,24.63-1,10.18-7.77,15.36-15.92,20.45-1.63,1-.13,3.62,1.52,2.59,4.73-2.95,9.63-6.06,13.05-10.56,3.8-5,4.25-10.76,4.61-16.82.57-9.5,6.15-48.08,22.74-40.94,1.76.76,3.29-1.82,1.52-2.59Z"/><path class="cls-2" d="M230.34,576.46A491.55,491.55,0,0,1,283,537c1.61-1.05.11-3.65-1.52-2.59a499.38,499.38,0,0,0-53.28,40c-1.46,1.26.67,3.38,2.13,2.12Z"/><path class="cls-2" d="M238,590.5a540.49,540.49,0,0,1,64.66-33.71c1.76-.78.24-3.36-1.52-2.59a541.25,541.25,0,0,0-64.66,33.71c-1.64,1-.14,3.6,1.52,2.59Z"/><path class="cls-2" d="M248.38,606.22q34.29-16.87,69.89-30.81c1.78-.69,1-3.59-.79-2.89q-36,14.07-70.61,31.11c-1.73.85-.22,3.44,1.51,2.59Z"/><path class="cls-2" d="M249.83,630.16c-12.08,2.88-15.64,17.75-17,28.32-1.87,14.1-2.58,35-20,38.76-1.89.41-1.09,3.3.8,2.9,11.92-2.59,17.93-14,20-25.13,2.4-12.57.72-38.08,17-42,1.87-.45,1.08-3.34-.8-2.89Z"/><path class="cls-2" d="M272.32,637.54c-13.38,4.74-18.92,17-18.86,30.53,0,8.37,3,17.74,0,25.84-2.84,7.67-10.48,11.9-18,13.62-1.88.43-1.08,3.32.8,2.9,12.51-2.84,21.5-11.6,21.46-24.85,0-8.58-2.14-17-.61-25.58,1.62-9.17,7.21-16.43,16.07-19.57,1.81-.64,1-3.54-.8-2.89Z"/><path class="cls-2" d="M303.12,645.83c-14.09-6.06-20.92,13.24-23.84,23.24-2.39,8.2-2.88,16.21-3.68,24.63-1,10.18-7.77,15.36-15.92,20.45-1.63,1-.13,3.62,1.52,2.59,4.73-3,9.63-6.06,13.05-10.56,3.8-5,4.25-10.76,4.61-16.82.57-9.5,6.15-48.08,22.74-40.94,1.76.76,3.29-1.82,1.52-2.59Z"/><path class="cls-2" d="M472.83,20.16c-12.08,2.88-15.64,17.75-17,28.32-1.87,14.1-2.58,35-20,38.76-1.89.41-1.09,3.3.8,2.9,11.92-2.59,17.93-14,20-25.13,2.4-12.57.72-38.08,17-42,1.87-.45,1.08-3.34-.8-2.89Z"/><path class="cls-2" d="M495.32,27.54c-13.38,4.74-18.92,17-18.86,30.53,0,8.37,3,17.74,0,25.84-2.84,7.67-10.48,11.9-18.05,13.62-1.88.43-1.08,3.32.8,2.9,12.51-2.84,21.5-11.6,21.46-24.85,0-8.58-2.14-17-.61-25.58,1.62-9.17,7.21-16.43,16.07-19.57,1.81-.64,1-3.54-.8-2.89Z"/><path class="cls-2" d="M526.12,35.83C512,29.77,505.2,49.07,502.28,59.07c-2.39,8.2-2.88,16.21-3.68,24.63-1,10.18-7.77,15.36-15.92,20.45-1.63,1-.13,3.62,1.52,2.59,4.73-2.95,9.63-6.06,13.05-10.56,3.8-5,4.25-10.76,4.61-16.82.57-9.5,6.15-48.08,22.74-40.94,1.76.76,3.29-1.82,1.52-2.59Z"/><path class="cls-2" d="M424.34,192.46A491.55,491.55,0,0,1,477,153c1.61-1.05.11-3.65-1.52-2.59a499.38,499.38,0,0,0-53.28,40c-1.46,1.26.67,3.38,2.13,2.12Z"/><path class="cls-2" d="M432,206.5a540.49,540.49,0,0,1,64.66-33.71c1.76-.78.24-3.36-1.52-2.59a541.25,541.25,0,0,0-64.66,33.71c-1.64,1-.14,3.6,1.52,2.59Z"/><path class="cls-2" d="M442.38,222.22q34.29-16.87,69.89-30.81c1.78-.69,1-3.59-.79-2.89q-36,14.07-70.61,31.11c-1.73.85-.22,3.44,1.51,2.59Z"/><path class="cls-2" d="M456.83,282.16c-12.08,2.88-15.64,17.75-17,28.32-1.87,14.1-2.58,35-20,38.76-1.89.41-1.09,3.3.8,2.9,11.92-2.59,17.93-14,20-25.13,2.4-12.57.72-38.08,17-42,1.87-.45,1.08-3.34-.8-2.89Z"/><path class="cls-2" d="M479.32,289.54c-13.38,4.74-18.92,17-18.86,30.53,0,8.37,3,17.74,0,25.84-2.84,7.67-10.48,11.9-18.05,13.62-1.88.43-1.08,3.32.8,2.9,12.51-2.84,21.5-11.6,21.46-24.85,0-8.58-2.14-17-.61-25.58,1.62-9.17,7.21-16.43,16.07-19.57,1.81-.64,1-3.54-.8-2.89Z"/><path class="cls-2" d="M510.12,297.83c-14.09-6.06-20.92,13.24-23.84,23.24-2.39,8.2-2.88,16.21-3.68,24.63-1,10.18-7.77,15.36-15.92,20.45-1.63,1-.13,3.62,1.52,2.59,4.73-2.95,9.63-6.06,13.05-10.56,3.8-5,4.25-10.76,4.61-16.82.57-9.5,6.15-48.08,22.74-40.94,1.76.76,3.29-1.82,1.52-2.59Z"/><path class="cls-2" d="M408.34,454.46A491.55,491.55,0,0,1,461,415c1.61-1.05.11-3.65-1.52-2.59a499.38,499.38,0,0,0-53.28,40c-1.46,1.26.67,3.38,2.13,2.12Z"/><path class="cls-2" d="M416,468.5a540.49,540.49,0,0,1,64.66-33.71c1.76-.78.24-3.36-1.52-2.59a541.25,541.25,0,0,0-64.66,33.71c-1.64,1-.14,3.6,1.52,2.59Z"/><path class="cls-2" d="M426.38,484.22q34.29-16.87,69.89-30.81c1.78-.69,1-3.59-.79-2.89q-36,14.07-70.61,31.11c-1.73.85-.22,3.44,1.51,2.59Z"/><path class="cls-2" d="M440.83,522.16c-12.08,2.88-15.64,17.75-17,28.32-1.87,14.1-2.58,35-20,38.76-1.89.41-1.09,3.3.8,2.9,11.92-2.59,17.93-14,20-25.13,2.4-12.57.72-38.08,17-42,1.87-.45,1.08-3.34-.8-2.89Z"/><path class="cls-2" d="M463.32,529.54c-13.38,4.74-18.92,17-18.86,30.53,0,8.37,3,17.74,0,25.84-2.84,7.67-10.48,11.9-18.05,13.62-1.88.43-1.08,3.32.8,2.9,12.51-2.84,21.5-11.6,21.46-24.85,0-8.58-2.14-17-.61-25.58,1.62-9.17,7.21-16.43,16.07-19.57,1.81-.64,1-3.54-.8-2.89Z"/><path class="cls-2" d="M494.12,537.83c-14.09-6.06-20.92,13.24-23.84,23.24-2.39,8.2-2.88,16.21-3.68,24.63-1,10.18-7.77,15.36-15.92,20.45-1.63,1-.13,3.62,1.52,2.59,4.73-3,9.63-6.06,13.05-10.56,3.8-5,4.25-10.76,4.61-16.82.57-9.5,6.15-48.08,22.74-40.94,1.76.76,3.29-1.82,1.52-2.59Z"/><path class="cls-2" d="M392.34,694.46A491.55,491.55,0,0,1,445,655c1.61-1.05.11-3.65-1.52-2.59a499.38,499.38,0,0,0-53.28,40c-1.46,1.26.67,3.38,2.13,2.12Z"/><path class="cls-2" d="M400,708.5a540.49,540.49,0,0,1,64.66-33.71c1.76-.78.24-3.36-1.52-2.59a541.25,541.25,0,0,0-64.66,33.71c-1.64,1-.14,3.6,1.52,2.59Z"/><path class="cls-2" d="M410.38,724.22q34.29-16.87,69.89-30.81c1.78-.69,1-3.59-.79-2.89q-36,14.07-70.61,31.11c-1.73.85-.22,3.44,1.51,2.59Z"/><path class="cls-2" d="M601.34,61.46A491.55,491.55,0,0,1,654,22c1.61-1,.11-3.65-1.52-2.59a499.38,499.38,0,0,0-53.28,40c-1.46,1.26.67,3.38,2.13,2.12Z"/><path class="cls-2" d="M609,75.5a540.49,540.49,0,0,1,64.66-33.71c1.76-.78.24-3.36-1.52-2.59a541.25,541.25,0,0,0-64.66,33.71c-1.64,1-.14,3.6,1.52,2.59Z"/><path class="cls-2" d="M619.38,91.22q34.29-16.87,69.89-30.81c1.78-.69,1-3.59-.79-2.89q-36,14.07-70.61,31.11c-1.73.85-.22,3.44,1.51,2.59Z"/><path class="cls-2" d="M620.83,115.16c-12.08,2.88-15.64,17.75-17,28.32-1.87,14.1-2.58,35-20,38.76-1.89.41-1.09,3.3.8,2.9,11.92-2.59,17.93-14,20-25.13,2.4-12.57.72-38.08,17-42,1.87-.45,1.08-3.34-.8-2.89Z"/><path class="cls-2" d="M643.32,122.54c-13.38,4.74-18.92,17-18.86,30.53,0,8.37,3,17.74,0,25.84-2.84,7.67-10.48,11.9-18.05,13.62-1.88.43-1.08,3.32.8,2.9,12.51-2.84,21.5-11.6,21.46-24.85,0-8.58-2.14-17-.61-25.58,1.62-9.17,7.21-16.43,16.07-19.57,1.81-.64,1-3.54-.8-2.89Z"/><path class="cls-2" d="M674.12,130.83c-14.09-6.06-20.92,13.24-23.84,23.24-2.39,8.2-2.88,16.21-3.68,24.63-1,10.18-7.77,15.36-15.92,20.45-1.63,1-.13,3.62,1.52,2.59,4.73-3,9.63-6.06,13-10.56,3.8-5,4.25-10.76,4.61-16.82.57-9.5,6.15-48.08,22.74-40.94,1.76.76,3.29-1.82,1.52-2.59Z"/><path class="cls-2" d="M596.34,318.46A491.55,491.55,0,0,1,649,279c1.61-1.05.11-3.65-1.52-2.59a499.38,499.38,0,0,0-53.28,40c-1.46,1.26.67,3.38,2.13,2.12Z"/><path class="cls-2" d="M604,332.5a540.49,540.49,0,0,1,64.66-33.71c1.76-.78.24-3.36-1.52-2.59a541.25,541.25,0,0,0-64.66,33.71c-1.64,1-.14,3.6,1.52,2.59Z"/><path class="cls-2" d="M614.38,348.22q34.29-16.87,69.89-30.81c1.78-.69,1-3.59-.79-2.89q-36,14.07-70.61,31.11c-1.73.85-.22,3.44,1.51,2.59Z"/><path class="cls-2" d="M615.83,372.16c-12.08,2.88-15.64,17.75-17,28.32-1.87,14.1-2.58,35-20,38.76-1.89.41-1.09,3.3.8,2.9,11.92-2.59,17.93-14,20-25.13,2.4-12.57.72-38.08,17-42,1.87-.45,1.08-3.34-.8-2.89Z"/><path class="cls-2" d="M638.32,379.54c-13.38,4.74-18.92,17-18.86,30.53,0,8.37,3,17.74,0,25.84-2.84,7.67-10.48,11.9-18.05,13.62-1.88.43-1.08,3.32.8,2.9,12.51-2.84,21.5-11.6,21.46-24.85,0-8.58-2.14-17-.61-25.58,1.62-9.17,7.21-16.43,16.07-19.57,1.81-.64,1-3.54-.8-2.89Z"/><path class="cls-2" d="M669.12,387.83c-14.09-6.06-20.92,13.24-23.84,23.24-2.39,8.2-2.88,16.21-3.68,24.63-1,10.18-7.77,15.36-15.92,20.45-1.63,1-.13,3.62,1.52,2.59,4.73-2.95,9.63-6.06,13-10.56,3.8-5,4.25-10.76,4.61-16.82.57-9.5,6.15-48.08,22.74-40.94,1.76.76,3.29-1.82,1.52-2.59Z"/><path class="cls-2" d="M586.34,561.46A491.55,491.55,0,0,1,639,522c1.61-1.05.11-3.65-1.52-2.59a499.38,499.38,0,0,0-53.28,40c-1.46,1.26.67,3.38,2.13,2.12Z"/><path class="cls-2" d="M594,575.5a540.49,540.49,0,0,1,64.66-33.71c1.76-.78.24-3.36-1.52-2.59a541.25,541.25,0,0,0-64.66,33.71c-1.64,1-.14,3.6,1.52,2.59Z"/><path class="cls-2" d="M604.38,591.22q34.29-16.87,69.89-30.81c1.78-.69,1-3.59-.79-2.89q-36,14.07-70.61,31.11c-1.73.85-.22,3.44,1.51,2.59Z"/><path class="cls-2" d="M605.83,615.16c-12.08,2.88-15.64,17.75-17,28.32-1.87,14.1-2.58,35-20,38.76-1.89.41-1.09,3.3.8,2.9,11.92-2.59,17.93-14,20-25.13,2.4-12.57.72-38.08,17-42,1.87-.45,1.08-3.34-.8-2.89Z"/><path class="cls-2" d="M628.32,622.54c-13.38,4.74-18.92,17-18.86,30.53,0,8.37,3,17.74,0,25.84-2.84,7.67-10.48,11.9-18.05,13.62-1.88.43-1.08,3.32.8,2.9,12.51-2.84,21.5-11.6,21.46-24.85,0-8.58-2.14-17-.61-25.58,1.62-9.17,7.21-16.43,16.07-19.57,1.81-.64,1-3.54-.8-2.89Z"/><path class="cls-2" d="M659.12,630.83c-14.09-6.06-20.92,13.24-23.84,23.24-2.39,8.2-2.88,16.21-3.68,24.63-1,10.18-7.77,15.36-15.92,20.45-1.63,1-.13,3.62,1.52,2.59,4.73-3,9.63-6.06,13-10.56,3.8-5,4.25-10.76,4.61-16.82.57-9.5,6.15-48.08,22.74-40.94,1.76.76,3.29-1.82,1.52-2.59Z"/><path class="cls-2" d="M805.83,13.16c-12.08,2.88-15.64,17.75-17,28.32-1.87,14.1-2.58,35-20,38.76-1.89.41-1.09,3.3.8,2.9,11.92-2.59,17.93-14,20-25.13,2.4-12.57.72-38.08,17-42,1.87-.45,1.08-3.34-.8-2.89Z"/><path class="cls-2" d="M828.32,20.54c-13.38,4.74-18.92,17-18.86,30.53,0,8.37,3,17.74,0,25.84-2.84,7.67-10.48,11.9-18.05,13.62-1.88.43-1.08,3.32.8,2.9,12.51-2.84,21.5-11.6,21.46-24.85,0-8.58-2.14-17-.61-25.58,1.62-9.17,7.21-16.43,16.07-19.57,1.81-.64,1-3.54-.8-2.89Z"/><path class="cls-2" d="M859.12,28.83C845,22.77,838.2,42.07,835.28,52.07c-2.39,8.2-2.88,16.21-3.68,24.63-1,10.18-7.77,15.36-15.92,20.45-1.63,1-.13,3.62,1.52,2.59,4.73-2.95,9.63-6.06,13-10.56,3.8-5,4.25-10.76,4.61-16.82.57-9.5,6.15-48.08,22.74-40.94,1.76.76,3.29-1.82,1.52-2.59Z"/><path class="cls-2" d="M757.34,185.46A491.55,491.55,0,0,1,810,146c1.61-1.05.11-3.65-1.52-2.59a499.38,499.38,0,0,0-53.28,40c-1.46,1.26.67,3.38,2.13,2.12Z"/><path class="cls-2" d="M765,199.5a540.49,540.49,0,0,1,64.66-33.71c1.76-.78.24-3.36-1.52-2.59a541.25,541.25,0,0,0-64.66,33.71c-1.64,1-.14,3.6,1.52,2.59Z"/><path class="cls-2" d="M775.38,215.22q34.29-16.87,69.89-30.81c1.78-.69,1-3.59-.79-2.89q-36,14.07-70.61,31.11c-1.73.85-.22,3.44,1.51,2.59Z"/><path class="cls-2" d="M789.83,275.16c-12.08,2.88-15.64,17.75-17,28.32-1.87,14.1-2.58,35-20,38.76-1.89.41-1.09,3.3.8,2.9,11.92-2.59,17.93-14,20-25.13,2.4-12.57.72-38.08,17-42,1.87-.45,1.08-3.34-.8-2.89Z"/><path class="cls-2" d="M812.32,282.54c-13.38,4.74-18.92,17-18.86,30.53,0,8.37,3,17.74,0,25.84-2.84,7.67-10.48,11.9-18.05,13.62-1.88.43-1.08,3.32.8,2.9,12.51-2.84,21.5-11.6,21.46-24.85,0-8.58-2.14-17-.61-25.58,1.62-9.17,7.21-16.43,16.07-19.57,1.81-.64,1-3.54-.8-2.89Z"/><path class="cls-2" d="M843.12,290.83c-14.09-6.06-20.92,13.24-23.84,23.24-2.39,8.2-2.88,16.21-3.68,24.63-1,10.18-7.77,15.36-15.92,20.45-1.63,1-.13,3.62,1.52,2.59,4.73-2.95,9.63-6.06,13-10.56,3.8-5,4.25-10.76,4.61-16.82.57-9.5,6.15-48.08,22.74-40.94,1.76.76,3.29-1.82,1.52-2.59Z"/><path class="cls-2" d="M741.34,447.46A491.55,491.55,0,0,1,794,408c1.61-1.05.11-3.65-1.52-2.59a499.38,499.38,0,0,0-53.28,40c-1.46,1.26.67,3.38,2.13,2.12Z"/><path class="cls-2" d="M749,461.5a540.49,540.49,0,0,1,64.66-33.71c1.76-.78.24-3.36-1.52-2.59a541.25,541.25,0,0,0-64.66,33.71c-1.64,1-.14,3.6,1.52,2.59Z"/><path class="cls-2" d="M759.38,477.22q34.29-16.87,69.89-30.81c1.78-.69,1-3.59-.79-2.89q-36,14.07-70.61,31.11c-1.73.85-.22,3.44,1.51,2.59Z"/><path class="cls-2" d="M773.83,515.16c-12.08,2.88-15.64,17.75-17,28.32-1.87,14.1-2.58,35-20,38.76-1.89.41-1.09,3.3.8,2.9,11.92-2.59,17.93-14,20-25.13,2.4-12.57.72-38.08,17-42,1.87-.45,1.08-3.34-.8-2.89Z"/><path class="cls-2" d="M796.32,522.54c-13.38,4.74-18.92,17-18.86,30.53,0,8.37,3,17.74,0,25.84-2.84,7.67-10.48,11.9-18.05,13.62-1.88.43-1.08,3.32.8,2.9,12.51-2.84,21.5-11.6,21.46-24.85,0-8.58-2.14-17-.61-25.58,1.62-9.17,7.21-16.43,16.07-19.57,1.81-.64,1-3.54-.8-2.89Z"/><path class="cls-2" d="M827.12,530.83c-14.09-6.06-20.92,13.24-23.84,23.24-2.39,8.2-2.88,16.21-3.68,24.63-1,10.18-7.77,15.36-15.92,20.45-1.63,1-.13,3.62,1.52,2.59,4.73-3,9.63-6.06,13-10.56,3.8-5,4.25-10.76,4.61-16.82.57-9.5,6.15-48.08,22.74-40.94,1.76.76,3.29-1.82,1.52-2.59Z"/><path class="cls-2" d="M725.34,687.46A491.55,491.55,0,0,1,778,648c1.61-1.05.11-3.65-1.52-2.59a499.38,499.38,0,0,0-53.28,40c-1.46,1.26.67,3.38,2.13,2.12Z"/><path class="cls-2" d="M733,701.5a540.49,540.49,0,0,1,64.66-33.71c1.76-.78.24-3.36-1.52-2.59a541.25,541.25,0,0,0-64.66,33.71c-1.64,1-.14,3.6,1.52,2.59Z"/><path class="cls-2" d="M743.38,717.22q34.29-16.87,69.89-30.81c1.78-.69,1-3.59-.79-2.89q-36,14.07-70.61,31.11c-1.73.85-.22,3.44,1.51,2.59Z"/><path class="cls-2" d="M934.34,54.46A491.55,491.55,0,0,1,987,15c1.61-1.05.11-3.65-1.52-2.59a499.38,499.38,0,0,0-53.28,40c-1.46,1.26.67,3.38,2.13,2.12Z"/><path class="cls-2" d="M942,68.5a540.49,540.49,0,0,1,64.66-33.71c1.76-.78.24-3.36-1.52-2.59a541.25,541.25,0,0,0-64.66,33.71c-1.64,1-.14,3.6,1.52,2.59Z"/><path class="cls-2" d="M952.38,84.22q34.29-16.87,69.89-30.81c1.78-.69,1-3.59-.79-2.89q-36,14.07-70.61,31.11c-1.73.85-.22,3.44,1.51,2.59Z"/><path class="cls-2" d="M953.83,108.16c-12.08,2.88-15.64,17.75-17,28.32-1.87,14.1-2.58,35-20,38.76-1.89.41-1.09,3.3.8,2.9,11.92-2.59,17.93-14,20-25.13,2.4-12.57.72-38.08,17-42,1.87-.45,1.08-3.34-.8-2.89Z"/><path class="cls-2" d="M976.32,115.54c-13.38,4.74-18.92,17-18.86,30.53,0,8.37,3,17.74,0,25.84-2.84,7.67-10.48,11.9-18.05,13.62-1.88.43-1.08,3.32.8,2.9,12.51-2.84,21.5-11.6,21.46-24.85,0-8.58-2.14-17-.61-25.58,1.62-9.17,7.21-16.43,16.07-19.57,1.81-.64,1-3.54-.8-2.89Z"/><path class="cls-2" d="M1007.12,123.83c-14.09-6.06-20.92,13.24-23.84,23.24-2.39,8.2-2.88,16.21-3.68,24.63-1,10.18-7.77,15.36-15.92,20.45-1.63,1-.13,3.62,1.52,2.59,4.73-3,9.63-6.06,13-10.56,3.8-5,4.25-10.76,4.61-16.82.57-9.5,6.15-48.08,22.74-40.94,1.76.76,3.29-1.82,1.52-2.59Z"/><path class="cls-2" d="M929.34,311.46A491.55,491.55,0,0,1,982,272c1.61-1.05.11-3.65-1.52-2.59a499.38,499.38,0,0,0-53.28,40c-1.46,1.26.67,3.38,2.13,2.12Z"/><path class="cls-2" d="M937,325.5a540.49,540.49,0,0,1,64.66-33.71c1.76-.78.24-3.36-1.52-2.59a541.25,541.25,0,0,0-64.66,33.71c-1.64,1-.14,3.6,1.52,2.59Z"/><path class="cls-2" d="M947.38,341.22q34.29-16.87,69.89-30.81c1.78-.69,1-3.59-.79-2.89q-36,14.07-70.61,31.11c-1.73.85-.22,3.44,1.51,2.59Z"/><path class="cls-2" d="M948.83,365.16c-12.08,2.88-15.64,17.75-17,28.32-1.87,14.1-2.58,35-20,38.76-1.89.41-1.09,3.3.8,2.9,11.92-2.59,17.93-14,20-25.13,2.4-12.57.72-38.08,17-42,1.87-.45,1.08-3.34-.8-2.89Z"/><path class="cls-2" d="M971.32,372.54c-13.38,4.74-18.92,17-18.86,30.53,0,8.37,3,17.74,0,25.84-2.84,7.67-10.48,11.9-18.05,13.62-1.88.43-1.08,3.32.8,2.9,12.51-2.84,21.5-11.6,21.46-24.85,0-8.58-2.14-17-.61-25.58,1.62-9.17,7.21-16.43,16.07-19.57,1.81-.64,1-3.54-.8-2.89Z"/><path class="cls-2" d="M1002.12,380.83c-14.09-6.06-20.92,13.24-23.84,23.24-2.39,8.2-2.88,16.21-3.68,24.63-1,10.18-7.77,15.36-15.92,20.45-1.63,1-.13,3.62,1.52,2.59,4.73-2.95,9.63-6.06,13-10.56,3.8-5,4.25-10.76,4.61-16.82.57-9.5,6.15-48.08,22.74-40.94,1.76.76,3.29-1.82,1.52-2.59Z"/><path class="cls-2" d="M919.34,554.46A491.55,491.55,0,0,1,972,515c1.61-1.05.11-3.65-1.52-2.59a499.38,499.38,0,0,0-53.28,40c-1.46,1.26.67,3.38,2.13,2.12Z"/><path class="cls-2" d="M927,568.5a540.49,540.49,0,0,1,64.66-33.71c1.76-.78.24-3.36-1.52-2.59a541.25,541.25,0,0,0-64.66,33.71c-1.64,1-.14,3.6,1.52,2.59Z"/><path class="cls-2" d="M937.38,584.22q34.29-16.87,69.89-30.81c1.78-.69,1-3.59-.79-2.89q-36,14.07-70.61,31.11c-1.73.85-.22,3.44,1.51,2.59Z"/><path class="cls-2" d="M938.83,608.16c-12.08,2.88-15.64,17.75-17,28.32-1.87,14.1-2.58,35-20,38.76-1.89.41-1.09,3.3.8,2.9,11.92-2.59,17.93-14,20-25.13,2.4-12.57.72-38.08,17-42,1.87-.45,1.08-3.34-.8-2.89Z"/><path class="cls-2" d="M961.32,615.54c-13.38,4.74-18.92,17-18.86,30.53,0,8.37,3,17.74,0,25.84-2.84,7.67-10.48,11.9-18.05,13.62-1.88.43-1.08,3.32.8,2.9,12.51-2.84,21.5-11.6,21.46-24.85,0-8.58-2.14-17-.61-25.58,1.62-9.17,7.21-16.43,16.07-19.57,1.81-.64,1-3.54-.8-2.89Z"/><path class="cls-2" d="M992.12,623.83c-14.09-6.06-20.92,13.24-23.84,23.24-2.39,8.2-2.88,16.21-3.68,24.63-1,10.18-7.77,15.36-15.92,20.45-1.63,1-.13,3.62,1.52,2.59,4.73-3,9.63-6.06,13-10.56,3.8-5,4.25-10.76,4.61-16.82.57-9.5,6.15-48.08,22.74-40.94,1.76.76,3.29-1.82,1.52-2.59Z"/><path class="cls-2" d="M1129.83,15.16c-12.08,2.88-15.64,17.75-17,28.32-1.87,14.1-2.58,35-20,38.76-1.89.41-1.09,3.3.8,2.9,11.92-2.59,17.93-14,20-25.13,2.4-12.57.72-38.08,17-42,1.87-.45,1.08-3.34-.8-2.89Z"/><path class="cls-2" d="M1152.32,22.54c-13.38,4.74-18.92,17-18.86,30.53,0,8.37,3,17.74,0,25.84-2.84,7.67-10.48,11.9-18,13.62-1.88.43-1.08,3.32.8,2.9,12.51-2.84,21.5-11.6,21.46-24.85,0-8.58-2.14-17-.61-25.58,1.62-9.17,7.21-16.43,16.07-19.57,1.81-.64,1-3.54-.8-2.89Z"/><path class="cls-2" d="M1183.12,30.83c-14.09-6.06-20.92,13.24-23.84,23.24-2.39,8.2-2.88,16.21-3.68,24.63-1,10.18-7.77,15.36-15.92,20.45-1.63,1-.13,3.62,1.52,2.59,4.73-2.95,9.63-6.06,13-10.56,3.8-5,4.25-10.76,4.61-16.82.57-9.5,6.15-48.08,22.74-40.94,1.76.76,3.29-1.82,1.52-2.59Z"/><path class="cls-2" d="M1081.34,187.46A491.55,491.55,0,0,1,1134,148c1.61-1.05.11-3.65-1.52-2.59a499.38,499.38,0,0,0-53.28,40c-1.46,1.26.67,3.38,2.13,2.12Z"/><path class="cls-2" d="M1089,201.5a540.49,540.49,0,0,1,64.66-33.71c1.76-.78.24-3.36-1.52-2.59a541.25,541.25,0,0,0-64.66,33.71c-1.64,1-.14,3.6,1.52,2.59Z"/><path class="cls-2" d="M1099.38,217.22q34.29-16.87,69.89-30.81c1.78-.69,1-3.59-.79-2.89q-36,14.07-70.61,31.11c-1.73.85-.22,3.44,1.51,2.59Z"/><path class="cls-2" d="M1113.83,277.16c-12.08,2.88-15.64,17.75-17,28.32-1.87,14.1-2.58,35-20,38.76-1.89.41-1.09,3.3.8,2.9,11.92-2.59,17.93-14,20-25.13,2.4-12.57.72-38.08,17-42,1.87-.45,1.08-3.34-.8-2.89Z"/><path class="cls-2" d="M1136.32,284.54c-13.38,4.74-18.92,17-18.86,30.53,0,8.37,3,17.74,0,25.84-2.84,7.67-10.48,11.9-18,13.62-1.88.43-1.08,3.32.8,2.9,12.51-2.84,21.5-11.6,21.46-24.85,0-8.58-2.14-17-.61-25.58,1.62-9.17,7.21-16.43,16.07-19.57,1.81-.64,1-3.54-.8-2.89Z"/><path class="cls-2" d="M1167.12,292.83c-14.09-6.06-20.92,13.24-23.84,23.24-2.39,8.2-2.88,16.21-3.68,24.63-1,10.18-7.77,15.36-15.92,20.45-1.63,1-.13,3.62,1.52,2.59,4.73-2.95,9.63-6.06,13-10.56,3.8-5,4.25-10.76,4.61-16.82.57-9.5,6.15-48.08,22.74-40.94,1.76.76,3.29-1.82,1.52-2.59Z"/><path class="cls-2" d="M1065.34,449.46A491.55,491.55,0,0,1,1118,410c1.61-1.05.11-3.65-1.52-2.59a499.38,499.38,0,0,0-53.28,40c-1.46,1.26.67,3.38,2.13,2.12Z"/><path class="cls-2" d="M1073,463.5a540.49,540.49,0,0,1,64.66-33.71c1.76-.78.24-3.36-1.52-2.59a541.25,541.25,0,0,0-64.66,33.71c-1.64,1-.14,3.6,1.52,2.59Z"/><path class="cls-2" d="M1083.38,479.22q34.29-16.87,69.89-30.81c1.78-.69,1-3.59-.79-2.89q-36,14.07-70.61,31.11c-1.73.85-.22,3.44,1.51,2.59Z"/><path class="cls-2" d="M1097.83,517.16c-12.08,2.88-15.64,17.75-17,28.32-1.87,14.1-2.58,35-20,38.76-1.89.41-1.09,3.3.8,2.9,11.92-2.59,17.93-14,20-25.13,2.4-12.57.72-38.08,17-42,1.87-.45,1.08-3.34-.8-2.89Z"/><path class="cls-2" d="M1120.32,524.54c-13.38,4.74-18.92,17-18.86,30.53,0,8.37,3,17.74,0,25.84-2.84,7.67-10.48,11.9-18,13.62-1.88.43-1.08,3.32.8,2.9,12.51-2.84,21.5-11.6,21.46-24.85,0-8.58-2.14-17-.61-25.58,1.62-9.17,7.21-16.43,16.07-19.57,1.81-.64,1-3.54-.8-2.89Z"/><path class="cls-2" d="M1151.12,532.83c-14.09-6.06-20.92,13.24-23.84,23.24-2.39,8.2-2.88,16.21-3.68,24.63-1,10.18-7.77,15.36-15.92,20.45-1.63,1-.13,3.62,1.52,2.59,4.73-3,9.63-6.06,13-10.56,3.8-5,4.25-10.76,4.61-16.82.57-9.5,6.15-48.08,22.74-40.94,1.76.76,3.29-1.82,1.52-2.59Z"/><path class="cls-2" d="M1049.34,689.46A491.55,491.55,0,0,1,1102,650c1.61-1.05.11-3.65-1.52-2.59a499.38,499.38,0,0,0-53.28,40c-1.46,1.26.67,3.38,2.13,2.12Z"/><path class="cls-2" d="M1057,703.5a540.49,540.49,0,0,1,64.66-33.71c1.76-.78.24-3.36-1.52-2.59a541.25,541.25,0,0,0-64.66,33.71c-1.64,1-.14,3.6,1.52,2.59Z"/><path class="cls-2" d="M1067.38,719.22q34.29-16.87,69.89-30.81c1.78-.69,1-3.59-.79-2.89q-36,14.07-70.61,31.11c-1.73.85-.22,3.44,1.51,2.59Z"/><path class="cls-2" d="M1253.34,64.46A491.55,491.55,0,0,1,1306,25c1.61-1,.11-3.65-1.52-2.59a499.38,499.38,0,0,0-53.28,40c-1.46,1.26.67,3.38,2.13,2.12Z"/><path class="cls-2" d="M1261,78.5a540.49,540.49,0,0,1,64.66-33.71c1.76-.78.24-3.36-1.52-2.59a541.25,541.25,0,0,0-64.66,33.71c-1.64,1-.14,3.6,1.52,2.59Z"/><path class="cls-2" d="M1271.38,94.22q34.29-16.87,69.89-30.81c1.78-.69,1-3.59-.79-2.89q-36,14.07-70.61,31.11c-1.73.85-.22,3.44,1.51,2.59Z"/><path class="cls-2" d="M1272.83,118.16c-12.08,2.88-15.64,17.75-17,28.32-1.87,14.1-2.58,35-20,38.76-1.89.41-1.09,3.3.8,2.9,11.92-2.59,17.93-14,20-25.13,2.4-12.57.72-38.08,17-42,1.87-.45,1.08-3.34-.8-2.89Z"/><path class="cls-2" d="M1295.32,125.54c-13.38,4.74-18.92,17-18.86,30.53,0,8.37,3,17.74,0,25.84-2.84,7.67-10.48,11.9-18,13.62-1.88.43-1.08,3.32.8,2.9,12.51-2.84,21.5-11.6,21.46-24.85,0-8.58-2.14-17-.61-25.58,1.62-9.17,7.21-16.43,16.07-19.57,1.81-.64,1-3.54-.8-2.89Z"/><path class="cls-2" d="M1326.12,133.83c-14.09-6.06-20.92,13.24-23.84,23.24-2.39,8.2-2.88,16.21-3.68,24.63-1,10.18-7.77,15.36-15.92,20.45-1.63,1-.13,3.62,1.52,2.59,4.73-3,9.63-6.06,13-10.56,3.8-5,4.25-10.76,4.61-16.82.57-9.5,6.15-48.08,22.74-40.94,1.76.76,3.29-1.82,1.52-2.59Z"/><path class="cls-2" d="M1248.34,321.46A491.55,491.55,0,0,1,1301,282c1.61-1.05.11-3.65-1.52-2.59a499.38,499.38,0,0,0-53.28,40c-1.46,1.26.67,3.38,2.13,2.12Z"/><path class="cls-2" d="M1256,335.5a540.49,540.49,0,0,1,64.66-33.71c1.76-.78.24-3.36-1.52-2.59a541.25,541.25,0,0,0-64.66,33.71c-1.64,1-.14,3.6,1.52,2.59Z"/><path class="cls-2" d="M1266.38,351.22q34.29-16.87,69.89-30.81c1.78-.69,1-3.59-.79-2.89q-36,14.07-70.61,31.11c-1.73.85-.22,3.44,1.51,2.59Z"/><path class="cls-2" d="M1267.83,375.16c-12.08,2.88-15.64,17.75-17,28.32-1.87,14.1-2.58,35-20,38.76-1.89.41-1.09,3.3.8,2.9,11.92-2.59,17.93-14,20-25.13,2.4-12.57.72-38.08,17-42,1.87-.45,1.08-3.34-.8-2.89Z"/><path class="cls-2" d="M1290.32,382.54c-13.38,4.74-18.92,17-18.86,30.53,0,8.37,3,17.74,0,25.84-2.84,7.67-10.48,11.9-18,13.62-1.88.43-1.08,3.32.8,2.9,12.51-2.84,21.5-11.6,21.46-24.85,0-8.58-2.14-17-.61-25.58,1.62-9.17,7.21-16.43,16.07-19.57,1.81-.64,1-3.54-.8-2.89Z"/><path class="cls-2" d="M1321.12,390.83c-14.09-6.06-20.92,13.24-23.84,23.24-2.39,8.2-2.88,16.21-3.68,24.63-1,10.18-7.77,15.36-15.92,20.45-1.63,1-.13,3.62,1.52,2.59,4.73-2.95,9.63-6.06,13-10.56,3.8-5,4.25-10.76,4.61-16.82.57-9.5,6.15-48.08,22.74-40.94,1.76.76,3.29-1.82,1.52-2.59Z"/><path class="cls-2" d="M1238.34,564.46A491.55,491.55,0,0,1,1291,525c1.61-1.05.11-3.65-1.52-2.59a499.38,499.38,0,0,0-53.28,40c-1.46,1.26.67,3.38,2.13,2.12Z"/><path class="cls-2" d="M1246,578.5a540.49,540.49,0,0,1,64.66-33.71c1.76-.78.24-3.36-1.52-2.59a541.25,541.25,0,0,0-64.66,33.71c-1.64,1-.14,3.6,1.52,2.59Z"/><path class="cls-2" d="M1256.38,594.22q34.29-16.87,69.89-30.81c1.78-.69,1-3.59-.79-2.89q-36,14.07-70.61,31.11c-1.73.85-.22,3.44,1.51,2.59Z"/><path class="cls-2" d="M1257.83,618.16c-12.08,2.88-15.64,17.75-17,28.32-1.87,14.1-2.58,35-20,38.76-1.89.41-1.09,3.3.8,2.9,11.92-2.59,17.93-14,20-25.13,2.4-12.57.72-38.08,17-42,1.87-.45,1.08-3.34-.8-2.89Z"/><path class="cls-2" d="M1280.32,625.54c-13.38,4.74-18.92,17-18.86,30.53,0,8.37,3,17.74,0,25.84-2.84,7.67-10.48,11.9-18,13.62-1.88.43-1.08,3.32.8,2.9,12.51-2.84,21.5-11.6,21.46-24.85,0-8.58-2.14-17-.61-25.58,1.62-9.17,7.21-16.43,16.07-19.57,1.81-.64,1-3.54-.8-2.89Z"/><path class="cls-2" d="M1311.12,633.83c-14.09-6.06-20.92,13.24-23.84,23.24-2.39,8.2-2.88,16.21-3.68,24.63-1,10.18-7.77,15.36-15.92,20.45-1.63,1-.13,3.62,1.52,2.59,4.73-3,9.63-6.06,13-10.56,3.8-5,4.25-10.76,4.61-16.82.57-9.5,6.15-48.08,22.74-40.94,1.76.76,3.29-1.82,1.52-2.59Z"/></g></g></svg>