<svg xmlns="http://www.w3.org/2000/svg" viewBox="0 0 1366.5 767.5"><defs><style>.cls-1{fill:#fff;}.cls-2{fill:#b3b3b3;}</style></defs><title>Asset 8</title><g id="Layer_2" data-name="Layer 2"><g id="Layer_1-2" data-name="Layer 1"><rect class="cls-1" width="1366.5" height="767.5"/><path class="cls-2" d="M126.6,217.55c-15-2.63-16.46,17.37-14.41,27.38,1.68,8.2,5,16.18,4.74,24.69-.37,10.88-7.81,16.23-17.25,19.85-1.78.69-1,3.59.8,2.9,5.65-2.17,11.47-4.66,15.25-9.61s4.61-11.56,4-17.7c-.69-7.17-3.26-13.91-4.66-20.93-1.49-7.4-1.8-25.87,10.72-23.69,1.88.33,2.7-2.56.79-2.89Z"/><path class="cls-2" d="M155,225.3c-12-3.45-10.53,17.71-10.3,23.95.44,12,8.79,39.8-10.27,42.22-1.89.24-1.92,3.24,0,3,10.21-1.3,15.23-11,15.5-20.55.21-7.33-1.63-14.59-2.09-21.88-.25-3.87-1.91-26.23,6.36-23.85a1.5,1.5,0,0,0,.8-2.89Z"/><path class="cls-2" d="M184.52,230.32c-4-.57-8.54-.9-11.06,2.84-3.24,4.8-2.08,13.76-2,19.22.17,7.61,1.56,15,2.11,22.57.59,8.23-1.4,18.44-11,20.23-1.89.36-1.09,3.25.8,2.89,10.81-2,13.84-13.58,13.15-23.12-.51-6.91-1.8-13.7-2.06-20.65-.14-3.84-.11-7.7.08-11.54.09-1.8-.23-4.94.64-6.44l4.67-3.4a19.11,19.11,0,0,1,3.77.29c1.89.27,2.7-2.62.8-2.89Z"/><path class="cls-2" d="M72.3,70.71C95.08,63.56,114.36,48,137.9,43c1.89-.4,1.09-3.3-.8-2.89-23.56,5-42.82,20.61-65.6,27.76-1.83.57-1,3.47.8,2.89Z"/><path class="cls-2" d="M84.65,88.12a501.29,501.29,0,0,1,80.93-19.94c1.9-.31,1.09-3.2-.8-2.9a501.84,501.84,0,0,0-80.93,20c-1.82.61-1,3.51.8,2.89Z"/><path class="cls-2" d="M320.3,296.66a476.56,476.56,0,0,1,77.6-10.88c1.92-.11,1.93-3.11,0-3a481.72,481.72,0,0,0-78.39,11c-1.89.42-1.09,3.32.79,2.89Z"/><path class="cls-2" d="M151.6,373.06c-15-2.62-16.46,17.37-14.41,27.39,1.68,8.2,5,16.17,4.74,24.69-.37,10.88-7.81,16.23-17.25,19.85-1.78.68-1,3.58.8,2.89,5.65-2.16,11.47-4.66,15.25-9.61s4.61-11.56,4-17.69c-.69-7.18-3.26-13.91-4.66-20.93-1.49-7.4-1.8-25.88,10.72-23.69,1.88.33,2.7-2.57.79-2.9Z"/><path class="cls-2" d="M180,380.81c-12-3.45-10.53,17.71-10.3,24,.44,12,8.79,39.8-10.27,42.21-1.89.24-1.92,3.25,0,3,10.21-1.29,15.23-11,15.5-20.54.21-7.33-1.63-14.59-2.09-21.88-.25-3.88-1.91-26.23,6.36-23.85a1.51,1.51,0,0,0,.8-2.9Z"/><path class="cls-2" d="M209.52,385.83c-4-.56-8.54-.9-11.06,2.85-3.24,4.8-2.08,13.75-2,19.22.17,7.6,1.56,15,2.11,22.57.59,8.23-1.4,18.44-11,20.23-1.89.35-1.09,3.25.8,2.89,10.81-2,13.84-13.58,13.15-23.12-.51-6.91-1.8-13.7-2.06-20.65q-.21-5.77.08-11.55c.09-1.8-.23-4.94.64-6.43l4.67-3.4a18.38,18.38,0,0,1,3.77.29c1.89.26,2.7-2.63.8-2.9Z"/><path class="cls-2" d="M100.3,572.15c22.78-7.15,42.06-22.76,65.6-27.76,1.89-.4,1.09-3.29-.8-2.89-23.56,5-42.82,20.61-65.6,27.76-1.83.58-1,3.47.8,2.89Z"/><path class="cls-2" d="M112.65,589.56a501.29,501.29,0,0,1,80.93-19.94c1.9-.31,1.09-3.2-.8-2.89a501.81,501.81,0,0,0-80.93,19.94c-1.82.61-1,3.51.8,2.89Z"/><path class="cls-2" d="M123.3,606.7a475.47,475.47,0,0,1,77.6-10.88c1.92-.11,1.93-3.11,0-3a480.61,480.61,0,0,0-78.39,11c-1.89.43-1.09,3.32.79,2.9Z"/><path class="cls-2" d="M497.6,202.59C482.55,200,481.14,220,483.19,230c1.68,8.21,5,16.18,4.74,24.7-.37,10.88-7.81,16.23-17.25,19.85-1.78.68-1,3.58.8,2.89,5.65-2.16,11.47-4.66,15.25-9.61s4.61-11.56,4-17.7c-.69-7.17-3.26-13.9-4.66-20.92-1.49-7.4-1.8-25.88,10.72-23.69,1.88.32,2.7-2.57.79-2.9Z"/><path class="cls-2" d="M526,210.34c-12-3.45-10.53,17.71-10.3,24,.44,12,8.79,39.8-10.27,42.21-1.89.24-1.92,3.25,0,3,10.21-1.29,15.23-11,15.5-20.54.21-7.33-1.63-14.59-2.09-21.88-.25-3.88-1.91-26.23,6.36-23.85a1.51,1.51,0,0,0,.8-2.9Z"/><path class="cls-2" d="M555.52,215.36c-4-.56-8.54-.9-11.06,2.85-3.24,4.8-2.08,13.75-2,19.22.17,7.6,1.56,15,2.11,22.57.59,8.23-1.4,18.44-11,20.23-1.89.35-1.09,3.24.8,2.89,10.81-2,13.84-13.59,13.15-23.12-.51-6.91-1.8-13.7-2.06-20.65q-.21-5.78.08-11.55c.09-1.8-.23-4.94.64-6.43L551,218a18.38,18.38,0,0,1,3.77.29c1.89.26,2.7-2.63.8-2.9Z"/><path class="cls-2" d="M443.3,55.76C466.08,48.61,485.36,33,508.9,28c1.89-.4,1.09-3.29-.8-2.89-23.56,5-42.82,20.62-65.6,27.76-1.83.58-1.05,3.48.8,2.9Z"/><path class="cls-2" d="M455.65,73.16a502.34,502.34,0,0,1,80.93-19.94c1.9-.3,1.09-3.19-.8-2.89a502.86,502.86,0,0,0-80.93,19.94c-1.82.61-1,3.51.8,2.89Z"/><path class="cls-2" d="M475.3,95.29a475.47,475.47,0,0,1,77.6-10.88c1.92-.11,1.93-3.11,0-3a480.61,480.61,0,0,0-78.39,11c-1.89.43-1.09,3.32.79,2.9Z"/><path class="cls-2" d="M522.6,358.11c-15.05-2.62-16.46,17.37-14.41,27.38,1.68,8.21,5,16.18,4.74,24.69-.37,10.89-7.81,16.23-17.25,19.86-1.78.68-1,3.58.8,2.89,5.65-2.17,11.47-4.66,15.25-9.61s4.61-11.56,4-17.7c-.69-7.17-3.26-13.9-4.66-20.93-1.49-7.39-1.8-25.87,10.72-23.69,1.88.33,2.7-2.56.79-2.89Z"/><path class="cls-2" d="M551,365.86c-12-3.45-10.53,17.71-10.3,23.95.44,12,8.79,39.81-10.27,42.22-1.89.24-1.92,3.24,0,3,10.21-1.29,15.23-11,15.5-20.55.21-7.33-1.63-14.58-2.09-21.87-.25-3.88-1.91-26.23,6.36-23.86a1.5,1.5,0,0,0,.8-2.89Z"/><path class="cls-2" d="M580.52,370.88c-4-.57-8.54-.9-11.06,2.84-3.24,4.81-2.08,13.76-2,19.22.17,7.61,1.56,15,2.11,22.58.59,8.23-1.4,18.44-11,20.22-1.89.36-1.09,3.25.8,2.9,10.81-2,13.84-13.59,13.15-23.12-.51-6.92-1.8-13.71-2.06-20.65q-.21-5.78.08-11.55c.09-1.8-.23-4.94.64-6.44l4.67-3.39a19.1,19.1,0,0,1,3.77.28c1.89.27,2.7-2.62.8-2.89Z"/><path class="cls-2" d="M471.3,557.2c22.78-7.15,42.06-22.76,65.6-27.76,1.89-.4,1.09-3.3-.8-2.9-23.56,5-42.82,20.62-65.6,27.77-1.83.57-1.05,3.47.8,2.89Z"/><path class="cls-2" d="M483.65,574.61a501.32,501.32,0,0,1,80.93-20c1.9-.3,1.09-3.19-.8-2.89a502.86,502.86,0,0,0-80.93,19.94c-1.82.62-1,3.51.8,2.9Z"/><path class="cls-2" d="M515.3,609.69a475.47,475.47,0,0,1,77.6-10.88c1.92-.11,1.93-3.11,0-3a479.54,479.54,0,0,0-78.39,11c-1.89.42-1.09,3.31.79,2.89Z"/><path class="cls-2" d="M826.6,197.61C811.55,195,810.14,215,812.19,225c1.68,8.21,5,16.18,4.74,24.69-.37,10.88-7.81,16.23-17.25,19.85-1.78.69-1,3.59.8,2.9,5.65-2.17,11.47-4.66,15.25-9.61s4.61-11.56,4-17.7c-.69-7.17-3.26-13.9-4.66-20.93-1.49-7.39-1.8-25.87,10.72-23.69,1.88.33,2.7-2.56.79-2.89Z"/><path class="cls-2" d="M855,205.36c-12-3.45-10.53,17.71-10.3,23.95.44,12,8.79,39.81-10.27,42.22-1.89.24-1.92,3.24,0,3,10.21-1.29,15.23-11,15.5-20.55.21-7.33-1.63-14.58-2.09-21.87-.25-3.88-1.91-26.23,6.36-23.86a1.5,1.5,0,0,0,.8-2.89Z"/><path class="cls-2" d="M884.52,210.38c-4-.57-8.54-.9-11.06,2.84-3.24,4.8-2.08,13.76-2,19.22.17,7.61,1.56,15,2.11,22.57.59,8.24-1.4,18.45-11,20.23-1.89.36-1.09,3.25.8,2.9,10.81-2,13.84-13.59,13.15-23.13-.51-6.91-1.8-13.7-2.06-20.64q-.21-5.77.08-11.55c.09-1.8-.23-4.94.64-6.44L880,213a19.11,19.11,0,0,1,3.77.29c1.89.27,2.7-2.62.8-2.89Z"/><path class="cls-2" d="M772.3,50.77C795.08,43.62,814.36,28,837.9,23c1.89-.4,1.09-3.29-.8-2.89-23.56,5-42.82,20.61-65.6,27.76-1.83.58-1,3.47.8,2.89Z"/><path class="cls-2" d="M784.65,68.18a501.29,501.29,0,0,1,80.93-19.94c1.9-.31,1.09-3.2-.8-2.89a501.81,501.81,0,0,0-80.93,19.94c-1.82.61-1,3.51.8,2.89Z"/><path class="cls-2" d="M804.3,90.3a476.56,476.56,0,0,1,77.6-10.88c1.92-.11,1.93-3.11,0-3a481.72,481.72,0,0,0-78.39,11c-1.89.42-1.09,3.32.79,2.89Z"/><path class="cls-2" d="M851.6,353.13c-15.05-2.63-16.46,17.36-14.41,27.38,1.68,8.2,5,16.18,4.74,24.69-.37,10.88-7.81,16.23-17.25,19.85-1.78.69-1,3.59.8,2.89,5.65-2.16,11.47-4.66,15.25-9.6s4.61-11.57,4-17.7c-.69-7.17-3.26-13.91-4.66-20.93-1.49-7.4-1.8-25.87,10.72-23.69,1.88.33,2.7-2.56.79-2.89Z"/><path class="cls-2" d="M880,360.88c-12-3.45-10.53,17.71-10.3,23.95.44,12,8.79,39.8-10.27,42.22-1.89.24-1.92,3.24,0,3,10.21-1.3,15.23-11,15.5-20.55.21-7.33-1.63-14.59-2.09-21.88-.25-3.87-1.91-26.23,6.36-23.85a1.5,1.5,0,0,0,.8-2.89Z"/><path class="cls-2" d="M909.52,365.89c-4-.56-8.54-.9-11.06,2.85-3.24,4.8-2.08,13.75-2,19.22.17,7.6,1.56,15,2.11,22.57.59,8.23-1.4,18.44-11,20.23-1.89.36-1.09,3.25.8,2.89,10.81-2,13.84-13.58,13.15-23.12-.51-6.91-1.8-13.7-2.06-20.65-.14-3.84-.11-7.7.08-11.54.09-1.8-.23-4.94.64-6.44l4.67-3.4a19.11,19.11,0,0,1,3.77.29c1.89.27,2.7-2.62.8-2.9Z"/><path class="cls-2" d="M800.3,552.21c22.78-7.14,42.06-22.76,65.6-27.76,1.89-.4,1.09-3.29-.8-2.89-23.56,5-42.82,20.61-65.6,27.76-1.83.58-1,3.47.8,2.89Z"/><path class="cls-2" d="M812.65,569.62a502.34,502.34,0,0,1,80.93-19.94c1.9-.3,1.09-3.2-.8-2.89a501.81,501.81,0,0,0-80.93,19.94c-1.82.61-1,3.51.8,2.89Z"/><path class="cls-2" d="M844.3,604.7a476.56,476.56,0,0,1,77.6-10.88c1.92-.11,1.93-3.11,0-3a481.72,481.72,0,0,0-78.39,11c-1.89.42-1.09,3.32.79,2.89Z"/><path class="cls-2" d="M285.3,263.11c22.78-7.15,42.06-22.76,65.6-27.76,1.89-.4,1.09-3.29-.8-2.89-23.56,5-42.82,20.61-65.6,27.76-1.83.58-1.05,3.47.8,2.89Z"/><path class="cls-2" d="M297.65,280.52a501.29,501.29,0,0,1,80.93-19.94c1.9-.31,1.09-3.2-.8-2.89a501.81,501.81,0,0,0-80.93,19.94c-1.82.61-1,3.51.8,2.89Z"/><path class="cls-2" d="M93.3,110.24a476.56,476.56,0,0,1,77.6-10.88c1.92-.11,1.93-3.11,0-3a480.63,480.63,0,0,0-78.39,11c-1.89.42-1.09,3.31.79,2.89Z"/><path class="cls-2" d="M290.6,41.09c-15.05-2.62-16.46,17.37-14.41,27.39,1.68,8.2,5,16.17,4.74,24.69-.37,10.88-7.81,16.23-17.25,19.85-1.78.68-1,3.59.8,2.89,5.65-2.16,11.47-4.66,15.25-9.6s4.61-11.57,4-17.7c-.69-7.17-3.26-13.91-4.66-20.93-1.49-7.4-1.8-25.87,10.72-23.69,1.88.33,2.7-2.56.79-2.9Z"/><path class="cls-2" d="M319,48.85c-12-3.45-10.53,17.71-10.3,23.95.44,12,8.79,39.8-10.27,42.22-1.89.24-1.92,3.24,0,3,10.21-1.3,15.23-11,15.5-20.55.21-7.33-1.63-14.59-2.09-21.88-.25-3.87-1.91-26.23,6.36-23.85a1.5,1.5,0,0,0,.8-2.89Z"/><path class="cls-2" d="M348.52,53.86c-4-.56-8.54-.9-11.06,2.85-3.24,4.8-2.08,13.75-1.95,19.22.17,7.6,1.56,15,2.11,22.57.59,8.23-1.4,18.44-10.95,20.23-1.89.35-1.09,3.25.8,2.89,10.81-2,13.84-13.58,13.15-23.12-.51-6.91-1.8-13.7-2.06-20.65-.14-3.84-.11-7.7.08-11.54.09-1.81-.23-4.94.64-6.44l4.67-3.4a19.11,19.11,0,0,1,3.77.29c1.89.27,2.7-2.63.8-2.9Z"/><path class="cls-2" d="M310.3,418.63c22.78-7.15,42.06-22.76,65.6-27.76,1.89-.4,1.09-3.3-.8-2.9-23.56,5-42.82,20.62-65.6,27.77-1.83.57-1.05,3.47.8,2.89Z"/><path class="cls-2" d="M322.65,436a501.29,501.29,0,0,1,80.93-19.94c1.9-.31,1.09-3.2-.8-2.9a502.86,502.86,0,0,0-80.93,19.94c-1.82.62-1,3.52.8,2.9Z"/><path class="cls-2" d="M342.3,458.16a475.47,475.47,0,0,1,77.6-10.88c1.92-.11,1.93-3.11,0-3a479.54,479.54,0,0,0-78.39,11c-1.89.42-1.09,3.31.79,2.89Z"/><path class="cls-2" d="M321.6,517.61C306.55,515,305.14,535,307.19,545c1.68,8.2,5,16.17,4.74,24.69-.37,10.88-7.81,16.23-17.25,19.85-1.78.68-1,3.59.8,2.89,5.65-2.16,11.47-4.66,15.25-9.6s4.61-11.57,4-17.7c-.69-7.18-3.26-13.91-4.66-20.93-1.49-7.4-1.8-25.88,10.72-23.69,1.88.33,2.7-2.56.79-2.9Z"/><path class="cls-2" d="M350,525.37c-12-3.46-10.53,17.71-10.3,24,.44,12,8.79,39.8-10.27,42.22-1.89.24-1.92,3.24,0,3,10.21-1.3,15.23-11,15.5-20.55.21-7.33-1.63-14.59-2.09-21.88-.25-3.88-1.91-26.23,6.36-23.85a1.5,1.5,0,0,0,.8-2.89Z"/><path class="cls-2" d="M379.52,530.38c-4-.56-8.54-.9-11.06,2.85-3.24,4.8-2.08,13.75-1.95,19.22.17,7.6,1.56,15,2.11,22.57.59,8.23-1.4,18.44-10.95,20.23-1.89.35-1.09,3.25.8,2.89,10.81-2,13.84-13.58,13.15-23.12-.51-6.91-1.8-13.7-2.06-20.65q-.21-5.77.08-11.54c.09-1.81-.23-5,.64-6.44L375,533a19.11,19.11,0,0,1,3.77.29c1.89.26,2.7-2.63.8-2.9Z"/><path class="cls-2" d="M641.3,246.16c22.78-7.14,42.06-22.76,65.6-27.76,1.89-.4,1.09-3.29-.8-2.89-23.56,5-42.82,20.61-65.6,27.76-1.83.58-1,3.48.8,2.89Z"/><path class="cls-2" d="M653.65,263.57a502.34,502.34,0,0,1,80.93-19.94c1.9-.3,1.09-3.19-.8-2.89a501.81,501.81,0,0,0-80.93,19.94c-1.82.61-1,3.51.8,2.89Z"/><path class="cls-2" d="M673.3,285.69a476.56,476.56,0,0,1,77.6-10.88c1.92-.1,1.93-3.11,0-3a481.72,481.72,0,0,0-78.39,11c-1.89.43-1.09,3.32.79,2.89Z"/><path class="cls-2" d="M646.6,24.15c-15.05-2.63-16.46,17.37-14.41,27.38,1.68,8.21,5,16.18,4.74,24.69-.37,10.88-7.81,16.23-17.25,19.85-1.78.69-1,3.59.8,2.9,5.65-2.17,11.47-4.66,15.25-9.61s4.61-11.56,4-17.7c-.69-7.17-3.26-13.9-4.66-20.93-1.49-7.4-1.8-25.87,10.72-23.69,1.88.33,2.7-2.56.79-2.89Z"/><path class="cls-2" d="M675,31.9c-12-3.45-10.53,17.71-10.3,24,.44,12,8.79,39.8-10.27,42.22-1.89.24-1.92,3.24,0,3,10.21-1.29,15.23-11,15.5-20.55.21-7.33-1.63-14.58-2.09-21.87-.25-3.88-1.91-26.24,6.36-23.86a1.5,1.5,0,0,0,.8-2.89Z"/><path class="cls-2" d="M704.52,36.92c-4-.57-8.54-.9-11.06,2.84-3.24,4.8-2.08,13.76-2,19.22.17,7.61,1.56,15,2.11,22.57.59,8.24-1.4,18.44-11,20.23-1.89.36-1.09,3.25.8,2.9,10.81-2,13.84-13.59,13.15-23.13-.51-6.91-1.8-13.7-2.06-20.64-.14-3.85-.11-7.71.08-11.55.09-1.8-.23-4.94.64-6.44l4.67-3.4a19.11,19.11,0,0,1,3.77.29c1.89.27,2.7-2.62.8-2.89Z"/><path class="cls-2" d="M666.3,401.68c22.78-7.15,42.06-22.76,65.6-27.76,1.89-.4,1.09-3.29-.8-2.89-23.56,5-42.82,20.61-65.6,27.76-1.83.57-1,3.47.8,2.89Z"/><path class="cls-2" d="M678.65,419.09a501.29,501.29,0,0,1,80.93-19.94c1.9-.31,1.09-3.2-.8-2.9a501.84,501.84,0,0,0-80.93,19.95c-1.82.61-1,3.51.8,2.89Z"/><path class="cls-2" d="M698.3,441.21a476.56,476.56,0,0,1,77.6-10.88c1.92-.11,1.93-3.11,0-3a481.72,481.72,0,0,0-78.39,11c-1.89.42-1.09,3.32.79,2.89Z"/><path class="cls-2" d="M677.6,500.67C662.55,498,661.14,518,663.19,528.05c1.68,8.2,5,16.18,4.74,24.69-.37,10.88-7.81,16.23-17.25,19.85-1.78.69-1,3.59.8,2.9,5.65-2.17,11.47-4.66,15.25-9.61s4.61-11.56,4-17.7c-.69-7.17-3.26-13.91-4.66-20.93-1.49-7.4-1.8-25.87,10.72-23.69,1.88.33,2.7-2.56.79-2.89Z"/><path class="cls-2" d="M706,508.42c-12-3.45-10.53,17.71-10.3,23.95.44,12,8.79,39.8-10.27,42.22-1.89.24-1.92,3.24,0,3,10.21-1.29,15.23-11,15.5-20.55.21-7.33-1.63-14.59-2.09-21.88-.25-3.87-1.91-26.23,6.36-23.85a1.5,1.5,0,0,0,.8-2.89Z"/><path class="cls-2" d="M735.52,513.44c-4-.57-8.54-.9-11.06,2.84-3.24,4.8-2.08,13.76-2,19.22.17,7.61,1.56,15,2.11,22.57.59,8.23-1.4,18.44-11,20.23-1.89.36-1.09,3.25.8,2.89,10.81-2,13.84-13.58,13.15-23.12-.51-6.91-1.8-13.7-2.06-20.64-.14-3.85-.11-7.71.08-11.55.09-1.8-.23-4.94.64-6.44L731,516a19.11,19.11,0,0,1,3.77.29c1.89.27,2.7-2.62.8-2.89Z"/><path class="cls-2" d="M980.3,252.15c22.78-7.15,42.06-22.76,65.6-27.77,1.89-.4,1.09-3.29-.8-2.89-23.56,5-42.82,20.61-65.6,27.76-1.83.58-1,3.48.8,2.9Z"/><path class="cls-2" d="M992.65,269.55a502.34,502.34,0,0,1,80.93-19.94c1.9-.3,1.09-3.19-.8-2.89a502.86,502.86,0,0,0-80.93,19.94c-1.82.61-1,3.51.8,2.89Z"/><path class="cls-2" d="M1012.3,291.68a475.47,475.47,0,0,1,77.6-10.88c1.92-.11,1.93-3.11,0-3a480.61,480.61,0,0,0-78.39,11c-1.89.43-1.09,3.32.79,2.9Z"/><path class="cls-2" d="M985.6,30.13c-15.05-2.62-16.46,17.37-14.41,27.38,1.68,8.21,5,16.18,4.74,24.69-.37,10.88-7.81,16.23-17.25,19.85-1.78.69-1,3.59.8,2.9,5.65-2.17,11.47-4.66,15.25-9.61s4.61-11.56,4-17.7c-.69-7.17-3.26-13.9-4.66-20.93-1.49-7.39-1.8-25.87,10.72-23.69,1.88.33,2.7-2.56.79-2.89Z"/><path class="cls-2" d="M1014,37.88c-12-3.45-10.53,17.71-10.3,23.95.44,12,8.79,39.81-10.27,42.22-1.89.24-1.92,3.24,0,3,10.21-1.29,15.23-11,15.5-20.55.21-7.33-1.63-14.58-2.09-21.87-.25-3.88-1.91-26.23,6.36-23.86a1.5,1.5,0,0,0,.8-2.89Z"/><path class="cls-2" d="M1043.52,42.9c-4-.57-8.54-.9-11.06,2.84-3.24,4.81-2.08,13.76-2,19.22.17,7.61,1.56,15,2.11,22.57.59,8.24-1.4,18.45-10.95,20.23-1.89.36-1.09,3.25.8,2.9,10.81-2,13.84-13.59,13.15-23.13-.51-6.91-1.8-13.7-2.06-20.64q-.21-5.78.08-11.55c.09-1.8-.23-4.94.64-6.44l4.67-3.4a19.11,19.11,0,0,1,3.77.29c1.89.27,2.7-2.62.8-2.89Z"/><path class="cls-2" d="M1005.3,407.66c22.78-7.14,42.06-22.76,65.6-27.76,1.89-.4,1.09-3.29-.8-2.89-23.56,5-42.82,20.61-65.6,27.76-1.83.58-1,3.47.8,2.89Z"/><path class="cls-2" d="M1017.65,425.07a501.29,501.29,0,0,1,80.93-19.94c1.9-.3,1.09-3.2-.8-2.89a501.81,501.81,0,0,0-80.93,19.94c-1.82.61-1,3.51.8,2.89Z"/><path class="cls-2" d="M1037.3,447.19a476.56,476.56,0,0,1,77.6-10.88c1.92-.11,1.93-3.11,0-3a481.72,481.72,0,0,0-78.39,11c-1.89.42-1.09,3.32.79,2.89Z"/><path class="cls-2" d="M1016.6,506.65C1001.55,504,1000.14,524,1002.19,534c1.68,8.21,5,16.18,4.74,24.69-.37,10.88-7.81,16.23-17.25,19.85-1.78.69-1,3.59.8,2.9,5.65-2.17,11.47-4.66,15.25-9.61s4.61-11.56,4-17.7c-.69-7.17-3.26-13.9-4.66-20.93-1.49-7.39-1.8-25.87,10.72-23.69,1.88.33,2.7-2.56.79-2.89Z"/><path class="cls-2" d="M1045,514.4c-12-3.45-10.53,17.71-10.3,24,.44,12,8.79,39.8-10.27,42.22-1.89.24-1.92,3.24,0,3,10.21-1.29,15.23-11,15.5-20.55.21-7.33-1.63-14.58-2.09-21.87-.25-3.88-1.91-26.24,6.36-23.86a1.5,1.5,0,0,0,.8-2.89Z"/><path class="cls-2" d="M1074.52,519.42c-4-.57-8.54-.9-11.06,2.84-3.24,4.8-2.08,13.76-2,19.22.17,7.61,1.56,15,2.11,22.57.59,8.24-1.4,18.45-10.95,20.23-1.89.36-1.09,3.25.8,2.9,10.81-2,13.84-13.59,13.15-23.13-.51-6.91-1.8-13.7-2.06-20.64q-.21-5.77.08-11.55c.09-1.8-.23-4.94.64-6.44L1070,522a19.11,19.11,0,0,1,3.77.29c1.89.27,2.7-2.62.8-2.89Z"/><path class="cls-2" d="M1205.6,166.7c-15-2.62-16.46,17.37-14.41,27.39,1.68,8.2,5,16.17,4.74,24.69-.37,10.88-7.81,16.23-17.25,19.85-1.78.68-1,3.59.8,2.89,5.65-2.16,11.47-4.66,15.25-9.6s4.61-11.57,4-17.7c-.69-7.17-3.26-13.91-4.66-20.93-1.49-7.4-1.8-25.87,10.72-23.69,1.88.33,2.7-2.56.79-2.9Z"/><path class="cls-2" d="M1234,174.46c-12-3.46-10.53,17.71-10.3,23.95.44,12,8.79,39.8-10.27,42.22-1.89.24-1.92,3.24,0,3,10.21-1.3,15.23-11,15.5-20.55.21-7.33-1.63-14.59-2.09-21.88-.25-3.88-1.91-26.23,6.36-23.85a1.5,1.5,0,0,0,.8-2.89Z"/><path class="cls-2" d="M1263.52,179.47c-4-.56-8.54-.9-11.06,2.85-3.24,4.8-2.08,13.75-2,19.22.17,7.6,1.56,15,2.11,22.57.59,8.23-1.4,18.44-10.95,20.23-1.89.35-1.09,3.25.8,2.89,10.81-2,13.84-13.58,13.15-23.12-.51-6.91-1.8-13.7-2.06-20.65-.14-3.84-.11-7.7.08-11.54.09-1.81-.23-4.94.64-6.44l4.67-3.4a19.11,19.11,0,0,1,3.77.29c1.89.26,2.7-2.63.8-2.9Z"/><path class="cls-2" d="M1149.3,42.8c22.78-7.15,42.06-22.76,65.6-27.77,1.89-.4,1.09-3.29-.8-2.89-23.56,5-42.82,20.62-65.6,27.76-1.83.58-1,3.48.8,2.9Z"/><path class="cls-2" d="M1161.65,60.2a502.34,502.34,0,0,1,80.93-19.94c1.9-.3,1.09-3.19-.8-2.89a502.86,502.86,0,0,0-80.93,19.94c-1.82.61-1,3.51.8,2.89Z"/><path class="cls-2" d="M1181.3,82.33a475.47,475.47,0,0,1,77.6-10.88c1.92-.11,1.93-3.11,0-3a480.61,480.61,0,0,0-78.39,11c-1.89.43-1.09,3.32.79,2.9Z"/><path class="cls-2" d="M1216.6,363.09c-15-2.62-16.46,17.37-14.41,27.39,1.68,8.2,5,16.17,4.74,24.69-.37,10.88-7.81,16.23-17.25,19.85-1.78.68-1,3.59.8,2.89,5.65-2.16,11.47-4.66,15.25-9.6s4.61-11.57,4-17.7c-.69-7.17-3.26-13.91-4.66-20.93-1.49-7.4-1.8-25.88,10.72-23.69,1.88.33,2.7-2.56.79-2.9Z"/><path class="cls-2" d="M1245,370.85c-12-3.46-10.53,17.71-10.3,23.95.44,12,8.79,39.8-10.27,42.22-1.89.24-1.92,3.24,0,3,10.21-1.3,15.23-11,15.5-20.55.21-7.33-1.63-14.59-2.09-21.88-.25-3.88-1.91-26.23,6.36-23.85a1.5,1.5,0,0,0,.8-2.89Z"/><path class="cls-2" d="M1274.52,375.86c-4-.56-8.54-.9-11.06,2.85-3.24,4.8-2.08,13.75-2,19.22.17,7.6,1.56,15,2.11,22.57.59,8.23-1.4,18.44-10.95,20.23-1.89.35-1.09,3.25.8,2.89,10.81-2,13.84-13.58,13.15-23.12-.51-6.91-1.8-13.7-2.06-20.65q-.21-5.78.08-11.54c.09-1.81-.23-4.95.64-6.44l4.67-3.4a19.11,19.11,0,0,1,3.77.29c1.89.26,2.7-2.63.8-2.9Z"/><path class="cls-2" d="M1167.3,554.21c22.78-7.15,42.06-22.76,65.6-27.76,1.89-.41,1.09-3.3-.8-2.9-23.56,5-42.82,20.62-65.6,27.76-1.83.58-1,3.48.8,2.9Z"/><path class="cls-2" d="M1179.65,571.62a501.32,501.32,0,0,1,80.93-20c1.9-.3,1.09-3.19-.8-2.89a502.86,502.86,0,0,0-80.93,19.94c-1.82.62-1,3.51.8,2.9Z"/><path class="cls-2" d="M1199.3,593.74a475.47,475.47,0,0,1,77.6-10.88c1.92-.11,1.93-3.11,0-3a480.61,480.61,0,0,0-78.39,11c-1.89.43-1.09,3.32.79,2.9Z"/><path class="cls-2" d="M47.6,683.1c-15.05-2.62-16.46,17.37-14.41,27.38,1.68,8.21,5,16.18,4.74,24.69-.37,10.89-7.81,16.23-17.25,19.86-1.78.68-1,3.58.8,2.89,5.65-2.17,11.47-4.66,15.25-9.61s4.61-11.56,4-17.7c-.69-7.17-3.26-13.9-4.66-20.93-1.49-7.39-1.8-25.87,10.72-23.69,1.88.33,2.7-2.56.79-2.89Z"/><path class="cls-2" d="M76,690.85c-12-3.45-10.53,17.71-10.3,23.95.44,12,8.79,39.81-10.27,42.22-1.89.24-1.92,3.24,0,3,10.21-1.29,15.23-11,15.5-20.55.21-7.33-1.63-14.58-2.09-21.87-.25-3.88-1.91-26.23,6.36-23.86a1.5,1.5,0,0,0,.8-2.89Z"/><path class="cls-2" d="M105.52,695.87c-4-.57-8.54-.9-11.06,2.84-3.24,4.81-2.08,13.76-1.95,19.22.17,7.61,1.56,15,2.11,22.58.59,8.23-1.4,18.44-11,20.22-1.89.36-1.09,3.25.8,2.9,10.81-2,13.84-13.59,13.15-23.12-.51-6.92-1.8-13.71-2.06-20.65q-.21-5.77.08-11.55c.09-1.8-.23-4.94.64-6.44l4.67-3.39a19.1,19.1,0,0,1,3.77.28c1.89.27,2.7-2.62.8-2.89Z"/><path class="cls-2" d="M418.6,668.15c-15.05-2.63-16.46,17.36-14.41,27.38,1.68,8.2,5,16.18,4.74,24.69-.37,10.88-7.81,16.23-17.25,19.85-1.78.69-1,3.59.8,2.89,5.65-2.16,11.47-4.65,15.25-9.6s4.61-11.56,4-17.7c-.69-7.17-3.26-13.91-4.66-20.93-1.49-7.4-1.8-25.87,10.72-23.69,1.88.33,2.7-2.56.79-2.89Z"/><path class="cls-2" d="M447,675.9c-12-3.45-10.53,17.71-10.3,24,.44,12,8.79,39.8-10.27,42.22-1.89.24-1.92,3.24,0,3,10.21-1.3,15.23-11,15.5-20.55.21-7.33-1.63-14.59-2.09-21.88-.25-3.87-1.91-26.23,6.36-23.85a1.5,1.5,0,0,0,.8-2.89Z"/><path class="cls-2" d="M476.52,680.92c-4-.57-8.54-.9-11.06,2.84-3.24,4.8-2.08,13.76-1.95,19.22.17,7.61,1.56,15,2.11,22.57.59,8.23-1.4,18.44-10.95,20.23-1.89.36-1.09,3.25.8,2.89,10.81-2,13.84-13.58,13.15-23.12-.51-6.91-1.8-13.7-2.06-20.65-.14-3.84-.11-7.7.08-11.54.09-1.8-.23-4.94.64-6.44l4.67-3.4a19.11,19.11,0,0,1,3.77.29c1.89.27,2.7-2.62.8-2.89Z"/><path class="cls-2" d="M747.6,663.16c-15.05-2.62-16.46,17.37-14.41,27.38,1.68,8.21,5,16.18,4.74,24.7-.37,10.88-7.81,16.23-17.25,19.85-1.78.68-1,3.58.8,2.89,5.65-2.17,11.47-4.66,15.25-9.61s4.61-11.56,4-17.7c-.69-7.17-3.26-13.9-4.66-20.92-1.49-7.4-1.8-25.88,10.72-23.7,1.88.33,2.7-2.56.79-2.89Z"/><path class="cls-2" d="M776,670.91c-12-3.45-10.53,17.71-10.3,24,.44,12,8.79,39.81-10.27,42.22-1.89.24-1.92,3.25,0,3,10.21-1.29,15.23-11,15.5-20.55.21-7.32-1.63-14.58-2.09-21.87-.25-3.88-1.91-26.23,6.36-23.85a1.51,1.51,0,0,0,.8-2.9Z"/><path class="cls-2" d="M805.52,675.93c-4-.56-8.54-.9-11.06,2.84-3.24,4.81-2.08,13.76-2,19.23.17,7.6,1.56,15,2.11,22.57.59,8.23-1.4,18.44-11,20.23-1.89.35-1.09,3.24.8,2.89,10.81-2,13.84-13.59,13.15-23.12-.51-6.91-1.8-13.71-2.06-20.65q-.21-5.77.08-11.55c.09-1.8-.23-4.94.64-6.44l4.67-3.39a19.1,19.1,0,0,1,3.77.28c1.89.27,2.7-2.62.8-2.89Z"/><path class="cls-2" d="M206.3,728.67c22.78-7.15,42.06-22.77,65.6-27.77,1.89-.4,1.09-3.29-.8-2.89-23.56,5-42.82,20.61-65.6,27.76-1.83.58-1.05,3.48.8,2.9Z"/><path class="cls-2" d="M218.65,746.07a502.34,502.34,0,0,1,80.93-19.94c1.9-.3,1.09-3.19-.8-2.89a501.81,501.81,0,0,0-80.93,19.94c-1.82.61-1,3.51.8,2.89Z"/><path class="cls-2" d="M562.3,711.72c22.78-7.15,42.06-22.76,65.6-27.76,1.89-.41,1.09-3.3-.8-2.9-23.56,5-42.82,20.62-65.6,27.77-1.83.57-1,3.47.8,2.89Z"/><path class="cls-2" d="M574.65,729.13a501.32,501.32,0,0,1,80.93-20c1.9-.3,1.09-3.19-.8-2.89a502.86,502.86,0,0,0-80.93,19.94c-1.82.62-1,3.51.8,2.9Z"/><path class="cls-2" d="M594.3,751.25a475.47,475.47,0,0,1,77.6-10.88c1.92-.11,1.93-3.11,0-3a479.54,479.54,0,0,0-78.39,11c-1.89.42-1.09,3.31.79,2.89Z"/><path class="cls-2" d="M901.3,717.7c22.78-7.15,42.06-22.76,65.6-27.76,1.89-.4,1.09-3.3-.8-2.9-23.56,5-42.82,20.62-65.6,27.77-1.83.57-1,3.47.8,2.89Z"/><path class="cls-2" d="M913.65,735.11a501.29,501.29,0,0,1,80.93-19.94c1.9-.31,1.09-3.2-.8-2.9a502.86,502.86,0,0,0-80.93,19.94c-1.82.62-1,3.52.8,2.9Z"/><path class="cls-2" d="M1124.6,655.19c-15-2.63-16.46,17.37-14.41,27.38,1.68,8.2,5,16.18,4.74,24.69-.37,10.88-7.81,16.23-17.25,19.85-1.78.69-1,3.59.8,2.9,5.65-2.17,11.47-4.66,15.25-9.61s4.61-11.56,4-17.7c-.69-7.17-3.26-13.91-4.66-20.93-1.49-7.4-1.8-25.87,10.72-23.69,1.88.33,2.7-2.56.79-2.89Z"/><path class="cls-2" d="M1153,662.94c-12-3.45-10.53,17.71-10.3,23.95.44,12,8.79,39.8-10.27,42.22-1.89.24-1.92,3.24,0,3,10.21-1.3,15.23-11,15.5-20.55.21-7.33-1.63-14.59-2.09-21.88-.25-3.87-1.91-26.23,6.36-23.85a1.5,1.5,0,0,0,.8-2.89Z"/><path class="cls-2" d="M1182.52,668c-4-.57-8.54-.9-11.06,2.84-3.24,4.8-2.08,13.76-2,19.22.17,7.61,1.56,15,2.11,22.57.59,8.23-1.4,18.44-10.95,20.23-1.89.36-1.09,3.25.8,2.89,10.81-2,13.84-13.58,13.15-23.12-.51-6.91-1.8-13.7-2.06-20.65-.14-3.84-.11-7.7.08-11.54.09-1.8-.23-4.94.64-6.44l4.67-3.4a19.11,19.11,0,0,1,3.77.29c1.89.27,2.7-2.62.8-2.89Z"/><path class="cls-2" d="M922.65,754.11a501.29,501.29,0,0,1,80.93-19.94c1.9-.31,1.09-3.2-.8-2.9a502.86,502.86,0,0,0-80.93,19.94c-1.82.62-1,3.52.8,2.9Z"/><path class="cls-2" d="M233.3,759.69a475.47,475.47,0,0,1,77.6-10.88c1.92-.11,1.93-3.11,0-3a479.54,479.54,0,0,0-78.39,11c-1.89.42-1.09,3.31.79,2.89Z"/></g></g></svg>