<svg xmlns="http://www.w3.org/2000/svg" xmlns:xlink="http://www.w3.org/1999/xlink" viewBox="0 0 1366.5 767.5"><defs><style>.cls-1{fill:url(#linear-gradient);}.cls-2{fill:#ff931e;}</style><linearGradient id="linear-gradient" y1="383.75" x2="1366.5" y2="383.75" gradientUnits="userSpaceOnUse"><stop offset="0" stop-color="#f60"/><stop offset="0.46" stop-color="#fc5d00"/><stop offset="0.58" stop-color="#fb5900"/><stop offset="0.87" stop-color="#e06100"/><stop offset="0.99" stop-color="#f60"/></linearGradient></defs><title>Asset 5</title><g id="Layer_2" data-name="Layer 2"><g id="Layer_1-2" data-name="Layer 1"><rect class="cls-1" width="1366.5" height="767.5"/><path class="cls-2" d="M127,216.81c-15-2.62-16.46,17.37-14.41,27.38,1.68,8.21,5,16.18,4.74,24.7-.37,10.88-7.81,16.23-17.25,19.85-1.78.68-1,3.58.8,2.89,5.65-2.16,11.47-4.66,15.25-9.61s4.61-11.56,4-17.7c-.69-7.17-3.25-13.9-4.66-20.92-1.49-7.4-1.8-25.88,10.72-23.69,1.88.32,2.7-2.57.79-2.9Z"/><path class="cls-2" d="M155.46,224.56c-12-3.45-10.53,17.71-10.3,24,.44,12,8.79,39.8-10.27,42.21-1.89.24-1.92,3.25,0,3,10.21-1.29,15.23-11,15.5-20.54.21-7.33-1.63-14.59-2.09-21.88-.25-3.88-1.91-26.23,6.36-23.85a1.51,1.51,0,0,0,.8-2.9Z"/><path class="cls-2" d="M184.94,229.58c-4-.56-8.54-.9-11.06,2.85-3.24,4.8-2.08,13.75-1.95,19.22.17,7.6,1.56,15,2.11,22.57.59,8.23-1.4,18.44-10.95,20.23-1.89.35-1.09,3.25.8,2.89,10.81-2,13.84-13.59,13.15-23.12-.51-6.91-1.8-13.7-2.06-20.65q-.21-5.77.08-11.55c.09-1.8-.23-4.94.64-6.43l4.67-3.4a18.38,18.38,0,0,1,3.77.29c1.89.26,2.7-2.63.8-2.9Z"/><path class="cls-2" d="M72.72,70c22.78-7.15,42.06-22.76,65.6-27.77,1.89-.4,1.09-3.29-.8-2.89-23.56,5-42.82,20.62-65.6,27.76-1.83.58-1,3.48.8,2.9Z"/><path class="cls-2" d="M85.07,87.38A502.34,502.34,0,0,1,166,67.44c1.9-.3,1.09-3.19-.8-2.89A502.86,502.86,0,0,0,84.27,84.49c-1.82.61-1,3.51.8,2.89Z"/><path class="cls-2" d="M320.72,295.93a475.47,475.47,0,0,1,77.6-10.88c1.92-.11,1.93-3.11,0-3a480.61,480.61,0,0,0-78.39,11c-1.89.43-1.09,3.32.79,2.9Z"/><path class="cls-2" d="M152,372.33c-15.05-2.62-16.46,17.37-14.41,27.38,1.68,8.21,5,16.18,4.74,24.69-.37,10.89-7.81,16.24-17.25,19.86-1.78.68-1,3.58.8,2.89,5.65-2.17,11.47-4.66,15.25-9.61s4.61-11.56,4-17.7c-.69-7.17-3.25-13.9-4.66-20.93-1.49-7.39-1.8-25.87,10.72-23.69,1.88.33,2.7-2.56.79-2.89Z"/><path class="cls-2" d="M180.46,380.08c-12-3.45-10.53,17.71-10.3,23.95.44,12,8.79,39.81-10.27,42.22-1.89.24-1.92,3.24,0,3,10.21-1.29,15.23-11,15.5-20.55.21-7.33-1.63-14.58-2.09-21.87-.25-3.88-1.91-26.23,6.36-23.86a1.5,1.5,0,0,0,.8-2.89Z"/><path class="cls-2" d="M209.94,385.1c-4-.57-8.54-.9-11.06,2.84-3.24,4.81-2.08,13.76-1.95,19.22.17,7.61,1.56,15,2.11,22.58.59,8.23-1.4,18.44-10.95,20.22-1.89.36-1.09,3.25.8,2.9,10.81-2,13.84-13.59,13.15-23.12-.51-6.92-1.8-13.71-2.06-20.65q-.21-5.77.08-11.55c.09-1.8-.23-4.94.64-6.44l4.67-3.39a19.1,19.1,0,0,1,3.77.28c1.89.27,2.7-2.62.8-2.89Z"/><path class="cls-2" d="M100.72,571.42c22.78-7.15,42.06-22.76,65.6-27.76,1.89-.4,1.09-3.3-.8-2.9-23.56,5-42.82,20.62-65.6,27.77-1.83.57-1,3.47.8,2.89Z"/><path class="cls-2" d="M113.07,588.83a501.32,501.32,0,0,1,80.93-20c1.9-.3,1.09-3.19-.8-2.89a502.86,502.86,0,0,0-80.93,19.94c-1.82.62-1,3.51.8,2.9Z"/><path class="cls-2" d="M123.72,606a476.56,476.56,0,0,1,77.6-10.88c1.92-.11,1.93-3.11,0-3a481.72,481.72,0,0,0-78.39,11c-1.89.43-1.09,3.32.79,2.89Z"/><path class="cls-2" d="M498,201.86c-15-2.62-16.46,17.37-14.41,27.38,1.68,8.21,5,16.18,4.74,24.69-.37,10.88-7.81,16.23-17.25,19.86-1.78.68-1,3.58.8,2.89,5.65-2.17,11.47-4.66,15.25-9.61s4.61-11.56,4-17.7c-.69-7.17-3.25-13.9-4.66-20.93-1.49-7.39-1.8-25.87,10.72-23.69,1.88.33,2.7-2.56.79-2.89Z"/><path class="cls-2" d="M526.46,209.61c-12-3.45-10.53,17.71-10.3,23.95.44,12,8.79,39.81-10.27,42.22-1.89.24-1.92,3.24,0,3,10.21-1.29,15.23-11,15.5-20.55.21-7.33-1.63-14.58-2.09-21.87-.25-3.88-1.91-26.23,6.36-23.86a1.5,1.5,0,0,0,.8-2.89Z"/><path class="cls-2" d="M555.94,214.63c-4-.57-8.54-.9-11.06,2.84-3.24,4.81-2.08,13.76-2,19.22.17,7.61,1.56,15,2.11,22.58.59,8.23-1.4,18.44-10.95,20.22-1.89.36-1.09,3.25.8,2.9,10.81-2,13.84-13.59,13.15-23.12-.51-6.92-1.8-13.71-2.06-20.65q-.21-5.77.08-11.55c.09-1.8-.23-4.94.64-6.44l4.67-3.39a19.1,19.1,0,0,1,3.77.28c1.89.27,2.7-2.62.8-2.89Z"/><path class="cls-2" d="M443.72,55c22.78-7.14,42.06-22.76,65.6-27.76,1.89-.4,1.09-3.29-.8-2.89C485,29.37,465.7,45,442.92,52.13c-1.83.58-1.05,3.47.8,2.89Z"/><path class="cls-2" d="M456.07,72.43A502.34,502.34,0,0,1,537,52.49c1.9-.3,1.09-3.2-.8-2.89a501.81,501.81,0,0,0-80.93,19.94c-1.82.61-1,3.51.8,2.89Z"/><path class="cls-2" d="M475.72,94.55a476.56,476.56,0,0,1,77.6-10.88c1.92-.11,1.93-3.11,0-3a481.72,481.72,0,0,0-78.39,11c-1.89.42-1.09,3.32.79,2.89Z"/><path class="cls-2" d="M523,357.38c-15-2.63-16.46,17.36-14.41,27.38,1.68,8.2,5,16.18,4.74,24.69-.37,10.88-7.81,16.23-17.25,19.85-1.78.69-1,3.59.8,2.89,5.65-2.16,11.47-4.65,15.25-9.6s4.61-11.56,4-17.7c-.69-7.17-3.25-13.91-4.66-20.93-1.49-7.4-1.8-25.87,10.72-23.69,1.88.33,2.7-2.56.79-2.89Z"/><path class="cls-2" d="M551.46,365.13c-12-3.45-10.53,17.71-10.3,23.95.44,12,8.79,39.8-10.27,42.22-1.89.24-1.92,3.24,0,3,10.21-1.3,15.23-11,15.5-20.55.21-7.33-1.63-14.59-2.09-21.88-.25-3.87-1.91-26.23,6.36-23.85a1.5,1.5,0,0,0,.8-2.89Z"/><path class="cls-2" d="M580.94,370.15c-4-.57-8.54-.9-11.06,2.84-3.24,4.8-2.08,13.76-2,19.22.17,7.61,1.56,15,2.11,22.57.59,8.23-1.4,18.44-10.95,20.23-1.89.36-1.09,3.25.8,2.89,10.81-2,13.84-13.58,13.15-23.12-.51-6.91-1.8-13.7-2.06-20.65-.14-3.84-.11-7.7.08-11.54.09-1.8-.23-4.94.64-6.44l4.67-3.4a19.11,19.11,0,0,1,3.77.29c1.89.27,2.7-2.62.8-2.89Z"/><path class="cls-2" d="M471.72,556.46c22.78-7.14,42.06-22.76,65.6-27.76,1.89-.4,1.09-3.29-.8-2.89-23.56,5-42.82,20.61-65.6,27.76-1.83.58-1.05,3.48.8,2.89Z"/><path class="cls-2" d="M484.07,573.87A502.34,502.34,0,0,1,565,553.93c1.9-.3,1.09-3.19-.8-2.89A501.81,501.81,0,0,0,483.27,571c-1.82.61-1,3.51.8,2.89Z"/><path class="cls-2" d="M515.72,609a476.56,476.56,0,0,1,77.6-10.88c1.92-.11,1.93-3.11,0-3a481.72,481.72,0,0,0-78.39,11c-1.89.43-1.09,3.32.79,2.89Z"/><path class="cls-2" d="M827,196.87c-15-2.62-16.46,17.37-14.41,27.39,1.68,8.2,5,16.17,4.74,24.69-.37,10.88-7.81,16.23-17.25,19.85-1.78.69-1,3.59.8,2.89,5.65-2.16,11.47-4.66,15.25-9.6s4.61-11.57,4-17.7c-.69-7.17-3.25-13.91-4.66-20.93-1.49-7.4-1.8-25.87,10.72-23.69,1.88.33,2.7-2.56.79-2.9Z"/><path class="cls-2" d="M855.46,204.63c-12-3.45-10.53,17.71-10.3,24,.44,12,8.79,39.8-10.27,42.22-1.89.24-1.92,3.24,0,3,10.21-1.3,15.23-11,15.5-20.55.21-7.33-1.63-14.59-2.09-21.88-.25-3.87-1.91-26.23,6.36-23.85a1.5,1.5,0,0,0,.8-2.89Z"/><path class="cls-2" d="M884.94,209.64c-4-.56-8.54-.9-11.06,2.85-3.24,4.8-2.08,13.75-2,19.22.17,7.6,1.56,15,2.11,22.57.59,8.23-1.4,18.44-10.95,20.23-1.89.36-1.09,3.25.8,2.89,10.81-2,13.84-13.58,13.15-23.12-.51-6.91-1.8-13.7-2.06-20.65-.14-3.84-.11-7.7.08-11.54.09-1.8-.23-4.94.64-6.44l4.67-3.4a19.11,19.11,0,0,1,3.77.29c1.89.27,2.7-2.62.8-2.9Z"/><path class="cls-2" d="M772.72,50c22.78-7.15,42.06-22.76,65.6-27.76,1.89-.4,1.09-3.3-.8-2.9C814,24.39,794.7,40,771.92,47.15c-1.83.57-1,3.47.8,2.89Z"/><path class="cls-2" d="M785.07,67.45A501.32,501.32,0,0,1,866,47.5c1.9-.3,1.09-3.19-.8-2.89a502.86,502.86,0,0,0-80.93,19.94c-1.82.62-1,3.52.8,2.9Z"/><path class="cls-2" d="M804.72,89.57a475.47,475.47,0,0,1,77.6-10.88c1.92-.11,1.93-3.11,0-3a479.54,479.54,0,0,0-78.39,11c-1.89.42-1.09,3.31.79,2.89Z"/><path class="cls-2" d="M852,352.39c-15-2.62-16.46,17.37-14.41,27.38,1.68,8.21,5,16.18,4.74,24.7-.37,10.88-7.81,16.23-17.25,19.85-1.78.68-1,3.58.8,2.89,5.65-2.17,11.47-4.66,15.25-9.61s4.61-11.56,4-17.7c-.69-7.17-3.25-13.9-4.66-20.92-1.49-7.4-1.8-25.88,10.72-23.7,1.88.33,2.7-2.56.79-2.89Z"/><path class="cls-2" d="M880.46,360.14c-12-3.45-10.53,17.71-10.3,23.95.44,12,8.79,39.81-10.27,42.22-1.89.24-1.92,3.25,0,3,10.21-1.29,15.23-11,15.5-20.55.21-7.32-1.63-14.58-2.09-21.87-.25-3.88-1.91-26.23,6.36-23.85a1.51,1.51,0,0,0,.8-2.9Z"/><path class="cls-2" d="M909.94,365.16c-4-.56-8.54-.9-11.06,2.84-3.24,4.81-2.08,13.76-2,19.23.17,7.6,1.56,15,2.11,22.57.59,8.23-1.4,18.44-10.95,20.23-1.89.35-1.09,3.24.8,2.89,10.81-2,13.84-13.59,13.15-23.12-.51-6.91-1.8-13.71-2.06-20.65q-.21-5.77.08-11.55c.09-1.8-.23-4.94.64-6.44l4.67-3.39a19.1,19.1,0,0,1,3.77.28c1.89.27,2.7-2.62.8-2.89Z"/><path class="cls-2" d="M800.72,551.48c22.78-7.15,42.06-22.76,65.6-27.76,1.89-.4,1.09-3.3-.8-2.89-23.56,5-42.82,20.61-65.6,27.76-1.83.57-1,3.47.8,2.89Z"/><path class="cls-2" d="M813.07,568.89A501.29,501.29,0,0,1,894,549c1.9-.31,1.09-3.2-.8-2.9a501.84,501.84,0,0,0-80.93,20c-1.82.61-1,3.51.8,2.89Z"/><path class="cls-2" d="M844.72,604a476.56,476.56,0,0,1,77.6-10.88c1.92-.11,1.93-3.11,0-3a479.54,479.54,0,0,0-78.39,11c-1.89.42-1.09,3.31.79,2.89Z"/><path class="cls-2" d="M285.72,262.38c22.78-7.15,42.06-22.76,65.6-27.76,1.89-.4,1.09-3.3-.8-2.9-23.56,5-42.82,20.62-65.6,27.77-1.83.57-1.05,3.47.8,2.89Z"/><path class="cls-2" d="M298.07,279.79a502.37,502.37,0,0,1,80.93-20c1.9-.3,1.09-3.19-.8-2.89a502.86,502.86,0,0,0-80.93,19.94c-1.82.62-1,3.52.8,2.9Z"/><path class="cls-2" d="M93.72,109.51a475.47,475.47,0,0,1,77.6-10.88c1.92-.11,1.93-3.11,0-3a480.61,480.61,0,0,0-78.39,11c-1.89.43-1.09,3.32.79,2.9Z"/><path class="cls-2" d="M291,40.36c-15-2.62-16.46,17.37-14.41,27.38,1.68,8.21,5,16.18,4.74,24.7-.37,10.88-7.81,16.23-17.25,19.85-1.78.68-1,3.58.8,2.89,5.65-2.17,11.47-4.66,15.25-9.61s4.61-11.56,4-17.7c-.69-7.17-3.25-13.9-4.66-20.92-1.49-7.4-1.8-25.88,10.72-23.7,1.88.33,2.7-2.56.79-2.89Z"/><path class="cls-2" d="M319.46,48.11c-12-3.45-10.53,17.71-10.3,24,.44,12,8.79,39.81-10.27,42.22-1.89.24-1.92,3.25,0,3,10.21-1.29,15.23-11,15.5-20.55.21-7.32-1.63-14.58-2.09-21.87-.25-3.88-1.91-26.23,6.36-23.85a1.51,1.51,0,0,0,.8-2.9Z"/><path class="cls-2" d="M348.94,53.13c-4-.56-8.54-.9-11.06,2.84-3.24,4.81-2.08,13.76-1.95,19.23.17,7.6,1.56,15,2.11,22.57.59,8.23-1.4,18.44-11,20.23-1.89.35-1.09,3.24.8,2.89,10.81-2,13.84-13.59,13.15-23.12-.51-6.91-1.8-13.71-2.06-20.65q-.21-5.78.08-11.55c.09-1.8-.23-4.94.64-6.44l4.67-3.39a19.1,19.1,0,0,1,3.77.28c1.89.27,2.7-2.62.8-2.89Z"/><path class="cls-2" d="M310.72,417.9c22.78-7.15,42.06-22.77,65.6-27.77,1.89-.4,1.09-3.29-.8-2.89-23.56,5-42.82,20.61-65.6,27.76-1.83.58-1.05,3.48.8,2.9Z"/><path class="cls-2" d="M323.07,435.3A502.34,502.34,0,0,1,404,415.36c1.9-.3,1.09-3.19-.8-2.89a501.81,501.81,0,0,0-80.93,19.94c-1.82.61-1,3.51.8,2.89Z"/><path class="cls-2" d="M342.72,457.43a474.38,474.38,0,0,1,77.6-10.88c1.92-.11,1.93-3.12,0-3a480.61,480.61,0,0,0-78.39,11c-1.89.43-1.09,3.32.79,2.9Z"/><path class="cls-2" d="M322,516.88c-15-2.62-16.46,17.37-14.41,27.38,1.68,8.21,5,16.18,4.74,24.7-.37,10.88-7.81,16.23-17.25,19.85-1.78.68-1,3.58.8,2.89,5.65-2.17,11.47-4.66,15.25-9.61s4.61-11.56,4-17.7c-.69-7.17-3.25-13.9-4.66-20.93-1.49-7.39-1.8-25.87,10.72-23.69,1.88.33,2.7-2.56.79-2.89Z"/><path class="cls-2" d="M350.46,524.63c-12-3.45-10.53,17.71-10.3,24,.44,12,8.79,39.81-10.27,42.22-1.89.24-1.92,3.24,0,3,10.21-1.29,15.23-11,15.5-20.55.21-7.32-1.63-14.58-2.09-21.87-.25-3.88-1.91-26.23,6.36-23.86a1.5,1.5,0,0,0,.8-2.89Z"/><path class="cls-2" d="M379.94,529.65c-4-.57-8.54-.9-11.06,2.84-3.24,4.81-2.08,13.76-1.95,19.22.17,7.61,1.56,15,2.11,22.58.59,8.23-1.4,18.44-11,20.23-1.89.35-1.09,3.24.8,2.89,10.81-2,13.84-13.59,13.15-23.12-.51-6.91-1.8-13.71-2.06-20.65q-.21-5.77.08-11.55c.09-1.8-.23-4.94.64-6.44l4.67-3.39a19.1,19.1,0,0,1,3.77.28c1.89.27,2.7-2.62.8-2.89Z"/><path class="cls-2" d="M641.72,245.43c22.78-7.15,42.06-22.76,65.6-27.76,1.89-.4,1.09-3.29-.8-2.89-23.56,5-42.82,20.61-65.6,27.76-1.83.57-1,3.47.8,2.89Z"/><path class="cls-2" d="M654.07,262.84A501.29,501.29,0,0,1,735,242.9c1.9-.31,1.09-3.2-.8-2.9A501.84,501.84,0,0,0,653.27,260c-1.82.61-1,3.51.8,2.89Z"/><path class="cls-2" d="M673.72,285a476.56,476.56,0,0,1,77.6-10.88c1.92-.11,1.93-3.11,0-3a481.72,481.72,0,0,0-78.39,11c-1.89.42-1.09,3.32.79,2.89Z"/><path class="cls-2" d="M647,23.41c-15-2.62-16.46,17.37-14.41,27.39,1.68,8.2,5,16.17,4.74,24.69-.37,10.88-7.81,16.23-17.25,19.85-1.78.68-1,3.59.8,2.89,5.65-2.16,11.47-4.66,15.25-9.6s4.61-11.57,4-17.7c-.69-7.17-3.25-13.91-4.66-20.93-1.49-7.4-1.8-25.88,10.72-23.69,1.88.33,2.7-2.56.79-2.9Z"/><path class="cls-2" d="M675.46,31.17c-12-3.46-10.53,17.71-10.3,23.95.44,12,8.79,39.8-10.27,42.22-1.89.24-1.92,3.24,0,3,10.21-1.3,15.23-11,15.5-20.55.21-7.33-1.63-14.59-2.09-21.88-.25-3.88-1.91-26.23,6.36-23.85a1.5,1.5,0,0,0,.8-2.89Z"/><path class="cls-2" d="M704.94,36.18c-4-.56-8.54-.9-11.06,2.85-3.24,4.8-2.08,13.75-2,19.22.17,7.6,1.56,15,2.11,22.57.59,8.23-1.4,18.44-10.95,20.23-1.89.35-1.09,3.25.8,2.89,10.81-2,13.84-13.58,13.15-23.12-.51-6.91-1.8-13.7-2.06-20.65q-.21-5.78.08-11.54c.09-1.81-.23-5,.64-6.44l4.67-3.4a19.11,19.11,0,0,1,3.77.29c1.89.26,2.7-2.63.8-2.9Z"/><path class="cls-2" d="M666.72,401c22.78-7.15,42.06-22.76,65.6-27.76,1.89-.4,1.09-3.3-.8-2.9-23.56,5-42.82,20.62-65.6,27.77-1.83.57-1,3.47.8,2.89Z"/><path class="cls-2" d="M679.07,418.36A501.32,501.32,0,0,1,760,398.41c1.9-.3,1.09-3.19-.8-2.89a502.86,502.86,0,0,0-80.93,19.94c-1.82.62-1,3.51.8,2.9Z"/><path class="cls-2" d="M698.72,440.48a475.47,475.47,0,0,1,77.6-10.88c1.92-.11,1.93-3.11,0-3a479.54,479.54,0,0,0-78.39,11c-1.89.42-1.09,3.31.79,2.89Z"/><path class="cls-2" d="M678,499.93c-15-2.62-16.46,17.37-14.41,27.39,1.68,8.2,5,16.17,4.74,24.69-.37,10.88-7.81,16.23-17.25,19.85-1.78.68-1,3.58.8,2.89,5.65-2.16,11.47-4.66,15.25-9.61s4.61-11.56,4-17.69c-.69-7.18-3.25-13.91-4.66-20.93-1.49-7.4-1.8-25.88,10.72-23.69,1.88.33,2.7-2.57.79-2.9Z"/><path class="cls-2" d="M706.46,507.68c-12-3.45-10.53,17.71-10.3,24,.44,12,8.79,39.8-10.27,42.21-1.89.24-1.92,3.25,0,3,10.21-1.29,15.23-11,15.5-20.54.21-7.33-1.63-14.59-2.09-21.88-.25-3.88-1.91-26.23,6.36-23.85a1.51,1.51,0,0,0,.8-2.9Z"/><path class="cls-2" d="M735.94,512.7c-4-.56-8.54-.9-11.06,2.85-3.24,4.8-2.08,13.75-2,19.22.17,7.6,1.56,15,2.11,22.57.59,8.23-1.4,18.44-10.95,20.23-1.89.35-1.09,3.25.8,2.89,10.81-2,13.84-13.58,13.15-23.12-.51-6.91-1.8-13.7-2.06-20.65q-.21-5.78.08-11.55c.09-1.8-.23-4.94.64-6.43l4.67-3.4a18.38,18.38,0,0,1,3.77.29c1.89.26,2.7-2.63.8-2.9Z"/><path class="cls-2" d="M980.72,251.41c22.78-7.14,42.06-22.76,65.6-27.76,1.89-.4,1.09-3.29-.8-2.89-23.56,5-42.82,20.61-65.6,27.76-1.83.58-1,3.47.8,2.89Z"/><path class="cls-2" d="M993.07,268.82A501.29,501.29,0,0,1,1074,248.88c1.9-.3,1.09-3.2-.8-2.89a501.81,501.81,0,0,0-80.93,19.94c-1.82.61-1,3.51.8,2.89Z"/><path class="cls-2" d="M1012.72,290.94a476.56,476.56,0,0,1,77.6-10.88c1.92-.11,1.93-3.11,0-3a481.72,481.72,0,0,0-78.39,11c-1.89.42-1.09,3.32.79,2.89Z"/><path class="cls-2" d="M986,29.4c-15-2.63-16.46,17.36-14.41,27.38,1.68,8.2,5,16.18,4.74,24.69-.37,10.88-7.81,16.23-17.25,19.85-1.78.69-1,3.59.8,2.89,5.65-2.16,11.47-4.66,15.25-9.6s4.61-11.57,4-17.7c-.69-7.17-3.25-13.91-4.66-20.93-1.49-7.4-1.8-25.87,10.72-23.69,1.88.33,2.7-2.56.79-2.89Z"/><path class="cls-2" d="M1014.46,37.15c-12-3.45-10.53,17.71-10.3,24,.44,12,8.79,39.8-10.27,42.22-1.89.24-1.92,3.24,0,3,10.21-1.3,15.23-11,15.5-20.55.21-7.33-1.63-14.59-2.09-21.88-.25-3.87-1.91-26.23,6.36-23.85a1.5,1.5,0,0,0,.8-2.89Z"/><path class="cls-2" d="M1043.94,42.17c-4-.57-8.54-.91-11.06,2.84-3.24,4.8-2.08,13.76-2,19.22.17,7.61,1.56,15,2.11,22.57.59,8.23-1.4,18.44-10.95,20.23-1.89.36-1.09,3.25.8,2.89,10.81-2,13.84-13.58,13.15-23.12-.51-6.91-1.8-13.7-2.06-20.65-.14-3.84-.11-7.7.08-11.54.09-1.8-.23-4.94.64-6.44l4.67-3.4a19.11,19.11,0,0,1,3.77.29c1.89.27,2.7-2.62.8-2.89Z"/><path class="cls-2" d="M1005.72,406.93c22.78-7.15,42.06-22.76,65.6-27.76,1.89-.4,1.09-3.3-.8-2.9-23.56,5-42.82,20.62-65.6,27.77-1.83.57-1,3.47.8,2.89Z"/><path class="cls-2" d="M1018.07,424.34A501.29,501.29,0,0,1,1099,404.4c1.9-.31,1.09-3.2-.8-2.9a502.86,502.86,0,0,0-80.93,19.94c-1.82.62-1,3.52.8,2.9Z"/><path class="cls-2" d="M1037.72,446.46a476.56,476.56,0,0,1,77.6-10.88c1.92-.11,1.93-3.11,0-3a479.54,479.54,0,0,0-78.39,11c-1.89.42-1.09,3.31.79,2.89Z"/><path class="cls-2" d="M1017,505.91c-15-2.62-16.46,17.37-14.41,27.39,1.68,8.2,5,16.17,4.74,24.69-.37,10.88-7.81,16.23-17.25,19.85-1.78.68-1,3.59.8,2.89,5.65-2.16,11.47-4.66,15.25-9.6s4.61-11.57,4-17.7c-.69-7.17-3.25-13.91-4.66-20.93-1.49-7.4-1.8-25.87,10.72-23.69,1.88.33,2.7-2.56.79-2.9Z"/><path class="cls-2" d="M1045.46,513.67c-12-3.45-10.53,17.71-10.3,24,.44,12,8.79,39.8-10.27,42.22-1.89.24-1.92,3.24,0,3,10.21-1.3,15.23-11,15.5-20.55.21-7.33-1.63-14.59-2.09-21.88-.25-3.88-1.91-26.23,6.36-23.85a1.5,1.5,0,0,0,.8-2.89Z"/><path class="cls-2" d="M1074.94,518.68c-4-.56-8.54-.9-11.06,2.85-3.24,4.8-2.08,13.75-2,19.22.17,7.6,1.56,15,2.11,22.57.59,8.23-1.4,18.44-11,20.23-1.89.35-1.09,3.25.8,2.89,10.81-2,13.84-13.58,13.15-23.12-.51-6.91-1.8-13.7-2.06-20.65-.14-3.84-.11-7.7.08-11.54.09-1.81-.23-4.94.64-6.44l4.67-3.4a19.11,19.11,0,0,1,3.77.29c1.89.26,2.7-2.63.8-2.9Z"/><path class="cls-2" d="M1206,166c-15-2.62-16.46,17.37-14.41,27.38,1.68,8.21,5,16.18,4.74,24.7-.37,10.88-7.81,16.23-17.25,19.85-1.78.68-1,3.58.8,2.89,5.65-2.17,11.47-4.66,15.25-9.61s4.61-11.56,4-17.7c-.69-7.17-3.25-13.9-4.66-20.92-1.49-7.4-1.8-25.88,10.72-23.7,1.88.33,2.7-2.56.79-2.89Z"/><path class="cls-2" d="M1234.46,173.72c-12-3.45-10.53,17.71-10.3,23.95.44,12,8.79,39.81-10.27,42.22-1.89.24-1.92,3.25,0,3,10.21-1.29,15.23-11,15.5-20.55.21-7.32-1.63-14.58-2.09-21.87-.25-3.88-1.91-26.23,6.36-23.85a1.51,1.51,0,0,0,.8-2.9Z"/><path class="cls-2" d="M1263.94,178.74c-4-.56-8.54-.9-11.06,2.84-3.24,4.81-2.08,13.76-2,19.23.17,7.6,1.56,15,2.11,22.57.59,8.23-1.4,18.44-11,20.23-1.89.35-1.09,3.24.8,2.89,10.81-2,13.84-13.59,13.15-23.12-.51-6.91-1.8-13.71-2.06-20.65q-.21-5.78.08-11.55c.09-1.8-.23-4.94.64-6.44l4.67-3.39a19.1,19.1,0,0,1,3.77.28c1.89.27,2.7-2.62.8-2.89Z"/><path class="cls-2" d="M1149.72,42.06c22.78-7.14,42.06-22.76,65.6-27.76,1.89-.4,1.09-3.29-.8-2.89-23.56,5-42.82,20.61-65.6,27.76-1.83.58-1.05,3.47.8,2.89Z"/><path class="cls-2" d="M1162.07,59.47A502.34,502.34,0,0,1,1243,39.53c1.9-.3,1.09-3.2-.8-2.89a501.81,501.81,0,0,0-80.93,19.94c-1.82.61-1,3.51.8,2.89Z"/><path class="cls-2" d="M1181.72,81.59a476.56,476.56,0,0,1,77.6-10.88c1.92-.11,1.93-3.11,0-3a481.72,481.72,0,0,0-78.39,11c-1.89.42-1.09,3.32.79,2.89Z"/><path class="cls-2" d="M1217,362.36c-15-2.62-16.46,17.37-14.41,27.38,1.68,8.21,5,16.18,4.74,24.7-.37,10.88-7.81,16.23-17.25,19.85-1.78.68-1,3.58.8,2.89,5.65-2.17,11.47-4.66,15.25-9.61s4.61-11.56,4-17.7c-.69-7.17-3.25-13.9-4.66-20.92-1.49-7.4-1.8-25.88,10.72-23.7,1.88.33,2.7-2.56.79-2.89Z"/><path class="cls-2" d="M1245.46,370.11c-12-3.45-10.53,17.71-10.3,23.95.44,12,8.79,39.81-10.27,42.22-1.89.24-1.92,3.24,0,3,10.21-1.29,15.23-11,15.5-20.55.21-7.32-1.63-14.58-2.09-21.87-.25-3.88-1.91-26.23,6.36-23.86a1.5,1.5,0,0,0,.8-2.89Z"/><path class="cls-2" d="M1274.94,375.13c-4-.56-8.54-.9-11.06,2.84-3.24,4.81-2.08,13.76-2,19.22.17,7.61,1.56,15,2.11,22.58.59,8.23-1.4,18.44-11,20.23-1.89.35-1.09,3.24.8,2.89,10.81-2,13.84-13.59,13.15-23.12-.51-6.91-1.8-13.71-2.06-20.65q-.21-5.78.08-11.55c.09-1.8-.23-4.94.64-6.44l4.67-3.39a19.1,19.1,0,0,1,3.77.28c1.89.27,2.7-2.62.8-2.89Z"/><path class="cls-2" d="M1167.72,553.47c22.78-7.14,42.06-22.76,65.6-27.76,1.89-.4,1.09-3.29-.8-2.89-23.56,5-42.82,20.61-65.6,27.76-1.83.58-1.05,3.47.8,2.89Z"/><path class="cls-2" d="M1180.07,570.88A502.34,502.34,0,0,1,1261,550.94c1.9-.3,1.09-3.19-.8-2.89A501.81,501.81,0,0,0,1179.27,568c-1.82.61-1,3.51.8,2.89Z"/><path class="cls-2" d="M1199.72,593a476.56,476.56,0,0,1,77.6-10.88c1.92-.11,1.93-3.11,0-3a481.72,481.72,0,0,0-78.39,11c-1.89.43-1.09,3.32.79,2.89Z"/><path class="cls-2" d="M48,682.37C33,679.74,31.56,699.73,33.61,709.75c1.68,8.2,5,16.18,4.74,24.69-.37,10.88-7.81,16.23-17.25,19.85-1.78.69-1,3.59.8,2.89,5.65-2.16,11.47-4.65,15.25-9.6s4.61-11.56,4-17.7c-.69-7.17-3.25-13.91-4.66-20.93-1.49-7.4-1.8-25.87,10.72-23.69,1.88.33,2.7-2.56.79-2.89Z"/><path class="cls-2" d="M76.46,690.12c-12-3.45-10.53,17.71-10.3,24,.44,12,8.79,39.8-10.27,42.22-1.89.24-1.92,3.24,0,3,10.21-1.3,15.23-11,15.5-20.55.21-7.33-1.63-14.59-2.09-21.88-.25-3.87-1.91-26.23,6.36-23.85a1.5,1.5,0,0,0,.8-2.89Z"/><path class="cls-2" d="M105.94,695.14c-4-.57-8.54-.9-11.06,2.84-3.24,4.8-2.08,13.76-1.95,19.22.17,7.61,1.56,15,2.11,22.57.59,8.23-1.4,18.44-11,20.23-1.89.36-1.09,3.25.8,2.89,10.81-2,13.84-13.58,13.15-23.12-.51-6.91-1.8-13.7-2.06-20.65-.14-3.84-.11-7.7.08-11.54.09-1.8-.23-4.94.64-6.44l4.67-3.4a19.11,19.11,0,0,1,3.77.29c1.89.27,2.7-2.62.8-2.89Z"/><path class="cls-2" d="M419,667.41c-15-2.62-16.46,17.37-14.41,27.38,1.68,8.21,5,16.18,4.74,24.7-.37,10.88-7.81,16.23-17.25,19.85-1.78.68-1,3.58.8,2.89,5.65-2.16,11.47-4.66,15.25-9.61s4.61-11.56,4-17.7c-.69-7.17-3.25-13.9-4.66-20.92-1.49-7.4-1.8-25.88,10.72-23.69,1.88.32,2.7-2.57.79-2.9Z"/><path class="cls-2" d="M447.46,675.16c-12-3.45-10.53,17.71-10.3,24,.44,12,8.79,39.81-10.27,42.22-1.89.24-1.92,3.25,0,3,10.21-1.29,15.23-11,15.5-20.54.21-7.33-1.63-14.59-2.09-21.88-.25-3.88-1.91-26.23,6.36-23.85a1.51,1.51,0,0,0,.8-2.9Z"/><path class="cls-2" d="M476.94,680.18c-4-.56-8.54-.9-11.06,2.85-3.24,4.8-2.08,13.75-1.95,19.22.17,7.6,1.56,15,2.11,22.57.59,8.23-1.4,18.44-11,20.23-1.89.35-1.09,3.24.8,2.89,10.81-2,13.84-13.59,13.15-23.12-.51-6.91-1.8-13.7-2.06-20.65q-.21-5.77.08-11.55c.09-1.8-.23-4.94.64-6.43l4.67-3.4a18.38,18.38,0,0,1,3.77.29c1.89.26,2.7-2.63.8-2.9Z"/><path class="cls-2" d="M748,662.43c-15-2.63-16.46,17.37-14.41,27.38,1.68,8.21,5,16.18,4.74,24.69-.37,10.88-7.81,16.23-17.25,19.85-1.78.69-1,3.59.8,2.9,5.65-2.17,11.47-4.66,15.25-9.61s4.61-11.56,4-17.7c-.69-7.17-3.25-13.9-4.66-20.93-1.49-7.39-1.8-25.87,10.72-23.69,1.88.33,2.7-2.56.79-2.89Z"/><path class="cls-2" d="M776.46,670.18c-12-3.45-10.53,17.71-10.3,24,.44,12,8.79,39.81-10.27,42.22-1.89.24-1.92,3.24,0,3,10.21-1.29,15.23-11,15.5-20.55.21-7.33-1.63-14.58-2.09-21.87-.25-3.88-1.91-26.24,6.36-23.86a1.5,1.5,0,0,0,.8-2.89Z"/><path class="cls-2" d="M805.94,675.2c-4-.57-8.54-.9-11.06,2.84-3.24,4.8-2.08,13.76-2,19.22.17,7.61,1.56,15,2.11,22.57.59,8.24-1.4,18.45-10.95,20.23-1.89.36-1.09,3.25.8,2.9,10.81-2,13.84-13.59,13.15-23.13-.51-6.91-1.8-13.7-2.06-20.64q-.21-5.78.08-11.55c.09-1.8-.23-4.94.64-6.44l4.67-3.4a19.11,19.11,0,0,1,3.77.29c1.89.27,2.7-2.62.8-2.89Z"/><path class="cls-2" d="M206.72,727.93c22.78-7.15,42.06-22.76,65.6-27.76,1.89-.4,1.09-3.29-.8-2.89-23.56,5-42.82,20.61-65.6,27.76-1.83.58-1,3.47.8,2.89Z"/><path class="cls-2" d="M219.07,745.34A501.29,501.29,0,0,1,300,725.4c1.9-.31,1.09-3.2-.8-2.89a501.81,501.81,0,0,0-80.93,19.94c-1.82.61-1,3.51.8,2.89Z"/><path class="cls-2" d="M238.72,767.46a476.56,476.56,0,0,1,77.6-10.88c1.92-.11,1.93-3.11,0-3a481.72,481.72,0,0,0-78.39,11c-1.89.42-1.09,3.32.79,2.89Z"/><path class="cls-2" d="M562.72,711c22.78-7.14,42.06-22.76,65.6-27.76,1.89-.4,1.09-3.29-.8-2.89-23.56,5-42.82,20.61-65.6,27.76-1.83.58-1,3.48.8,2.89Z"/><path class="cls-2" d="M575.07,728.39A502.34,502.34,0,0,1,656,708.45c1.9-.3,1.09-3.19-.8-2.89a501.81,501.81,0,0,0-80.93,19.94c-1.82.61-1,3.51.8,2.89Z"/><path class="cls-2" d="M594.72,750.51a476.56,476.56,0,0,1,77.6-10.88c1.92-.11,1.93-3.11,0-3a481.72,481.72,0,0,0-78.39,11c-1.89.43-1.09,3.32.79,2.89Z"/><path class="cls-2" d="M901.72,717c22.78-7.15,42.06-22.77,65.6-27.77,1.89-.4,1.09-3.29-.8-2.89-23.56,5-42.82,20.61-65.6,27.76-1.83.58-1,3.48.8,2.9Z"/><path class="cls-2" d="M914.07,734.37A502.34,502.34,0,0,1,995,714.43c1.9-.3,1.09-3.19-.8-2.89a502.86,502.86,0,0,0-80.93,19.94c-1.82.61-1,3.51.8,2.89Z"/><path class="cls-2" d="M933.72,756.5a475.47,475.47,0,0,1,77.6-10.88c1.92-.11,1.93-3.11,0-3a480.61,480.61,0,0,0-78.39,11c-1.89.43-1.09,3.32.79,2.9Z"/><path class="cls-2" d="M1125,654.45c-15-2.62-16.46,17.37-14.41,27.38,1.68,8.21,5,16.18,4.74,24.7-.37,10.88-7.81,16.23-17.25,19.85-1.78.68-1,3.58.8,2.89,5.65-2.16,11.47-4.66,15.25-9.61s4.61-11.56,4-17.7c-.69-7.17-3.25-13.9-4.66-20.92-1.49-7.4-1.8-25.88,10.72-23.69,1.88.32,2.7-2.57.79-2.9Z"/><path class="cls-2" d="M1153.46,662.2c-12-3.45-10.53,17.71-10.3,24,.44,12,8.79,39.8-10.27,42.21-1.89.24-1.92,3.25,0,3,10.21-1.29,15.23-11,15.5-20.54.21-7.33-1.63-14.59-2.09-21.88-.25-3.88-1.91-26.23,6.36-23.85a1.51,1.51,0,0,0,.8-2.9Z"/><path class="cls-2" d="M1182.94,667.22c-4-.56-8.54-.9-11.06,2.85-3.24,4.8-2.08,13.75-2,19.22.17,7.6,1.56,15,2.11,22.57.59,8.23-1.4,18.44-11,20.23-1.89.35-1.09,3.24.8,2.89,10.81-2,13.84-13.59,13.15-23.12-.51-6.91-1.8-13.7-2.06-20.65q-.21-5.78.08-11.55c.09-1.8-.23-4.94.64-6.43l4.67-3.4a18.38,18.38,0,0,1,3.77.29c1.89.26,2.7-2.63.8-2.9Z"/></g></g></svg>