<?xml version="1.0" encoding="utf-8"?>
<!-- Generator: Adobe Illustrator 23.0.1, SVG Export Plug-In . SVG Version: 6.00 Build 0)  -->
<svg version="1.1" id="Layer_1" xmlns="http://www.w3.org/2000/svg" xmlns:xlink="http://www.w3.org/1999/xlink" x="0px" y="0px"
	 viewBox="0 0 1366.5 767.5" style="enable-background:new 0 0 1366.5 767.5;" xml:space="preserve">
<style type="text/css">
	.st0{fill:url(#SVGID_1_);}
	.st1{fill:#FF931E;}
</style>
<title>Asset 5</title>
<g>
	<g id="Layer_1-2">
		
			<linearGradient id="SVGID_1_" gradientUnits="userSpaceOnUse" x1="0" y1="384.25" x2="1366.5" y2="384.25" gradientTransform="matrix(1 0 0 -1 0 768)">
			<stop  offset="0" style="stop-color:#FF6600"/>
			<stop  offset="0.46" style="stop-color:#FC5D00"/>
			<stop  offset="0.58" style="stop-color:#FB5900"/>
			<stop  offset="0.87" style="stop-color:#E06100"/>
			<stop  offset="0.99" style="stop-color:#FF6600"/>
		</linearGradient>
		<rect class="st0" width="1366.5" height="767.5"/>
		<path class="st1" d="M127,216.8c-15-2.6-16.5,17.4-14.4,27.4c1.7,8.2,5,16.2,4.7,24.7c-0.4,10.9-7.8,16.2-17.3,19.9
			c-1.8,0.7-1,3.6,0.8,2.9c5.7-2.2,11.5-4.7,15.3-9.6s4.6-11.6,4-17.7c-0.7-7.2-3.3-13.9-4.7-20.9c-1.5-7.4-1.8-25.9,10.7-23.7
			C128.1,220,128.9,217.1,127,216.8L127,216.8z"/>
		<path class="st1" d="M155.5,224.6c-12-3.4-10.5,17.7-10.3,24c0.4,12,8.8,39.8-10.3,42.2c-1.9,0.2-1.9,3.3,0,3
			c10.2-1.3,15.2-11,15.5-20.5c0.2-7.3-1.6-14.6-2.1-21.9c-0.3-3.9-1.9-26.2,6.4-23.9c0.8,0.2,1.6-0.4,1.8-1.2
			C156.5,225.6,156.1,224.9,155.5,224.6L155.5,224.6z"/>
		<path class="st1" d="M184.9,229.6c-4-0.6-8.5-0.9-11.1,2.9c-3.2,4.8-2.1,13.8-1.9,19.2c0.2,7.6,1.6,15,2.1,22.6
			c0.6,8.2-1.4,18.4-10.9,20.2c-1.9,0.4-1.1,3.3,0.8,2.9c10.8-2,13.8-13.6,13.1-23.1c-0.5-6.9-1.8-13.7-2.1-20.6
			c-0.1-3.8-0.1-7.7,0.1-11.6c0.1-1.8-0.2-4.9,0.6-6.4l4.7-3.4c1.3,0,2.5,0.1,3.8,0.3C186,232.7,186.8,229.9,184.9,229.6
			L184.9,229.6z"/>
		<path class="st1" d="M72.7,70c22.8-7.2,42.1-22.8,65.6-27.8c1.9-0.4,1.1-3.3-0.8-2.9C114,44.3,94.7,60,71.9,67.1
			C70.1,67.7,70.9,70.6,72.7,70z"/>
		<path class="st1" d="M85.1,87.4c26.4-8.9,53.4-15.5,80.9-19.9c1.9-0.3,1.1-3.2-0.8-2.9c-27.5,4.4-54.6,11.1-80.9,19.9
			C82.4,85.1,83.3,88,85.1,87.4z"/>
		<path class="st1" d="M320.7,295.9c25.5-5.8,51.5-9.4,77.6-10.9c1.9-0.1,1.9-3.1,0-3c-26.4,1.5-52.6,5.2-78.4,11
			C318,293.5,318.8,296.4,320.7,295.9L320.7,295.9z"/>
		<path class="st1" d="M152,372.3c-15.1-2.6-16.5,17.4-14.4,27.4c1.7,8.2,5,16.2,4.7,24.7c-0.4,10.9-7.8,16.2-17.3,19.9
			c-1.8,0.7-1,3.6,0.8,2.9c5.6-2.2,11.5-4.7,15.3-9.6s4.6-11.6,4-17.7c-0.7-7.2-3.3-13.9-4.7-20.9c-1.5-7.4-1.8-25.9,10.7-23.7
			C153.1,375.6,153.9,372.7,152,372.3L152,372.3z"/>
		<path class="st1" d="M180.5,380.1c-12-3.5-10.5,17.7-10.3,24c0.4,12,8.8,39.8-10.3,42.2c-1.9,0.2-1.9,3.2,0,3
			c10.2-1.3,15.2-11,15.5-20.5c0.2-7.3-1.6-14.6-2.1-21.9c-0.3-3.9-1.9-26.2,6.4-23.9c0.8,0.2,1.6-0.3,1.8-1.1
			C181.7,381.1,181.2,380.3,180.5,380.1L180.5,380.1z"/>
		<path class="st1" d="M209.9,385.1c-4-0.6-8.5-0.9-11.1,2.8c-3.2,4.8-2.1,13.8-1.9,19.2c0.2,7.6,1.6,15,2.1,22.6
			c0.6,8.2-1.4,18.4-10.9,20.2c-1.9,0.4-1.1,3.3,0.8,2.9c10.8-2,13.8-13.6,13.1-23.1c-0.5-6.9-1.8-13.7-2.1-20.6
			c-0.1-3.8-0.1-7.7,0.1-11.5c0.1-1.8-0.2-4.9,0.6-6.4l4.7-3.4c1.3,0,2.5,0.1,3.8,0.3C211,388.3,211.8,385.4,209.9,385.1
			L209.9,385.1z"/>
		<path class="st1" d="M100.7,571.4c22.8-7.2,42.1-22.8,65.6-27.8c1.9-0.4,1.1-3.3-0.8-2.9c-23.6,5-42.8,20.6-65.6,27.8
			C98.1,569.1,98.9,572,100.7,571.4z"/>
		<path class="st1" d="M113.1,588.8c26.4-8.9,53.4-15.6,80.9-20c1.9-0.3,1.1-3.2-0.8-2.9c-27.5,4.4-54.6,11.1-80.9,19.9
			C110.4,586.5,111.3,589.4,113.1,588.8L113.1,588.8z"/>
		<path class="st1" d="M123.7,606c25.5-5.8,51.5-9.4,77.6-10.9c1.9-0.1,1.9-3.1,0-3c-26.4,1.5-52.6,5.2-78.4,11
			C121,603.5,121.8,606.4,123.7,606L123.7,606z"/>
		<path class="st1" d="M498,201.9c-15-2.6-16.5,17.4-14.4,27.4c1.7,8.2,5,16.2,4.7,24.7c-0.4,10.9-7.8,16.2-17.3,19.9
			c-1.8,0.7-1,3.6,0.8,2.9c5.6-2.2,11.5-4.7,15.3-9.6s4.6-11.6,4-17.7c-0.7-7.2-3.3-13.9-4.7-20.9c-1.5-7.4-1.8-25.9,10.7-23.7
			C499.1,205.1,499.9,202.2,498,201.9L498,201.9z"/>
		<path class="st1" d="M526.5,209.6c-12-3.4-10.5,17.7-10.3,23.9c0.4,12,8.8,39.8-10.3,42.2c-1.9,0.2-1.9,3.2,0,3
			c10.2-1.3,15.2-11,15.5-20.5c0.2-7.3-1.6-14.6-2.1-21.9c-0.3-3.9-1.9-26.2,6.4-23.9c0.8,0.2,1.6-0.3,1.8-1.1
			C527.7,210.6,527.2,209.8,526.5,209.6L526.5,209.6z"/>
		<path class="st1" d="M555.9,214.6c-4-0.6-8.5-0.9-11.1,2.8c-3.2,4.8-2.1,13.8-2,19.2c0.2,7.6,1.6,15,2.1,22.6
			c0.6,8.2-1.4,18.4-11,20.2c-1.9,0.4-1.1,3.3,0.8,2.9c10.8-2,13.8-13.6,13.2-23.1c-0.5-6.9-1.8-13.7-2.1-20.6
			c-0.1-3.8-0.1-7.7,0.1-11.6c0.1-1.8-0.2-4.9,0.6-6.4l4.7-3.4c1.3,0,2.5,0.1,3.8,0.3C557,217.8,557.8,214.9,555.9,214.6
			L555.9,214.6z"/>
		<path class="st1" d="M443.7,55c22.8-7.1,42.1-22.8,65.6-27.8c1.9-0.4,1.1-3.3-0.8-2.9c-23.5,5-42.8,20.6-65.6,27.8
			C441.1,52.7,441.9,55.6,443.7,55L443.7,55z"/>
		<path class="st1" d="M456.1,72.4c26.4-8.9,53.4-15.5,80.9-19.9c1.9-0.3,1.1-3.2-0.8-2.9c-27.5,4.4-54.6,11.1-80.9,19.9
			C453.5,70.2,454.3,73.1,456.1,72.4z"/>
		<path class="st1" d="M475.7,94.6c25.5-5.8,51.5-9.4,77.6-10.9c1.9-0.1,1.9-3.1,0-3c-26.4,1.5-52.6,5.2-78.4,11
			C473,92.1,473.8,95,475.7,94.6L475.7,94.6z"/>
		<path class="st1" d="M523,357.4c-15-2.6-16.5,17.4-14.4,27.4c1.7,8.2,5,16.2,4.7,24.7c-0.4,10.9-7.8,16.2-17.3,19.9
			c-1.8,0.7-1,3.6,0.8,2.9c5.6-2.2,11.5-4.6,15.3-9.6c3.8-5,4.6-11.6,4-17.7c-0.7-7.2-3.3-13.9-4.7-20.9
			c-1.5-7.4-1.8-25.9,10.7-23.7C524.1,360.6,524.9,357.7,523,357.4L523,357.4z"/>
		<path class="st1" d="M551.5,365.1c-12-3.5-10.5,17.7-10.3,24c0.4,12,8.8,39.8-10.3,42.2c-1.9,0.2-1.9,3.2,0,3
			c10.2-1.3,15.2-11,15.5-20.5c0.2-7.3-1.6-14.6-2.1-21.9c-0.3-3.9-1.9-26.2,6.4-23.9c0.8,0.2,1.6-0.3,1.8-1.1
			C552.7,366.1,552.2,365.4,551.5,365.1L551.5,365.1z"/>
		<path class="st1" d="M580.9,370.1c-4-0.6-8.5-0.9-11.1,2.8c-3.2,4.8-2.1,13.8-2,19.2c0.2,7.6,1.6,15,2.1,22.6
			c0.6,8.2-1.4,18.4-11,20.2c-1.9,0.4-1.1,3.3,0.8,2.9c10.8-2,13.8-13.6,13.2-23.1c-0.5-6.9-1.8-13.7-2.1-20.6
			c-0.1-3.8-0.1-7.7,0.1-11.5c0.1-1.8-0.2-4.9,0.6-6.4l4.7-3.4c1.3,0,2.5,0.1,3.8,0.3C582,373.3,582.8,370.4,580.9,370.1
			L580.9,370.1z"/>
		<path class="st1" d="M471.7,556.5c22.8-7.1,42.1-22.8,65.6-27.8c1.9-0.4,1.1-3.3-0.8-2.9c-23.6,5-42.8,20.6-65.6,27.8
			C469.1,554.2,469.9,557,471.7,556.5z"/>
		<path class="st1" d="M484.1,573.9c26.4-8.9,53.4-15.5,80.9-19.9c1.9-0.3,1.1-3.2-0.8-2.9c-27.5,4.4-54.6,11.1-80.9,20
			C481.4,571.6,482.3,574.5,484.1,573.9L484.1,573.9z"/>
		<path class="st1" d="M515.7,609c25.5-5.8,51.5-9.4,77.6-10.9c1.9-0.1,1.9-3.1,0-3c-26.4,1.5-52.6,5.2-78.4,11
			C513,606.5,513.8,609.4,515.7,609L515.7,609z"/>
		<path class="st1" d="M827,196.9c-15-2.6-16.5,17.4-14.4,27.4c1.7,8.2,5,16.2,4.7,24.7c-0.4,10.9-7.8,16.2-17.3,19.8
			c-1.8,0.7-1,3.6,0.8,2.9c5.7-2.2,11.5-4.7,15.3-9.6s4.6-11.6,4-17.7c-0.7-7.2-3.3-13.9-4.7-20.9c-1.5-7.4-1.8-25.9,10.7-23.7
			C828.1,200.1,828.9,197.2,827,196.9L827,196.9z"/>
		<path class="st1" d="M855.5,204.6c-12-3.4-10.5,17.7-10.3,24c0.4,12,8.8,39.8-10.3,42.2c-1.9,0.2-1.9,3.2,0,3
			c10.2-1.3,15.2-11,15.5-20.6c0.2-7.3-1.6-14.6-2.1-21.9c-0.3-3.9-1.9-26.2,6.4-23.9c0.8,0.2,1.6-0.3,1.8-1.1
			C856.7,205.7,856.2,204.9,855.5,204.6L855.5,204.6z"/>
		<path class="st1" d="M884.9,209.6c-4-0.6-8.5-0.9-11.1,2.9c-3.2,4.8-2.1,13.8-2,19.2c0.2,7.6,1.6,15,2.1,22.6
			c0.6,8.2-1.4,18.4-11,20.2c-1.9,0.4-1.1,3.3,0.8,2.9c10.8-2,13.8-13.6,13.2-23.1c-0.5-6.9-1.8-13.7-2.1-20.6
			c-0.1-3.8-0.1-7.7,0.1-11.5c0.1-1.8-0.2-4.9,0.6-6.4l4.7-3.4c1.3,0,2.5,0.1,3.8,0.3C886,212.8,886.8,209.9,884.9,209.6
			L884.9,209.6z"/>
		<path class="st1" d="M772.7,50c22.8-7.2,42.1-22.8,65.6-27.8c1.9-0.4,1.1-3.3-0.8-2.9c-23.5,5-42.8,20.7-65.6,27.8
			C770.1,47.7,770.9,50.6,772.7,50L772.7,50z"/>
		<path class="st1" d="M785.1,67.4c26.4-8.9,53.4-15.6,80.9-19.9c1.9-0.3,1.1-3.2-0.8-2.9c-27.5,4.4-54.6,11.1-80.9,19.9
			C782.5,65.2,783.3,68.1,785.1,67.4z"/>
		<path class="st1" d="M804.7,89.6c25.5-5.8,51.5-9.4,77.6-10.9c1.9-0.1,1.9-3.1,0-3c-26.4,1.5-52.6,5.2-78.4,11
			C802,87.1,802.8,90,804.7,89.6L804.7,89.6z"/>
		<path class="st1" d="M852,352.4c-15-2.6-16.5,17.4-14.4,27.4c1.7,8.2,5,16.2,4.7,24.7c-0.4,10.9-7.8,16.2-17.3,19.9
			c-1.8,0.7-1,3.6,0.8,2.9c5.7-2.2,11.5-4.7,15.3-9.6s4.6-11.6,4-17.7c-0.7-7.2-3.3-13.9-4.7-20.9c-1.5-7.4-1.8-25.9,10.7-23.7
			C853.1,355.6,853.9,352.7,852,352.4L852,352.4z"/>
		<path class="st1" d="M880.5,360.1c-12-3.5-10.5,17.7-10.3,24c0.4,12,8.8,39.8-10.3,42.2c-1.9,0.2-1.9,3.3,0,3
			c10.2-1.3,15.2-11,15.5-20.5c0.2-7.3-1.6-14.6-2.1-21.9c-0.3-3.9-1.9-26.2,6.4-23.9c0.8,0.2,1.6-0.4,1.8-1.2
			C881.5,361.1,881.1,360.4,880.5,360.1L880.5,360.1z"/>
		<path class="st1" d="M909.9,365.2c-4-0.6-8.5-0.9-11.1,2.8c-3.2,4.8-2.1,13.8-2,19.2c0.2,7.6,1.6,15,2.1,22.6
			c0.6,8.2-1.4,18.4-11,20.2c-1.9,0.4-1.1,3.2,0.8,2.9c10.8-2,13.8-13.6,13.2-23.1c-0.5-6.9-1.8-13.7-2.1-20.6
			c-0.1-3.8-0.1-7.7,0.1-11.5c0.1-1.8-0.2-4.9,0.6-6.4l4.7-3.4c1.3,0,2.5,0.1,3.8,0.3C911,368.3,911.8,365.4,909.9,365.2
			L909.9,365.2z"/>
		<path class="st1" d="M800.7,551.5c22.8-7.2,42.1-22.8,65.6-27.8c1.9-0.4,1.1-3.3-0.8-2.9c-23.6,5-42.8,20.6-65.6,27.8
			C798.1,549.2,798.9,552.1,800.7,551.5z"/>
		<path class="st1" d="M813.1,568.9c26.4-8.9,53.4-15.5,80.9-19.9c1.9-0.3,1.1-3.2-0.8-2.9c-27.5,4.4-54.6,11.1-80.9,20
			C810.5,566.7,811.3,569.6,813.1,568.9L813.1,568.9z"/>
		<path class="st1" d="M844.7,604c25.5-5.8,51.5-9.4,77.6-10.9c1.9-0.1,1.9-3.1,0-3c-26.4,1.5-52.6,5.2-78.4,11
			C842,601.5,842.8,604.4,844.7,604L844.7,604z"/>
		<path class="st1" d="M285.7,262.4c22.8-7.1,42.1-22.8,65.6-27.8c1.9-0.4,1.1-3.3-0.8-2.9c-23.6,5-42.8,20.6-65.6,27.8
			C283.1,260.1,283.9,263,285.7,262.4L285.7,262.4z"/>
		<path class="st1" d="M298.1,279.8c26.4-8.9,53.4-15.6,80.9-20c1.9-0.3,1.1-3.2-0.8-2.9c-27.5,4.4-54.6,11.1-80.9,19.9
			C295.5,277.5,296.3,280.4,298.1,279.8L298.1,279.8z"/>
		<path class="st1" d="M93.7,109.5c25.5-5.8,51.5-9.4,77.6-10.9c1.9-0.1,1.9-3.1,0-3c-26.4,1.5-52.6,5.2-78.4,11
			C91,107.1,91.8,110,93.7,109.5L93.7,109.5z"/>
		<path class="st1" d="M291,40.4c-15-2.6-16.5,17.4-14.4,27.4c1.7,8.2,5,16.2,4.7,24.7c-0.4,10.9-7.8,16.2-17.3,19.8
			c-1.8,0.7-1,3.6,0.8,2.9c5.6-2.2,11.5-4.7,15.3-9.6s4.6-11.6,4-17.7c-0.7-7.2-3.3-13.9-4.7-20.9c-1.5-7.4-1.8-25.9,10.7-23.7
			C292.1,43.6,292.9,40.7,291,40.4L291,40.4z"/>
		<path class="st1" d="M319.5,48.1c-12-3.5-10.5,17.7-10.3,24c0.4,12,8.8,39.8-10.3,42.2c-1.9,0.2-1.9,3.3,0,3
			c10.2-1.3,15.2-11,15.5-20.6c0.2-7.3-1.6-14.6-2.1-21.9c-0.3-3.9-1.9-26.2,6.4-23.8c0.8,0.2,1.6-0.4,1.8-1.2
			C320.5,49.1,320.1,48.4,319.5,48.1L319.5,48.1z"/>
		<path class="st1" d="M348.9,53.1c-4-0.6-8.5-0.9-11.1,2.8c-3.2,4.8-2.1,13.8-2,19.2c0.2,7.6,1.6,15,2.1,22.6
			c0.6,8.2-1.4,18.4-11,20.2c-1.9,0.3-1.1,3.2,0.8,2.9c10.8-2,13.8-13.6,13.1-23.1c-0.5-6.9-1.8-13.7-2.1-20.7
			c-0.1-3.9-0.1-7.7,0.1-11.6c0.1-1.8-0.2-4.9,0.6-6.4l4.7-3.4c1.3,0,2.5,0.1,3.8,0.3C350,56.3,350.8,53.4,348.9,53.1L348.9,53.1z"
			/>
		<path class="st1" d="M310.7,417.9c22.8-7.1,42.1-22.8,65.6-27.8c1.9-0.4,1.1-3.3-0.8-2.9c-23.6,5-42.8,20.6-65.6,27.8
			C308.1,415.6,308.9,418.5,310.7,417.9z"/>
		<path class="st1" d="M323.1,435.3c26.4-8.9,53.4-15.5,80.9-19.9c1.9-0.3,1.1-3.2-0.8-2.9c-27.5,4.4-54.6,11.1-80.9,19.9
			C320.5,433,321.3,435.9,323.1,435.3z"/>
		<path class="st1" d="M342.7,457.4c25.5-5.8,51.5-9.4,77.6-10.9c1.9-0.1,1.9-3.1,0-3c-26.4,1.5-52.6,5.2-78.4,11
			C340,455,340.8,457.9,342.7,457.4L342.7,457.4z"/>
		<path class="st1" d="M322,516.9c-15-2.6-16.5,17.4-14.4,27.4c1.7,8.2,5,16.2,4.7,24.7c-0.4,10.9-7.8,16.2-17.3,19.8
			c-1.8,0.7-1,3.6,0.8,2.9c5.6-2.2,11.5-4.7,15.3-9.6s4.6-11.6,4-17.7c-0.7-7.2-3.3-13.9-4.7-20.9c-1.5-7.4-1.8-25.9,10.7-23.7
			C323.1,520.1,323.9,517.2,322,516.9L322,516.9z"/>
		<path class="st1" d="M350.5,524.6c-12-3.5-10.5,17.7-10.3,24c0.4,12,8.8,39.8-10.3,42.2c-1.9,0.2-1.9,3.2,0,3
			c10.2-1.3,15.2-11,15.5-20.5c0.2-7.3-1.6-14.6-2.1-21.9c-0.3-3.9-1.9-26.2,6.4-23.9c0.8,0.2,1.6-0.3,1.8-1.1
			C351.7,525.7,351.2,524.9,350.5,524.6L350.5,524.6z"/>
		<path class="st1" d="M379.9,529.7c-4-0.6-8.5-0.9-11.1,2.8c-3.2,4.8-2.1,13.8-2,19.2c0.2,7.6,1.6,15,2.1,22.6
			c0.6,8.2-1.4,18.4-11,20.2c-1.9,0.3-1.1,3.2,0.8,2.9c10.8-2,13.8-13.6,13.1-23.1c-0.5-6.9-1.8-13.7-2.1-20.7
			c-0.1-3.8-0.1-7.7,0.1-11.5c0.1-1.8-0.2-4.9,0.6-6.4l4.7-3.4c1.3,0,2.5,0.1,3.8,0.3C381,532.8,381.8,529.9,379.9,529.7
			L379.9,529.7z"/>
		<path class="st1" d="M641.7,245.4c22.8-7.1,42.1-22.8,65.6-27.8c1.9-0.4,1.1-3.3-0.8-2.9c-23.6,5-42.8,20.6-65.6,27.8
			C639.1,243.1,639.9,246,641.7,245.4z"/>
		<path class="st1" d="M654.1,262.8c26.4-8.9,53.4-15.6,80.9-19.9c1.9-0.3,1.1-3.2-0.8-2.9c-27.5,4.4-54.6,11.1-80.9,20
			C651.5,260.6,652.3,263.5,654.1,262.8L654.1,262.8z"/>
		<path class="st1" d="M673.7,285c25.5-5.8,51.5-9.4,77.6-10.9c1.9-0.1,1.9-3.1,0-3c-26.4,1.5-52.6,5.2-78.4,11
			C671,282.5,671.8,285.4,673.7,285L673.7,285z"/>
		<path class="st1" d="M647,23.4c-15-2.6-16.5,17.4-14.4,27.4c1.7,8.2,5,16.2,4.7,24.7c-0.4,10.9-7.8,16.2-17.3,19.8
			c-1.8,0.7-1,3.6,0.8,2.9c5.7-2.2,11.5-4.7,15.3-9.6s4.6-11.6,4-17.7c-0.7-7.2-3.3-13.9-4.7-20.9c-1.5-7.4-1.8-25.9,10.7-23.7
			C648.1,26.6,648.9,23.7,647,23.4L647,23.4z"/>
		<path class="st1" d="M675.5,31.2c-12-3.5-10.5,17.7-10.3,24c0.4,12,8.8,39.8-10.3,42.2c-1.9,0.2-1.9,3.2,0,3
			c10.2-1.3,15.2-11,15.5-20.5c0.2-7.3-1.6-14.6-2.1-21.9c-0.3-3.9-1.9-26.2,6.4-23.8c0.8,0.2,1.6-0.3,1.8-1.1
			C676.7,32.2,676.2,31.4,675.5,31.2L675.5,31.2z"/>
		<path class="st1" d="M704.9,36.2c-4-0.6-8.5-0.9-11.1,2.8c-3.2,4.8-2.1,13.8-2,19.2c0.2,7.6,1.6,15,2.1,22.6
			c0.6,8.2-1.4,18.4-11,20.2c-1.9,0.3-1.1,3.3,0.8,2.9c10.8-2,13.8-13.6,13.2-23.1c-0.5-6.9-1.8-13.7-2.1-20.7
			c-0.1-3.9-0.1-7.7,0.1-11.5c0.1-1.8-0.2-5,0.6-6.4l4.7-3.4c1.3,0,2.5,0.1,3.8,0.3C706,39.3,706.8,36.4,704.9,36.2L704.9,36.2z"/>
		<path class="st1" d="M666.7,401c22.8-7.1,42.1-22.8,65.6-27.8c1.9-0.4,1.1-3.3-0.8-2.9c-23.6,5-42.8,20.6-65.6,27.8
			C664.1,398.7,664.9,401.6,666.7,401z"/>
		<path class="st1" d="M679.1,418.4c26.4-8.9,53.4-15.6,80.9-19.9c1.9-0.3,1.1-3.2-0.8-2.9c-27.5,4.4-54.6,11.1-80.9,19.9
			C676.5,416.1,677.3,419,679.1,418.4z"/>
		<path class="st1" d="M698.7,440.5c25.5-5.8,51.5-9.4,77.6-10.9c1.9-0.1,1.9-3.1,0-3c-26.4,1.5-52.6,5.2-78.4,11
			C696,438,696.8,440.9,698.7,440.5L698.7,440.5z"/>
		<path class="st1" d="M678,499.9c-15-2.6-16.5,17.4-14.4,27.4c1.7,8.2,5,16.2,4.7,24.7c-0.4,10.9-7.8,16.2-17.3,19.8
			c-1.8,0.7-1,3.6,0.8,2.9c5.7-2.2,11.5-4.7,15.3-9.6s4.6-11.6,4-17.7c-0.7-7.2-3.3-13.9-4.7-20.9c-1.5-7.4-1.8-25.9,10.7-23.7
			C679.1,503.2,679.9,500.3,678,499.9L678,499.9z"/>
		<path class="st1" d="M706.5,507.7c-12-3.5-10.5,17.7-10.3,24c0.4,12,8.8,39.8-10.3,42.2c-1.9,0.2-1.9,3.3,0,3
			c10.2-1.3,15.2-11,15.5-20.5c0.2-7.3-1.6-14.6-2.1-21.9c-0.3-3.9-1.9-26.2,6.4-23.9c0.8,0.2,1.6-0.4,1.8-1.2
			C707.5,508.7,707.1,508,706.5,507.7L706.5,507.7z"/>
		<path class="st1" d="M735.9,512.7c-4-0.6-8.5-0.9-11.1,2.8c-3.2,4.8-2.1,13.8-2,19.2c0.2,7.6,1.6,15,2.1,22.6
			c0.6,8.2-1.4,18.4-11,20.2c-1.9,0.3-1.1,3.3,0.8,2.9c10.8-2,13.8-13.6,13.2-23.1c-0.5-6.9-1.8-13.7-2.1-20.7
			c-0.1-3.9-0.1-7.7,0.1-11.5c0.1-1.8-0.2-4.9,0.6-6.4l4.7-3.4c1.3,0,2.5,0.1,3.8,0.3C737,515.9,737.8,513,735.9,512.7L735.9,512.7z
			"/>
		<path class="st1" d="M980.7,251.4c22.8-7.1,42.1-22.8,65.6-27.8c1.9-0.4,1.1-3.3-0.8-2.9c-23.6,5-42.8,20.6-65.6,27.8
			C978.1,249.1,978.9,252,980.7,251.4L980.7,251.4z"/>
		<path class="st1" d="M993.1,268.8c26.4-8.9,53.4-15.6,80.9-19.9c1.9-0.3,1.1-3.2-0.8-2.9c-27.5,4.4-54.6,11.1-80.9,19.9
			C990.4,266.5,991.3,269.4,993.1,268.8L993.1,268.8z"/>
		<path class="st1" d="M1012.7,290.9c25.5-5.8,51.5-9.4,77.6-10.9c1.9-0.1,1.9-3.1,0-3c-26.4,1.5-52.6,5.2-78.4,11
			C1010,288.5,1010.8,291.4,1012.7,290.9L1012.7,290.9z"/>
		<path class="st1" d="M986,29.4c-15-2.6-16.5,17.4-14.4,27.4c1.7,8.2,5,16.2,4.7,24.7c-0.4,10.9-7.8,16.2-17.3,19.8
			c-1.8,0.7-1,3.6,0.8,2.9c5.7-2.2,11.5-4.7,15.3-9.6s4.6-11.6,4-17.7c-0.7-7.2-3.3-13.9-4.7-20.9c-1.5-7.4-1.8-25.9,10.7-23.7
			C987.1,32.6,987.9,29.7,986,29.4L986,29.4z"/>
		<path class="st1" d="M1014.5,37.2c-12-3.5-10.5,17.7-10.3,24c0.4,12,8.8,39.8-10.3,42.2c-1.9,0.2-1.9,3.2,0,3
			c10.2-1.3,15.2-11,15.5-20.5c0.2-7.3-1.6-14.6-2.1-21.9c-0.3-3.9-1.9-26.2,6.4-23.8c0.8,0.2,1.6-0.3,1.8-1.1
			C1015.7,38.2,1015.2,37.4,1014.5,37.2L1014.5,37.2z"/>
		<path class="st1" d="M1043.9,42.2c-4-0.6-8.5-0.9-11.1,2.8c-3.2,4.8-2.1,13.8-2,19.2c0.2,7.6,1.6,15,2.1,22.6
			c0.6,8.2-1.4,18.4-11,20.2c-1.9,0.4-1.1,3.3,0.8,2.9c10.8-2,13.8-13.6,13.2-23.1c-0.5-6.9-1.8-13.7-2.1-20.7
			c-0.1-3.8-0.1-7.7,0.1-11.5c0.1-1.8-0.2-4.9,0.6-6.4l4.7-3.4c1.3,0,2.5,0.1,3.8,0.3C1045,45.3,1045.8,42.4,1043.9,42.2
			L1043.9,42.2z"/>
		<path class="st1" d="M1005.7,406.9c22.8-7.1,42.1-22.8,65.6-27.8c1.9-0.4,1.1-3.3-0.8-2.9c-23.6,5-42.8,20.6-65.6,27.8
			C1003.1,404.6,1003.9,407.5,1005.7,406.9L1005.7,406.9z"/>
		<path class="st1" d="M1018.1,424.3c26.4-8.9,53.4-15.6,80.9-19.9c1.9-0.3,1.1-3.2-0.8-2.9c-27.5,4.4-54.6,11.1-80.9,19.9
			C1015.4,422.1,1016.3,425,1018.1,424.3L1018.1,424.3z"/>
		<path class="st1" d="M1037.7,446.5c25.5-5.8,51.5-9.4,77.6-10.9c1.9-0.1,1.9-3.1,0-3c-26.4,1.5-52.6,5.2-78.4,11
			C1035,444,1035.8,446.9,1037.7,446.5L1037.7,446.5z"/>
		<path class="st1" d="M1017,505.9c-15-2.6-16.5,17.4-14.4,27.4c1.7,8.2,5,16.2,4.7,24.7c-0.4,10.9-7.8,16.2-17.3,19.8
			c-1.8,0.7-1,3.6,0.8,2.9c5.7-2.2,11.5-4.7,15.3-9.6s4.6-11.6,4-17.7c-0.7-7.2-3.3-13.9-4.7-20.9c-1.5-7.4-1.8-25.9,10.7-23.7
			C1018.1,509.1,1018.9,506.3,1017,505.9L1017,505.9z"/>
		<path class="st1" d="M1045.5,513.7c-12-3.5-10.5,17.7-10.3,24c0.4,12,8.8,39.8-10.3,42.2c-1.9,0.2-1.9,3.2,0,3
			c10.2-1.3,15.2-11,15.5-20.5c0.2-7.3-1.6-14.6-2.1-21.9c-0.3-3.9-1.9-26.2,6.4-23.8c0.8,0.2,1.6-0.3,1.8-1.1
			C1046.7,514.7,1046.2,514,1045.5,513.7L1045.5,513.7z"/>
		<path class="st1" d="M1074.9,518.7c-4-0.6-8.5-0.9-11.1,2.8c-3.2,4.8-2.1,13.8-2,19.2c0.2,7.6,1.6,15,2.1,22.6
			c0.6,8.2-1.4,18.4-11,20.2c-1.9,0.3-1.1,3.3,0.8,2.9c10.8-2,13.8-13.6,13.2-23.1c-0.5-6.9-1.8-13.7-2.1-20.7
			c-0.1-3.8-0.1-7.7,0.1-11.5c0.1-1.8-0.2-4.9,0.6-6.4l4.7-3.4c1.3,0,2.5,0.1,3.8,0.3C1075.9,521.8,1076.7,518.9,1074.9,518.7
			L1074.9,518.7z"/>
		<path class="st1" d="M1206,166c-15-2.6-16.5,17.4-14.4,27.4c1.7,8.2,5,16.2,4.7,24.7c-0.4,10.9-7.8,16.2-17.3,19.9
			c-1.8,0.7-1,3.6,0.8,2.9c5.7-2.2,11.5-4.7,15.3-9.6s4.6-11.6,4-17.7c-0.7-7.2-3.3-13.9-4.7-20.9c-1.5-7.4-1.8-25.9,10.7-23.7
			C1207.1,169.2,1207.9,166.3,1206,166L1206,166z"/>
		<path class="st1" d="M1234.5,173.7c-12-3.4-10.5,17.7-10.3,23.9c0.4,12,8.8,39.8-10.3,42.2c-1.9,0.2-1.9,3.3,0,3
			c10.2-1.3,15.2-11,15.5-20.6c0.2-7.3-1.6-14.6-2.1-21.9c-0.3-3.9-1.9-26.2,6.4-23.9c0.8,0.2,1.6-0.4,1.8-1.2
			C1235.5,174.7,1235.1,174,1234.5,173.7z"/>
		<path class="st1" d="M1263.9,178.7c-4-0.6-8.5-0.9-11.1,2.8c-3.2,4.8-2.1,13.8-2,19.2c0.2,7.6,1.6,15,2.1,22.6
			c0.6,8.2-1.4,18.4-11,20.2c-1.9,0.4-1.1,3.2,0.8,2.9c10.8-2,13.8-13.6,13.2-23.1c-0.5-6.9-1.8-13.7-2.1-20.6
			c-0.1-3.9-0.1-7.7,0.1-11.6c0.1-1.8-0.2-4.9,0.6-6.4l4.7-3.4c1.3,0,2.5,0.1,3.8,0.3C1264.9,181.9,1265.7,179,1263.9,178.7
			L1263.9,178.7z"/>
		<path class="st1" d="M1149.7,42.1c22.8-7.1,42.1-22.8,65.6-27.8c1.9-0.4,1.1-3.3-0.8-2.9c-23.6,5-42.8,20.6-65.6,27.8
			C1147.1,39.8,1147.9,42.6,1149.7,42.1z"/>
		<path class="st1" d="M1162.1,59.5c26.4-8.9,53.4-15.5,80.9-19.9c1.9-0.3,1.1-3.2-0.8-2.9c-27.5,4.4-54.6,11.1-80.9,19.9
			C1159.4,57.2,1160.3,60.1,1162.1,59.5z"/>
		<path class="st1" d="M1181.7,81.6c25.5-5.8,51.5-9.4,77.6-10.9c1.9-0.1,1.9-3.1,0-3c-26.4,1.5-52.6,5.2-78.4,11
			C1179,79.1,1179.8,82,1181.7,81.6L1181.7,81.6z"/>
		<path class="st1" d="M1217,362.4c-15-2.6-16.5,17.4-14.4,27.4c1.7,8.2,5,16.2,4.7,24.7c-0.4,10.9-7.8,16.2-17.3,19.9
			c-1.8,0.7-1,3.6,0.8,2.9c5.7-2.2,11.5-4.7,15.3-9.6s4.6-11.6,4-17.7c-0.7-7.2-3.3-13.9-4.7-20.9c-1.5-7.4-1.8-25.9,10.7-23.7
			C1218.1,365.6,1218.9,362.7,1217,362.4L1217,362.4z"/>
		<path class="st1" d="M1245.5,370.1c-12-3.5-10.5,17.7-10.3,24c0.4,12,8.8,39.8-10.3,42.2c-1.9,0.2-1.9,3.2,0,3
			c10.2-1.3,15.2-11,15.5-20.5c0.2-7.3-1.6-14.6-2.1-21.9c-0.3-3.9-1.9-26.2,6.4-23.9c0.8,0.2,1.6-0.3,1.8-1.1
			C1246.7,371.1,1246.2,370.3,1245.5,370.1z"/>
		<path class="st1" d="M1274.9,375.1c-4-0.6-8.5-0.9-11.1,2.8c-3.2,4.8-2.1,13.8-2,19.2c0.2,7.6,1.6,15,2.1,22.6
			c0.6,8.2-1.4,18.4-11,20.2c-1.9,0.4-1.1,3.2,0.8,2.9c10.8-2,13.8-13.6,13.2-23.1c-0.5-6.9-1.8-13.7-2.1-20.6
			c-0.1-3.9-0.1-7.7,0.1-11.5c0.1-1.8-0.2-4.9,0.6-6.4l4.7-3.4c1.3,0,2.5,0.1,3.8,0.3C1275.9,378.3,1276.7,375.4,1274.9,375.1
			L1274.9,375.1z"/>
		<path class="st1" d="M1167.7,553.5c22.8-7.1,42.1-22.8,65.6-27.8c1.9-0.4,1.1-3.3-0.8-2.9c-23.6,5-42.8,20.6-65.6,27.8
			C1165.1,551.2,1165.9,554,1167.7,553.5z"/>
		<path class="st1" d="M1180.1,570.9c26.4-8.9,53.4-15.5,80.9-19.9c1.9-0.3,1.1-3.2-0.8-2.9c-27.5,4.4-54.6,11.1-80.9,20
			C1177.5,568.6,1178.3,571.5,1180.1,570.9L1180.1,570.9z"/>
		<path class="st1" d="M1199.7,593c25.5-5.8,51.5-9.4,77.6-10.9c1.9-0.1,1.9-3.1,0-3c-26.4,1.5-52.6,5.2-78.4,11
			C1197,590.5,1197.8,593.4,1199.7,593L1199.7,593z"/>
		<path class="st1" d="M48,682.4c-15-2.6-16.4,17.4-14.4,27.4c1.7,8.2,5,16.2,4.7,24.7c-0.4,10.9-7.8,16.2-17.3,19.8
			c-1.8,0.7-1,3.6,0.8,2.9c5.6-2.2,11.5-4.7,15.3-9.6s4.6-11.6,4-17.7c-0.7-7.2-3.3-13.9-4.7-20.9c-1.5-7.4-1.8-25.9,10.7-23.7
			C49.1,685.6,49.9,682.7,48,682.4z"/>
		<path class="st1" d="M76.5,690.1c-12-3.5-10.5,17.7-10.3,24c0.4,12,8.8,39.8-10.3,42.2c-1.9,0.2-1.9,3.2,0,3
			c10.2-1.3,15.2-11,15.5-20.5c0.2-7.3-1.6-14.6-2.1-21.9c-0.3-3.9-1.9-26.2,6.4-23.8c0.8,0.2,1.6-0.3,1.8-1.1
			C77.7,691.2,77.2,690.4,76.5,690.1L76.5,690.1z"/>
		<path class="st1" d="M105.9,695.1c-4-0.6-8.5-0.9-11.1,2.8c-3.2,4.8-2.1,13.8-1.9,19.2c0.2,7.6,1.6,15,2.1,22.6
			c0.6,8.2-1.4,18.4-11,20.2c-1.9,0.4-1.1,3.3,0.8,2.9c10.8-2,13.8-13.6,13.2-23.1c-0.5-6.9-1.8-13.7-2.1-20.7
			c-0.1-3.8-0.1-7.7,0.1-11.5c0.1-1.8-0.2-4.9,0.6-6.4l4.7-3.4c1.3,0,2.5,0.1,3.8,0.3C107,698.3,107.8,695.4,105.9,695.1
			L105.9,695.1z"/>
		<path class="st1" d="M419,667.4c-15-2.6-16.5,17.4-14.4,27.4c1.7,8.2,5,16.2,4.7,24.7c-0.4,10.9-7.8,16.2-17.3,19.8
			c-1.8,0.7-1,3.6,0.8,2.9c5.6-2.2,11.5-4.7,15.3-9.6s4.6-11.6,4-17.7c-0.7-7.2-3.3-13.9-4.7-20.9c-1.5-7.4-1.8-25.9,10.7-23.7
			C420.1,670.6,420.9,667.7,419,667.4L419,667.4z"/>
		<path class="st1" d="M447.5,675.2c-12-3.5-10.5,17.7-10.3,24c0.4,12,8.8,39.8-10.3,42.2c-1.9,0.2-1.9,3.3,0,3
			c10.2-1.3,15.2-11,15.5-20.5c0.2-7.3-1.6-14.6-2.1-21.9c-0.3-3.9-1.9-26.2,6.4-23.8c0.8,0.2,1.6-0.4,1.8-1.2
			C448.5,676.2,448.1,675.5,447.5,675.2L447.5,675.2z"/>
		<path class="st1" d="M476.9,680.2c-4-0.6-8.5-0.9-11.1,2.8c-3.2,4.8-2.1,13.8-2,19.2c0.2,7.6,1.6,15,2.1,22.6
			c0.6,8.2-1.4,18.4-11,20.2c-1.9,0.3-1.1,3.2,0.8,2.9c10.8-2,13.8-13.6,13.1-23.1c-0.5-6.9-1.8-13.7-2.1-20.7
			c-0.1-3.8-0.1-7.7,0.1-11.5c0.1-1.8-0.2-4.9,0.6-6.4l4.7-3.4c1.3,0,2.5,0.1,3.8,0.3C478,683.3,478.8,680.4,476.9,680.2
			L476.9,680.2z"/>
		<path class="st1" d="M748,662.4c-15-2.6-16.5,17.4-14.4,27.4c1.7,8.2,5,16.2,4.7,24.7c-0.4,10.9-7.8,16.2-17.3,19.8
			c-1.8,0.7-1,3.6,0.8,2.9c5.7-2.2,11.5-4.7,15.3-9.6s4.6-11.6,4-17.7c-0.7-7.2-3.3-13.9-4.7-20.9c-1.5-7.4-1.8-25.9,10.7-23.7
			C749.1,665.7,749.9,662.8,748,662.4L748,662.4z"/>
		<path class="st1" d="M776.5,670.2c-12-3.5-10.5,17.7-10.3,24c0.4,12,8.8,39.8-10.3,42.2c-1.9,0.2-1.9,3.2,0,3
			c10.2-1.3,15.2-11,15.5-20.5c0.2-7.3-1.6-14.6-2.1-21.9c-0.3-3.9-1.9-26.2,6.4-23.9c0.8,0.2,1.6-0.3,1.8-1.1
			C777.7,671.2,777.2,670.5,776.5,670.2L776.5,670.2z"/>
		<path class="st1" d="M805.9,675.2c-4-0.6-8.5-0.9-11.1,2.8c-3.2,4.8-2.1,13.8-2,19.2c0.2,7.6,1.6,15,2.1,22.6
			c0.6,8.2-1.4,18.5-11,20.2c-1.9,0.4-1.1,3.3,0.8,2.9c10.8-2,13.8-13.6,13.2-23.1c-0.5-6.9-1.8-13.7-2.1-20.6
			c-0.1-3.9-0.1-7.7,0.1-11.5c0.1-1.8-0.2-4.9,0.6-6.4l4.7-3.4c1.3,0,2.5,0.1,3.8,0.3C807,678.4,807.8,675.5,805.9,675.2
			L805.9,675.2z"/>
		<path class="st1" d="M206.7,727.9c22.8-7.2,42.1-22.8,65.6-27.8c1.9-0.4,1.1-3.3-0.8-2.9c-23.6,5-42.8,20.6-65.6,27.8
			C204.1,725.6,204.9,728.5,206.7,727.9L206.7,727.9z"/>
		<path class="st1" d="M219.1,745.3c26.4-8.9,53.4-15.6,80.9-19.9c1.9-0.3,1.1-3.2-0.8-2.9c-27.5,4.4-54.6,11.1-80.9,19.9
			C216.5,743.1,217.3,746,219.1,745.3L219.1,745.3z"/>
		<path class="st1" d="M238.7,767.5c25.5-5.8,51.5-9.4,77.6-10.9c1.9-0.1,1.9-3.1,0-3c-26.4,1.5-52.6,5.2-78.4,11
			C236,765,236.8,767.9,238.7,767.5L238.7,767.5z"/>
		<path class="st1" d="M562.7,711c22.8-7.1,42.1-22.8,65.6-27.8c1.9-0.4,1.1-3.3-0.8-2.9c-23.6,5-42.8,20.6-65.6,27.8
			C560.1,708.7,560.9,711.6,562.7,711z"/>
		<path class="st1" d="M575.1,728.4c26.4-8.9,53.4-15.5,80.9-19.9c1.9-0.3,1.1-3.2-0.8-2.9c-27.5,4.4-54.6,11.1-80.9,19.9
			C572.5,726.1,573.3,729,575.1,728.4z"/>
		<path class="st1" d="M594.7,750.5c25.5-5.8,51.5-9.4,77.6-10.9c1.9-0.1,1.9-3.1,0-3c-26.4,1.5-52.6,5.2-78.4,11
			C592,748.1,592.8,751,594.7,750.5L594.7,750.5z"/>
		<path class="st1" d="M901.7,717c22.8-7.2,42.1-22.8,65.6-27.8c1.9-0.4,1.1-3.3-0.8-2.9c-23.6,5-42.8,20.6-65.6,27.8
			C899.1,714.7,899.9,717.6,901.7,717z"/>
		<path class="st1" d="M914.1,734.4c26.4-8.9,53.4-15.5,80.9-19.9c1.9-0.3,1.1-3.2-0.8-2.9c-27.5,4.4-54.6,11.1-80.9,19.9
			C911.5,732.1,912.3,735,914.1,734.4z"/>
		<path class="st1" d="M933.7,756.5c25.5-5.8,51.5-9.4,77.6-10.9c1.9-0.1,1.9-3.1,0-3c-26.4,1.5-52.6,5.2-78.4,11
			C931,754,931.8,756.9,933.7,756.5L933.7,756.5z"/>
		<path class="st1" d="M1125,654.5c-15-2.6-16.5,17.4-14.4,27.4c1.7,8.2,5,16.2,4.7,24.7c-0.4,10.9-7.8,16.2-17.3,19.8
			c-1.8,0.7-1,3.6,0.8,2.9c5.7-2.2,11.5-4.7,15.3-9.6s4.6-11.6,4-17.7c-0.7-7.2-3.3-13.9-4.7-20.9c-1.5-7.4-1.8-25.9,10.7-23.7
			C1126.1,657.7,1126.9,654.8,1125,654.5L1125,654.5z"/>
		<path class="st1" d="M1153.5,662.2c-12-3.5-10.5,17.7-10.3,24c0.4,12,8.8,39.8-10.3,42.2c-1.9,0.2-1.9,3.3,0,3
			c10.2-1.3,15.2-11,15.5-20.5c0.2-7.3-1.6-14.6-2.1-21.9c-0.3-3.9-1.9-26.2,6.4-23.8c0.8,0.2,1.6-0.4,1.8-1.2
			C1154.5,663.2,1154.1,662.5,1153.5,662.2L1153.5,662.2z"/>
		<path class="st1" d="M1182.9,667.2c-4-0.6-8.5-0.9-11.1,2.8c-3.2,4.8-2.1,13.8-2,19.2c0.2,7.6,1.6,15,2.1,22.6
			c0.6,8.2-1.4,18.4-11,20.2c-1.9,0.3-1.1,3.2,0.8,2.9c10.8-2,13.8-13.6,13.2-23.1c-0.5-6.9-1.8-13.7-2.1-20.7
			c-0.1-3.9-0.1-7.7,0.1-11.5c0.1-1.8-0.2-4.9,0.6-6.4l4.7-3.4c1.3,0,2.5,0.1,3.8,0.3C1183.9,670.4,1184.7,667.5,1182.9,667.2
			L1182.9,667.2z"/>
	</g>
</g>
</svg>
