<?xml version="1.0" encoding="utf-8"?>
<!-- Generator: Adobe Illustrator 23.0.1, SVG Export Plug-In . SVG Version: 6.00 Build 0)  -->
<svg version="1.1" id="Layer_1" xmlns="http://www.w3.org/2000/svg" xmlns:xlink="http://www.w3.org/1999/xlink" x="0px" y="0px"
	 viewBox="0 0 501 487" style="enable-background:new 0 0 501 487;" xml:space="preserve">
<style type="text/css">
	.st0{fill:#FFFFFF;stroke:#FFFFFF;stroke-miterlimit:10;}
</style>
<title>Asset 2</title>
<g>
	<g id="Layer_1-2">
		<path class="st0" d="M24,399.5h453c13,0,23.5,10.5,23.5,23.5v40c0,13-10.5,23.5-23.5,23.5H24C11,486.5,0.5,476,0.5,463v-40
			C0.5,410,11,399.5,24,399.5z"/>
		<path class="st0" d="M477,400c12.7,0,23,10.3,23,23v40c0,12.7-10.3,23-23,23l0,0H24c-12.7,0-23-10.3-23-23l0,0v-40
			c0-12.7,10.3-23,23-23H477 M477,399H24c-13.3,0-24,10.7-24,24v40c0,13.3,10.7,24,24,24h453c13.3,0,24-10.7,24-24v-40
			C501,409.7,490.3,399,477,399z"/>
		<path class="st0" d="M56.8,152.8h35.6c9.6,0,16.5,1.7,20.9,5s6.5,8.8,6.5,16.5v4.2c0,9-4.5,14.4-13.4,16.1c5.5,1,9.4,3.4,11.6,7.1
			c2.2,3.7,3.4,8.7,3.4,14.8c0,10-2.1,17.6-6.3,22.8s-11.7,7.8-22.6,7.8H56.8V152.8z M87.8,188.2c2.2,0,3.8-0.6,4.6-1.8
			c0.9-1.5,1.3-3.3,1.2-5.1v-9.4c0-3.1-1.9-4.6-5.7-4.6h-5.5v21L87.8,188.2z M95.3,223.4v-11.7c0-2.9-0.6-5-1.8-6.5
			c-1.2-1.5-3.2-2.2-6.2-2.2h-4.9v27.3l2.6,0.1C91.9,230.4,95.3,228.1,95.3,223.4L95.3,223.4z"/>
		<path class="st0" d="M133.9,242.5c-3.1-3.6-4.7-8.9-4.7-16v-59.8h26.9v60c0,2.2,0.5,3.8,1.4,4.7c1.3,1,2.9,1.5,4.5,1.4
			c2.8,0,4.5-0.8,5.2-2.5c0.8-2.3,1.2-4.7,1.1-7.1v-0.7l0.1-55.9h26.6V247h-26.7v-8.6c-1.5,2.9-3.7,5.4-6.4,7.2
			c-2.5,1.5-6.1,2.2-10.9,2.2C142.8,247.9,137,246.1,133.9,242.5z"/>
		<path class="st0" d="M205.8,166.7h26.8v8.9c1.4-3.2,3.9-5.8,7-7.3c3.8-1.8,8.1-2.7,12.3-2.6v16c-4.2,0-8.3,0.4-12.5,1.1
			c-4.5,0.8-6.8,1.7-6.8,2.7V247h-26.8V166.7z"/>
		<path class="st0" d="M269.8,257.3c-4.7-1-9.2-2.7-13.4-5.2l9.2-11.1c6.1,2.7,12.7,4.1,19.4,4.2c4.2,0,7.3-0.9,9.5-2.9
			c2.2-2,3.4-4.8,3.2-7.8v-4.4c-2.1,5.5-7.8,8.2-17,8.2c-7.6,0-13.3-1.9-16.9-5.6s-5.4-8.7-5.4-14.9v-30.2c0-7.1,1.7-12.5,5-16.3
			c3.3-3.8,9.1-5.7,17.4-5.6c4.8,0,8.6,0.9,11.4,2.6c2.7,1.6,4.7,4.2,5.6,7.3v-9H325v66.7c0,9-2.9,15.5-8.7,19.4
			c-5.8,3.9-15.1,5.9-27.8,5.9C282.2,258.8,276,258.4,269.8,257.3z M297.7,215.8v-28.6c0-1.7-0.7-3.3-1.8-4.6
			c-1.1-1.4-2.8-2.2-4.6-2.2c-2.3,0-3.9,0.6-4.7,1.8c-0.9,1.5-1.3,3.2-1.2,5v28.6c-0.1,2,0.3,4,1.2,5.9c0.8,1.5,2.4,2.3,4.9,2.3
			C295.6,223.9,297.7,221.2,297.7,215.8L297.7,215.8z"/>
		<path class="st0" d="M342,241.1c-5-4.5-7.5-11.3-7.5-20.3v-32.3c0-7.4,3-13,8.9-16.9s14.2-5.8,24.8-5.8c21.5,0,32.3,7.6,32.3,22.7
			v5.8c0,5.8-0.1,10.6-0.3,14.3h-38.8v15.6c-0.1,2.2,0.3,4.5,1.2,6.5c0.8,1.6,2.5,2.4,5.2,2.4c2,0,3.5-0.4,4.4-1.3
			c0.8-0.8,1.4-1.9,1.5-3c0.2-1.7,0.3-3.3,0.2-5v-7.8h26.6v4.6c0,9.3-2.5,16.2-7.6,20.7c-5,4.4-13.7,6.7-26.1,6.6
			C355.2,247.9,347,245.6,342,241.1z M373.8,199.1v-10.3c0-5.8-2-8.7-6-8.7c-4.5,0-6.7,2.9-6.7,8.7V199L373.8,199.1z"/>
		<path class="st0" d="M410,166.7h26.8v8.9c1.4-3.2,3.8-5.8,7-7.3c3.8-1.8,8.1-2.7,12.3-2.6v16c-4.2,0-8.3,0.4-12.5,1.1
			c-4.5,0.8-6.8,1.7-6.8,2.7V247H410V166.7z"/>
		<path class="st0" d="M101.2,290.7h-7c-0.9,0-1.8-0.2-2.7-0.6c-1.5-0.5-2.3-2.2-1.8-3.7c0-0.1,0.1-0.2,0.1-0.3l3.7-11.4
			c0.2-0.5,0.4-0.9,0.7-1.3c0.9-1.3,2.4-2,4-2h43.3c5.3-0.1,10.5,0.6,15.6,2.1c10.2,3.3,15.3,9.7,15.4,19.2c0,5.9-1.6,12.7-4.8,20.5
			c-3.6,8.7-8.9,15.4-16.1,19.9c-7.6,5-20.4,7.5-38.5,7.7l-14.3,44.3c-0.8,2.3-2.9,3.5-6.2,3.5H75.2c-0.8,0-1.6-0.1-2.4-0.5
			c-1.8-0.9-2.4-2.4-1.7-4.5L101.2,290.7z M118.4,324.6l7.6-0.4l1.9-0.2c5.9-0.5,11.2-3.6,14.6-8.5c0.3-0.9,0.8-1.9,1.2-3.1
			c2.5-7.3,3.7-13.2,3.7-17.7c0-0.7-0.4-1.3-0.9-1.8c-1.4-1.3-3.3-2-5.2-1.9c-0.8,0-2.7-0.1-5.8-0.1c-2.6,0-4.6,0-6-0.1L118.4,324.6
			z"/>
		<path class="st0" d="M208.7,377.2h0.1l-0.4-0.8l-1.9,1.9c-2.5,2.4-4.6,4.3-6.4,5.9c-4,3.3-7.5,4.9-10.6,4.9H188
			c-2.3-0.1-5.7-1.9-10.2-5.5c-5.3-4.2-7.9-8.8-7.9-13.9c0-9.5,4.3-23.2,12.8-41.1c5.6-11.8,11.3-19.4,17.2-22.9
			c5-2.8,10.7-4.3,16.5-4.2c5.9,0,11.7,1.6,16.9,4.5l0.5-1.3c0.1-0.9,0.5-1.8,0.9-2.7c1-0.8,2.3-1.3,3.6-1.3h13.1
			c4.9,0,6.8,1.8,5.7,5.3l-22.6,59.5c1.7-1.4,3.2-3.1,4.5-4.9c1-1.8,3.3-2.4,5.1-1.4c0,0,0,0,0,0l9,4.8c2,1.2,2.5,2.5,1.4,3.8
			c-1.8,2.1-3.8,4.2-5.8,6.1c-10.2,9.5-20.6,14.7-31.1,15.4c-1.5,0.2-2.9-0.6-3.7-1.8L208.7,377.2z M228.5,319.4
			c-0.3-0.5-0.6-1.1-0.8-1.7c-2.1-0.5-4.2-0.8-6.3-0.8c-1.3-0.1-2.5,0.2-3.7,0.7c-2.4,1.5-5.5,6.1-9.3,13.9
			c-4.4,8.7-7.9,18-10.3,27.5c-0.4,1.9-0.6,3.1-0.7,3.7c-0.1,0.6,0.3,1.2,0.9,1.2c0.1,0,0.2,0,0.3,0c0.4,0,0.9-0.1,1.3-0.2
			c2.5-0.9,5.9-4.1,10.1-9.4c7.3-10,13.3-20.9,17.6-32.5L228.5,319.4z"/>
		<path class="st0" d="M358.8,269.5l-34.1,95c1.4-1.1,2.6-2.3,3.8-3.6c1.2-1.6,3.5-2,5.1-0.8l8.6,5c1.9,1.2,2.3,2.5,1.2,3.9
			c-1.4,1.4-2.9,2.8-4.5,4.2c-11.6,10.1-22.9,15.5-33.8,16.2c-1.5,0.2-2.9-0.5-3.7-1.8l-0.6-1.1l-1.1-2.3l-3.6-6.8h0.1l-0.4-0.7
			l-1.9,1.9c-2.5,2.3-4.6,4.2-6.4,5.8c-4,3.2-7.6,4.8-10.7,4.8h-1.1c-2.7,0-6.3-1.8-10.6-5.3c-5.3-4.4-8-8.8-8-13.4
			c0-8.7,4.3-22.4,12.8-41.2c5.3-11.5,11-19.1,17.1-22.8c5-2.9,10.7-4.3,16.4-4.2c5.9,0,11.8,1.3,17.1,3.9l12.8-36.8
			c0.8-2.3,2.8-3.5,6.1-3.6h14.9C358,265.7,359.5,267,358.8,269.5z M316,319.5c-2.3-0.6-4.6-1-7-1c-1.3,0-2.7,0.2-3.9,0.7
			c-2.3,1.3-5.5,5.9-9.4,13.6c-5.2,10.2-8.6,19.2-10.4,26.9c-0.3,1.1-0.5,2.3-0.6,3.5c0,0.9,0.5,1.4,1.5,1.4c0.3,0,0.7,0,1-0.2
			c2.6-0.9,6-4.1,10.2-9.5c7.5-10.1,13.5-21.1,17.9-32.8L316,319.5z"/>
		<path class="st0" d="M477.7,320.6c-0.7-2.3-2.8-4-5.2-4.2l-32.9-3l-13-30.6c-1.2-3.1-4.7-4.6-7.8-3.4c-1.5,0.6-2.7,1.8-3.4,3.4
			l-13,30.6l-32.9,3c-3.4,0.3-5.8,3.3-5.5,6.7c0.2,1.5,0.9,3,2,4l24.9,22l-7.3,32.5c-0.5,2.4,0.4,4.9,2.4,6.3c1,0.8,2.3,1.2,3.6,1.2
			c1.1,0,2.2-0.3,3.1-0.9L421,371l28.4,17.1c2.1,1.3,4.7,1.1,6.7-0.3c2-1.4,2.9-3.9,2.4-6.3l-7.3-32.5l24.9-22
			C477.7,325.4,478.4,322.9,477.7,320.6z"/>
		<path class="st0" d="M0,108C0,48.3,112.2,0,250.5,0S501,48.3,501,108"/>
		<rect x="0" y="103.4" class="st0" width="500.5" height="30.5"/>
	</g>
</g>
</svg>
