<?xml version="1.0" encoding="utf-8"?>
<!-- Generator: Adobe Illustrator 23.0.1, SVG Export Plug-In . SVG Version: 6.00 Build 0)  -->
<svg version="1.1" id="Layer_1" xmlns="http://www.w3.org/2000/svg" xmlns:xlink="http://www.w3.org/1999/xlink" x="0px" y="0px"
	 viewBox="0 0 501 487" style="enable-background:new 0 0 501 487;" xml:space="preserve">
<style type="text/css">
	.st0{fill:#FFFFFF;}
	.st1{font-family:'Anton-Regular';}
	.st2{font-size:109.69px;}
	.st3{font-family:'Allan-Regular';}
	.st4{font-size:165.77px;}
</style>
<title>Asset 1</title>
<g>
	<g id="Layer_1-2">
		<path class="st0" d="M24,399.5h453c13,0,23.5,10.5,23.5,23.5v40c0,13-10.5,23.5-23.5,23.5H24C11,486.5,0.5,476,0.5,463v-40
			C0.5,410,11,399.5,24,399.5z"/>
		<path class="st0" d="M477,400c12.7,0,23,10.3,23,23v40c0,12.7-10.3,23-23,23l0,0H24c-12.7,0-23-10.3-23-23l0,0v-40
			c0-12.7,10.3-23,23-23H477 M477,399H24c-13.3,0-24,10.7-24,24v40c0,13.3,10.7,24,24,24h453c13.3,0,24-10.7,24-24v-40
			C501,409.7,490.3,399,477,399z"/>
		<text transform="matrix(1.39 0 0 1 51 246.9697)" class="st0 st1 st2">Burger</text>
		<text transform="matrix(1.27 0 0 1 72.5698 388.5996)" class="st0 st3 st4">Pad</text>
		<path class="st0" d="M477.7,320.6c-0.7-2.3-2.8-4-5.2-4.2l-32.9-3l-13-30.6c-1.2-3.1-4.7-4.6-7.8-3.4c-1.5,0.6-2.7,1.8-3.4,3.4
			l-13,30.6l-32.9,3c-3.4,0.3-5.8,3.3-5.5,6.7c0.2,1.5,0.9,3,2,4l24.9,22l-7.3,32.5c-0.5,2.4,0.4,4.9,2.4,6.3c1,0.8,2.3,1.2,3.6,1.2
			c1.1,0,2.2-0.3,3.1-0.9L421,371l28.4,17.1c2.1,1.3,4.7,1.1,6.7-0.3c2-1.4,2.9-3.9,2.4-6.3l-7.3-32.5l24.9-22
			C477.7,325.4,478.4,322.9,477.7,320.6z"/>
		<path class="st0" d="M0,108C0,48.3,112.2,0,250.5,0S501,48.3,501,108"/>
		<rect y="108" class="st0" width="501" height="26"/>
	</g>
</g>
</svg>
