<?xml version="1.0" encoding="utf-8"?>
<!-- Generator: Adobe Illustrator 23.0.1, SVG Export Plug-In . SVG Version: 6.00 Build 0)  -->
<svg version="1.1" id="Layer_1" xmlns="http://www.w3.org/2000/svg" xmlns:xlink="http://www.w3.org/1999/xlink" x="0px" y="0px"
	 viewBox="0 0 470 463" style="enable-background:new 0 0 470 463;" xml:space="preserve">
<style type="text/css">
	.st0{fill:#FFFFFF;}
	.st1{font-family:'Anton Regular';}
	.st2{font-size:120.6596px;}
	.st3{font-size:103.2641px;}
</style>
<title>Asset 7</title>
<g>
	<g id="Layer_1-2">
		<text transform="matrix(1.078 0 0 1 52 250.1514)" class="st0 st1 st2">Burger</text>
		<path class="st0" d="M17.5,378h435c9.7,0,17.5,7.8,17.5,17.5v50c0,9.7-7.8,17.5-17.5,17.5h-435C7.8,463,0,455.1,0,445.5v-50
			C0,385.8,7.8,378,17.5,378z"/>
		<path class="st0" d="M3.3,141.8C3,63.9,106.7,0.4,234.8,0S467,62.3,467.3,140.1"/>
		<text transform="matrix(1.2538 0 0 1 119 360.7197)" class="st0 st1 st3">Pad</text>
		<polygon class="st0" points="340.7,369.2 347.7,328.5 318.8,299 358.8,293.9 376.8,257.1 394.6,294.7 434.5,301.5 405.5,329.8
			412.2,370.7 376.5,350.7 		"/>
	</g>
</g>
</svg>
