<svg xmlns="http://www.w3.org/2000/svg" viewBox="0 0 1366 768"><defs><style>.cls-1{fill:#ff7d45;}.cls-2{fill:#f15a24;}</style></defs><title>Asset 2</title><g id="Layer_2" data-name="Layer 2"><g id="Layer_1-2" data-name="Layer 1"><rect class="cls-1" width="1366" height="768"/><path class="cls-2" d="M116.83,34.16c-12.08,2.88-15.64,17.75-17,28.32-1.87,14.1-2.58,35-20,38.76-1.89.41-1.09,3.3.8,2.9,11.92-2.59,17.93-14,20-25.13,2.4-12.57.72-38.08,17-42,1.87-.45,1.08-3.34-.8-2.89Z"/><path class="cls-2" d="M139.32,41.54c-13.38,4.74-18.92,17-18.86,30.53,0,8.37,3,17.74,0,25.84-2.84,7.67-10.48,11.9-18,13.62-1.88.43-1.08,3.32.8,2.9,12.51-2.84,21.5-11.6,21.46-24.85,0-8.58-2.14-17-.61-25.58,1.62-9.17,7.21-16.43,16.07-19.57,1.81-.64,1-3.54-.8-2.89Z"/><path class="cls-2" d="M170.12,49.83C156,43.77,149.2,63.07,146.28,73.07c-2.39,8.2-2.88,16.21-3.68,24.63-1,10.18-7.77,15.36-15.92,20.45-1.63,1-.13,3.62,1.52,2.59,4.73-2.95,9.63-6.06,13.05-10.56,3.8-5,4.25-10.76,4.61-16.82.57-9.5,6.15-48.08,22.74-40.94,1.76.76,3.29-1.82,1.52-2.59Z"/><path class="cls-2" d="M68.34,206.46A491.55,491.55,0,0,1,121,167c1.61-1.05.11-3.65-1.52-2.59a499.38,499.38,0,0,0-53.28,40c-1.46,1.26.67,3.38,2.13,2.12Z"/><path class="cls-2" d="M76,220.5a540.49,540.49,0,0,1,64.66-33.71c1.76-.78.24-3.36-1.52-2.59a541.25,541.25,0,0,0-64.66,33.71c-1.64,1-.14,3.6,1.52,2.59Z"/><path class="cls-2" d="M86.38,236.22q34.29-16.87,69.89-30.81c1.78-.69,1-3.59-.79-2.89q-36,14.07-70.61,31.11c-1.73.85-.22,3.44,1.51,2.59Z"/><path class="cls-2" d="M100.83,296.16c-12.08,2.88-15.64,17.75-17,28.32-1.87,14.1-2.58,35-20,38.76-1.89.41-1.09,3.3.8,2.9,11.92-2.59,17.93-14,20-25.13,2.4-12.57.72-38.08,17-42,1.87-.45,1.08-3.34-.8-2.89Z"/><path class="cls-2" d="M123.32,303.54c-13.38,4.74-18.92,17-18.86,30.53,0,8.37,3,17.74,0,25.84-2.84,7.67-10.48,11.9-18,13.62-1.88.43-1.08,3.32.8,2.9,12.51-2.84,21.5-11.6,21.46-24.85,0-8.58-2.14-17-.61-25.58,1.62-9.17,7.21-16.43,16.07-19.57,1.81-.64,1-3.54-.8-2.89Z"/><path class="cls-2" d="M154.12,311.83c-14.09-6.06-20.92,13.24-23.84,23.24-2.39,8.2-2.88,16.21-3.68,24.63-1,10.18-7.77,15.36-15.92,20.45-1.63,1-.13,3.62,1.52,2.59,4.73-2.95,9.63-6.06,13-10.56,3.8-5,4.25-10.76,4.61-16.82.57-9.5,6.15-48.08,22.74-40.94,1.76.76,3.29-1.82,1.52-2.59Z"/><path class="cls-2" d="M52.34,468.46A491.55,491.55,0,0,1,105,429c1.61-1.05.11-3.65-1.52-2.59a499.38,499.38,0,0,0-53.28,40c-1.46,1.26.67,3.38,2.13,2.12Z"/><path class="cls-2" d="M60,482.5a540.49,540.49,0,0,1,64.66-33.71c1.76-.78.24-3.36-1.52-2.59a541.25,541.25,0,0,0-64.66,33.71c-1.64,1-.14,3.6,1.52,2.59Z"/><path class="cls-2" d="M70.38,498.22q34.29-16.87,69.89-30.81c1.78-.69,1-3.59-.79-2.89q-36,14.07-70.61,31.11c-1.73.85-.22,3.44,1.51,2.59Z"/><path class="cls-2" d="M84.83,536.16c-12.08,2.88-15.64,17.75-17,28.32-1.87,14.1-2.58,35-20,38.76-1.89.41-1.09,3.3.8,2.9,11.92-2.59,17.93-14,20-25.13,2.4-12.57.72-38.08,17-42,1.87-.45,1.08-3.34-.8-2.89Z"/><path class="cls-2" d="M107.32,543.54c-13.38,4.74-18.92,17-18.86,30.53,0,8.37,3,17.74,0,25.84-2.84,7.67-10.48,11.9-18,13.62-1.88.43-1.08,3.32.8,2.9,12.51-2.84,21.5-11.6,21.46-24.85,0-8.58-2.14-17-.61-25.58,1.62-9.17,7.21-16.43,16.07-19.57,1.81-.64,1-3.54-.8-2.89Z"/><path class="cls-2" d="M138.12,551.83c-14.09-6.06-20.92,13.24-23.84,23.24-2.39,8.2-2.88,16.21-3.68,24.63-1,10.18-7.77,15.36-15.92,20.45-1.63,1-.13,3.62,1.52,2.59,4.73-3,9.63-6.06,13-10.56,3.8-5,4.25-10.76,4.61-16.82.57-9.5,6.15-48.08,22.74-40.94,1.76.76,3.29-1.82,1.52-2.59Z"/><path class="cls-2" d="M36.34,708.46A491.55,491.55,0,0,1,89,669c1.61-1.05.11-3.65-1.52-2.59a499.38,499.38,0,0,0-53.28,40c-1.46,1.26.67,3.38,2.13,2.12Z"/><path class="cls-2" d="M44,722.5a540.49,540.49,0,0,1,64.66-33.71c1.76-.78.24-3.36-1.52-2.59a541.25,541.25,0,0,0-64.66,33.71c-1.64,1-.14,3.6,1.52,2.59Z"/><path class="cls-2" d="M54.38,738.22q34.29-16.87,69.89-30.81c1.78-.69,1-3.59-.79-2.89q-36,14.07-70.61,31.11c-1.73.85-.22,3.44,1.51,2.59Z"/><path class="cls-2" d="M245.34,75.46A491.55,491.55,0,0,1,298,36c1.61-1,.11-3.65-1.52-2.59a499.38,499.38,0,0,0-53.28,40c-1.46,1.26.67,3.38,2.13,2.12Z"/><path class="cls-2" d="M253,89.5a540.49,540.49,0,0,1,64.66-33.71c1.76-.78.24-3.36-1.52-2.59a541.25,541.25,0,0,0-64.66,33.71c-1.64,1-.14,3.6,1.52,2.59Z"/><path class="cls-2" d="M263.38,105.22q34.29-16.87,69.89-30.81c1.78-.69,1-3.59-.79-2.89q-36,14.07-70.61,31.11c-1.73.85-.22,3.44,1.51,2.59Z"/><path class="cls-2" d="M264.83,129.16c-12.08,2.88-15.64,17.75-17,28.32-1.87,14.1-2.58,35-20,38.76-1.89.41-1.09,3.3.8,2.9,11.92-2.59,17.93-14,20-25.13,2.4-12.57.72-38.08,17-42,1.87-.45,1.08-3.34-.8-2.89Z"/><path class="cls-2" d="M287.32,136.54c-13.38,4.74-18.92,17-18.86,30.53,0,8.37,3,17.74,0,25.84-2.84,7.67-10.48,11.9-18,13.62-1.88.43-1.08,3.32.8,2.9,12.51-2.84,21.5-11.6,21.46-24.85,0-8.58-2.14-17-.61-25.58,1.62-9.17,7.21-16.43,16.07-19.57,1.81-.64,1-3.54-.8-2.89Z"/><path class="cls-2" d="M318.12,144.83c-14.09-6.06-20.92,13.24-23.84,23.24-2.39,8.2-2.88,16.21-3.68,24.63-1,10.18-7.77,15.36-15.92,20.45-1.63,1-.13,3.62,1.52,2.59,4.73-3,9.63-6.06,13.05-10.56,3.8-5,4.25-10.76,4.61-16.82.57-9.5,6.15-48.08,22.74-40.94,1.76.76,3.29-1.82,1.52-2.59Z"/><path class="cls-2" d="M240.34,332.46A491.55,491.55,0,0,1,293,293c1.61-1.05.11-3.65-1.52-2.59a499.38,499.38,0,0,0-53.28,40c-1.46,1.26.67,3.38,2.13,2.12Z"/><path class="cls-2" d="M248,346.5a540.49,540.49,0,0,1,64.66-33.71c1.76-.78.24-3.36-1.52-2.59a541.25,541.25,0,0,0-64.66,33.71c-1.64,1-.14,3.6,1.52,2.59Z"/><path class="cls-2" d="M258.38,362.22q34.29-16.87,69.89-30.81c1.78-.69,1-3.59-.79-2.89q-36,14.07-70.61,31.11c-1.73.85-.22,3.44,1.51,2.59Z"/><path class="cls-2" d="M259.83,386.16c-12.08,2.88-15.64,17.75-17,28.32-1.87,14.1-2.58,35-20,38.76-1.89.41-1.09,3.3.8,2.9,11.92-2.59,17.93-14,20-25.13,2.4-12.57.72-38.08,17-42,1.87-.45,1.08-3.34-.8-2.89Z"/><path class="cls-2" d="M282.32,393.54c-13.38,4.74-18.92,17-18.86,30.53,0,8.37,3,17.74,0,25.84-2.84,7.67-10.48,11.9-18,13.62-1.88.43-1.08,3.32.8,2.9,12.51-2.84,21.5-11.6,21.46-24.85,0-8.58-2.14-17-.61-25.58,1.62-9.17,7.21-16.43,16.07-19.57,1.81-.64,1-3.54-.8-2.89Z"/><path class="cls-2" d="M313.12,401.83c-14.09-6.06-20.92,13.24-23.84,23.24-2.39,8.2-2.88,16.21-3.68,24.63-1,10.18-7.77,15.36-15.92,20.45-1.63,1-.13,3.62,1.52,2.59,4.73-2.95,9.63-6.06,13.05-10.56,3.8-5,4.25-10.76,4.61-16.82.57-9.5,6.15-48.08,22.74-40.94,1.76.76,3.29-1.82,1.52-2.59Z"/><path class="cls-2" d="M230.34,575.46A491.55,491.55,0,0,1,283,536c1.61-1.05.11-3.65-1.52-2.59a499.38,499.38,0,0,0-53.28,40c-1.46,1.26.67,3.38,2.13,2.12Z"/><path class="cls-2" d="M238,589.5a540.49,540.49,0,0,1,64.66-33.71c1.76-.78.24-3.36-1.52-2.59a541.25,541.25,0,0,0-64.66,33.71c-1.64,1-.14,3.6,1.52,2.59Z"/><path class="cls-2" d="M248.38,605.22q34.29-16.87,69.89-30.81c1.78-.69,1-3.59-.79-2.89q-36,14.07-70.61,31.11c-1.73.85-.22,3.44,1.51,2.59Z"/><path class="cls-2" d="M249.83,629.16c-12.08,2.88-15.64,17.75-17,28.32-1.87,14.1-2.58,35-20,38.76-1.89.41-1.09,3.3.8,2.9,11.92-2.59,17.93-14,20-25.13,2.4-12.57.72-38.08,17-42,1.87-.45,1.08-3.34-.8-2.89Z"/><path class="cls-2" d="M272.32,636.54c-13.38,4.74-18.92,17-18.86,30.53,0,8.37,3,17.74,0,25.84-2.84,7.67-10.48,11.9-18,13.62-1.88.43-1.08,3.32.8,2.9,12.51-2.84,21.5-11.6,21.46-24.85,0-8.58-2.14-17-.61-25.58,1.62-9.17,7.21-16.43,16.07-19.57,1.81-.64,1-3.54-.8-2.89Z"/><path class="cls-2" d="M303.12,644.83c-14.09-6.06-20.92,13.24-23.84,23.24-2.39,8.2-2.88,16.21-3.68,24.63-1,10.18-7.77,15.36-15.92,20.45-1.63,1-.13,3.62,1.52,2.59,4.73-3,9.63-6.06,13.05-10.56,3.8-5,4.25-10.76,4.61-16.82.57-9.5,6.15-48.08,22.74-40.94,1.76.76,3.29-1.82,1.52-2.59Z"/><path class="cls-2" d="M472.83,19.16c-12.08,2.88-15.64,17.75-17,28.32-1.87,14.1-2.58,35-20,38.76-1.89.41-1.09,3.3.8,2.9,11.92-2.59,17.93-14,20-25.13,2.4-12.57.72-38.08,17-42,1.87-.45,1.08-3.34-.8-2.89Z"/><path class="cls-2" d="M495.32,26.54c-13.38,4.74-18.92,17-18.86,30.53,0,8.37,3,17.74,0,25.84-2.84,7.67-10.48,11.9-18.05,13.62-1.88.43-1.08,3.32.8,2.9,12.51-2.84,21.5-11.6,21.46-24.85,0-8.58-2.14-17-.61-25.58,1.62-9.17,7.21-16.43,16.07-19.57,1.81-.64,1-3.54-.8-2.89Z"/><path class="cls-2" d="M526.12,34.83C512,28.77,505.2,48.07,502.28,58.07c-2.39,8.2-2.88,16.21-3.68,24.63-1,10.18-7.77,15.36-15.92,20.45-1.63,1-.13,3.62,1.52,2.59,4.73-2.95,9.63-6.06,13.05-10.56,3.8-5,4.25-10.76,4.61-16.82.57-9.5,6.15-48.08,22.74-40.94,1.76.76,3.29-1.82,1.52-2.59Z"/><path class="cls-2" d="M424.34,191.46A491.55,491.55,0,0,1,477,152c1.61-1.05.11-3.65-1.52-2.59a499.38,499.38,0,0,0-53.28,40c-1.46,1.26.67,3.38,2.13,2.12Z"/><path class="cls-2" d="M432,205.5a540.49,540.49,0,0,1,64.66-33.71c1.76-.78.24-3.36-1.52-2.59a541.25,541.25,0,0,0-64.66,33.71c-1.64,1-.14,3.6,1.52,2.59Z"/><path class="cls-2" d="M442.38,221.22q34.29-16.87,69.89-30.81c1.78-.69,1-3.59-.79-2.89q-36,14.07-70.61,31.11c-1.73.85-.22,3.44,1.51,2.59Z"/><path class="cls-2" d="M456.83,281.16c-12.08,2.88-15.64,17.75-17,28.32-1.87,14.1-2.58,35-20,38.76-1.89.41-1.09,3.3.8,2.9,11.92-2.59,17.93-14,20-25.13,2.4-12.57.72-38.08,17-42,1.87-.45,1.08-3.34-.8-2.89Z"/><path class="cls-2" d="M479.32,288.54c-13.38,4.74-18.92,17-18.86,30.53,0,8.37,3,17.74,0,25.84-2.84,7.67-10.48,11.9-18.05,13.62-1.88.43-1.08,3.32.8,2.9,12.51-2.84,21.5-11.6,21.46-24.85,0-8.58-2.14-17-.61-25.58,1.62-9.17,7.21-16.43,16.07-19.57,1.81-.64,1-3.54-.8-2.89Z"/><path class="cls-2" d="M510.12,296.83c-14.09-6.06-20.92,13.24-23.84,23.24-2.39,8.2-2.88,16.21-3.68,24.63-1,10.18-7.77,15.36-15.92,20.45-1.63,1-.13,3.62,1.52,2.59,4.73-2.95,9.63-6.06,13.05-10.56,3.8-5,4.25-10.76,4.61-16.82.57-9.5,6.15-48.08,22.74-40.94,1.76.76,3.29-1.82,1.52-2.59Z"/><path class="cls-2" d="M408.34,453.46A491.55,491.55,0,0,1,461,414c1.61-1.05.11-3.65-1.52-2.59a499.38,499.38,0,0,0-53.28,40c-1.46,1.26.67,3.38,2.13,2.12Z"/><path class="cls-2" d="M416,467.5a540.49,540.49,0,0,1,64.66-33.71c1.76-.78.24-3.36-1.52-2.59a541.25,541.25,0,0,0-64.66,33.71c-1.64,1-.14,3.6,1.52,2.59Z"/><path class="cls-2" d="M426.38,483.22q34.29-16.87,69.89-30.81c1.78-.69,1-3.59-.79-2.89q-36,14.07-70.61,31.11c-1.73.85-.22,3.44,1.51,2.59Z"/><path class="cls-2" d="M440.83,521.16c-12.08,2.88-15.64,17.75-17,28.32-1.87,14.1-2.58,35-20,38.76-1.89.41-1.09,3.3.8,2.9,11.92-2.59,17.93-14,20-25.13,2.4-12.57.72-38.08,17-42,1.87-.45,1.08-3.34-.8-2.89Z"/><path class="cls-2" d="M463.32,528.54c-13.38,4.74-18.92,17-18.86,30.53,0,8.37,3,17.74,0,25.84-2.84,7.67-10.48,11.9-18.05,13.62-1.88.43-1.08,3.32.8,2.9,12.51-2.84,21.5-11.6,21.46-24.85,0-8.58-2.14-17-.61-25.58,1.62-9.17,7.21-16.43,16.07-19.57,1.81-.64,1-3.54-.8-2.89Z"/><path class="cls-2" d="M494.12,536.83c-14.09-6.06-20.92,13.24-23.84,23.24-2.39,8.2-2.88,16.21-3.68,24.63-1,10.18-7.77,15.36-15.92,20.45-1.63,1-.13,3.62,1.52,2.59,4.73-3,9.63-6.06,13.05-10.56,3.8-5,4.25-10.76,4.61-16.82.57-9.5,6.15-48.08,22.74-40.94,1.76.76,3.29-1.82,1.52-2.59Z"/><path class="cls-2" d="M392.34,693.46A491.55,491.55,0,0,1,445,654c1.61-1.05.11-3.65-1.52-2.59a499.38,499.38,0,0,0-53.28,40c-1.46,1.26.67,3.38,2.13,2.12Z"/><path class="cls-2" d="M400,707.5a540.49,540.49,0,0,1,64.66-33.71c1.76-.78.24-3.36-1.52-2.59a541.25,541.25,0,0,0-64.66,33.71c-1.64,1-.14,3.6,1.52,2.59Z"/><path class="cls-2" d="M410.38,723.22q34.29-16.87,69.89-30.81c1.78-.69,1-3.59-.79-2.89q-36,14.07-70.61,31.11c-1.73.85-.22,3.44,1.51,2.59Z"/><path class="cls-2" d="M601.34,60.46A491.55,491.55,0,0,1,654,21c1.61-1,.11-3.65-1.52-2.59a499.38,499.38,0,0,0-53.28,40c-1.46,1.26.67,3.38,2.13,2.12Z"/><path class="cls-2" d="M609,74.5a540.49,540.49,0,0,1,64.66-33.71c1.76-.78.24-3.36-1.52-2.59a541.25,541.25,0,0,0-64.66,33.71c-1.64,1-.14,3.6,1.52,2.59Z"/><path class="cls-2" d="M619.38,90.22q34.29-16.87,69.89-30.81c1.78-.69,1-3.59-.79-2.89q-36,14.07-70.61,31.11c-1.73.85-.22,3.44,1.51,2.59Z"/><path class="cls-2" d="M620.83,114.16c-12.08,2.88-15.64,17.75-17,28.32-1.87,14.1-2.58,35-20,38.76-1.89.41-1.09,3.3.8,2.9,11.92-2.59,17.93-14,20-25.13,2.4-12.57.72-38.08,17-42,1.87-.45,1.08-3.34-.8-2.89Z"/><path class="cls-2" d="M643.32,121.54c-13.38,4.74-18.92,17-18.86,30.53,0,8.37,3,17.74,0,25.84-2.84,7.67-10.48,11.9-18.05,13.62-1.88.43-1.08,3.32.8,2.9,12.51-2.84,21.5-11.6,21.46-24.85,0-8.58-2.14-17-.61-25.58,1.62-9.17,7.21-16.43,16.07-19.57,1.81-.64,1-3.54-.8-2.89Z"/><path class="cls-2" d="M674.12,129.83c-14.09-6.06-20.92,13.24-23.84,23.24-2.39,8.2-2.88,16.21-3.68,24.63-1,10.18-7.77,15.36-15.92,20.45-1.63,1-.13,3.62,1.52,2.59,4.73-3,9.63-6.06,13-10.56,3.8-5,4.25-10.76,4.61-16.82.57-9.5,6.15-48.08,22.74-40.94,1.76.76,3.29-1.82,1.52-2.59Z"/><path class="cls-2" d="M596.34,317.46A491.55,491.55,0,0,1,649,278c1.61-1.05.11-3.65-1.52-2.59a499.38,499.38,0,0,0-53.28,40c-1.46,1.26.67,3.38,2.13,2.12Z"/><path class="cls-2" d="M604,331.5a540.49,540.49,0,0,1,64.66-33.71c1.76-.78.24-3.36-1.52-2.59a541.25,541.25,0,0,0-64.66,33.71c-1.64,1-.14,3.6,1.52,2.59Z"/><path class="cls-2" d="M614.38,347.22q34.29-16.87,69.89-30.81c1.78-.69,1-3.59-.79-2.89q-36,14.07-70.61,31.11c-1.73.85-.22,3.44,1.51,2.59Z"/><path class="cls-2" d="M615.83,371.16c-12.08,2.88-15.64,17.75-17,28.32-1.87,14.1-2.58,35-20,38.76-1.89.41-1.09,3.3.8,2.9,11.92-2.59,17.93-14,20-25.13,2.4-12.57.72-38.08,17-42,1.87-.45,1.08-3.34-.8-2.89Z"/><path class="cls-2" d="M638.32,378.54c-13.38,4.74-18.92,17-18.86,30.53,0,8.37,3,17.74,0,25.84-2.84,7.67-10.48,11.9-18.05,13.62-1.88.43-1.08,3.32.8,2.9,12.51-2.84,21.5-11.6,21.46-24.85,0-8.58-2.14-17-.61-25.58,1.62-9.17,7.21-16.43,16.07-19.57,1.81-.64,1-3.54-.8-2.89Z"/><path class="cls-2" d="M669.12,386.83c-14.09-6.06-20.92,13.24-23.84,23.24-2.39,8.2-2.88,16.21-3.68,24.63-1,10.18-7.77,15.36-15.92,20.45-1.63,1-.13,3.62,1.52,2.59,4.73-2.95,9.63-6.06,13-10.56,3.8-5,4.25-10.76,4.61-16.82.57-9.5,6.15-48.08,22.74-40.94,1.76.76,3.29-1.82,1.52-2.59Z"/><path class="cls-2" d="M586.34,560.46A491.55,491.55,0,0,1,639,521c1.61-1.05.11-3.65-1.52-2.59a499.38,499.38,0,0,0-53.28,40c-1.46,1.26.67,3.38,2.13,2.12Z"/><path class="cls-2" d="M594,574.5a540.49,540.49,0,0,1,64.66-33.71c1.76-.78.24-3.36-1.52-2.59a541.25,541.25,0,0,0-64.66,33.71c-1.64,1-.14,3.6,1.52,2.59Z"/><path class="cls-2" d="M604.38,590.22q34.29-16.87,69.89-30.81c1.78-.69,1-3.59-.79-2.89q-36,14.07-70.61,31.11c-1.73.85-.22,3.44,1.51,2.59Z"/><path class="cls-2" d="M605.83,614.16c-12.08,2.88-15.64,17.75-17,28.32-1.87,14.1-2.58,35-20,38.76-1.89.41-1.09,3.3.8,2.9,11.92-2.59,17.93-14,20-25.13,2.4-12.57.72-38.08,17-42,1.87-.45,1.08-3.34-.8-2.89Z"/><path class="cls-2" d="M628.32,621.54c-13.38,4.74-18.92,17-18.86,30.53,0,8.37,3,17.74,0,25.84-2.84,7.67-10.48,11.9-18.05,13.62-1.88.43-1.08,3.32.8,2.9,12.51-2.84,21.5-11.6,21.46-24.85,0-8.58-2.14-17-.61-25.58,1.62-9.17,7.21-16.43,16.07-19.57,1.81-.64,1-3.54-.8-2.89Z"/><path class="cls-2" d="M659.12,629.83c-14.09-6.06-20.92,13.24-23.84,23.24-2.39,8.2-2.88,16.21-3.68,24.63-1,10.18-7.77,15.36-15.92,20.45-1.63,1-.13,3.62,1.52,2.59,4.73-3,9.63-6.06,13-10.56,3.8-5,4.25-10.76,4.61-16.82.57-9.5,6.15-48.08,22.74-40.94,1.76.76,3.29-1.82,1.52-2.59Z"/><path class="cls-2" d="M805.83,12.16c-12.08,2.88-15.64,17.75-17,28.32-1.87,14.1-2.58,35-20,38.76-1.89.41-1.09,3.3.8,2.9,11.92-2.59,17.93-14,20-25.13,2.4-12.57.72-38.08,17-42,1.87-.45,1.08-3.34-.8-2.89Z"/><path class="cls-2" d="M828.32,19.54c-13.38,4.74-18.92,17-18.86,30.53,0,8.37,3,17.74,0,25.84-2.84,7.67-10.48,11.9-18.05,13.62-1.88.43-1.08,3.32.8,2.9,12.51-2.84,21.5-11.6,21.46-24.85,0-8.58-2.14-17-.61-25.58,1.62-9.17,7.21-16.43,16.07-19.57,1.81-.64,1-3.54-.8-2.89Z"/><path class="cls-2" d="M859.12,27.83C845,21.77,838.2,41.07,835.28,51.07c-2.39,8.2-2.88,16.21-3.68,24.63-1,10.18-7.77,15.36-15.92,20.45-1.63,1-.13,3.62,1.52,2.59,4.73-2.95,9.63-6.06,13-10.56,3.8-5,4.25-10.76,4.61-16.82.57-9.5,6.15-48.08,22.74-40.94,1.76.76,3.29-1.82,1.52-2.59Z"/><path class="cls-2" d="M757.34,184.46A491.55,491.55,0,0,1,810,145c1.61-1.05.11-3.65-1.52-2.59a499.38,499.38,0,0,0-53.28,40c-1.46,1.26.67,3.38,2.13,2.12Z"/><path class="cls-2" d="M765,198.5a540.49,540.49,0,0,1,64.66-33.71c1.76-.78.24-3.36-1.52-2.59a541.25,541.25,0,0,0-64.66,33.71c-1.64,1-.14,3.6,1.52,2.59Z"/><path class="cls-2" d="M775.38,214.22q34.29-16.87,69.89-30.81c1.78-.69,1-3.59-.79-2.89q-36,14.07-70.61,31.11c-1.73.85-.22,3.44,1.51,2.59Z"/><path class="cls-2" d="M789.83,274.16c-12.08,2.88-15.64,17.75-17,28.32-1.87,14.1-2.58,35-20,38.76-1.89.41-1.09,3.3.8,2.9,11.92-2.59,17.93-14,20-25.13,2.4-12.57.72-38.08,17-42,1.87-.45,1.08-3.34-.8-2.89Z"/><path class="cls-2" d="M812.32,281.54c-13.38,4.74-18.92,17-18.86,30.53,0,8.37,3,17.74,0,25.84-2.84,7.67-10.48,11.9-18.05,13.62-1.88.43-1.08,3.32.8,2.9,12.51-2.84,21.5-11.6,21.46-24.85,0-8.58-2.14-17-.61-25.58,1.62-9.17,7.21-16.43,16.07-19.57,1.81-.64,1-3.54-.8-2.89Z"/><path class="cls-2" d="M843.12,289.83c-14.09-6.06-20.92,13.24-23.84,23.24-2.39,8.2-2.88,16.21-3.68,24.63-1,10.18-7.77,15.36-15.92,20.45-1.63,1-.13,3.62,1.52,2.59,4.73-2.95,9.63-6.06,13-10.56,3.8-5,4.25-10.76,4.61-16.82.57-9.5,6.15-48.08,22.74-40.94,1.76.76,3.29-1.82,1.52-2.59Z"/><path class="cls-2" d="M741.34,446.46A491.55,491.55,0,0,1,794,407c1.61-1.05.11-3.65-1.52-2.59a499.38,499.38,0,0,0-53.28,40c-1.46,1.26.67,3.38,2.13,2.12Z"/><path class="cls-2" d="M749,460.5a540.49,540.49,0,0,1,64.66-33.71c1.76-.78.24-3.36-1.52-2.59a541.25,541.25,0,0,0-64.66,33.71c-1.64,1-.14,3.6,1.52,2.59Z"/><path class="cls-2" d="M759.38,476.22q34.29-16.87,69.89-30.81c1.78-.69,1-3.59-.79-2.89q-36,14.07-70.61,31.11c-1.73.85-.22,3.44,1.51,2.59Z"/><path class="cls-2" d="M773.83,514.16c-12.08,2.88-15.64,17.75-17,28.32-1.87,14.1-2.58,35-20,38.76-1.89.41-1.09,3.3.8,2.9,11.92-2.59,17.93-14,20-25.13,2.4-12.57.72-38.08,17-42,1.87-.45,1.08-3.34-.8-2.89Z"/><path class="cls-2" d="M796.32,521.54c-13.38,4.74-18.92,17-18.86,30.53,0,8.37,3,17.74,0,25.84-2.84,7.67-10.48,11.9-18.05,13.62-1.88.43-1.08,3.32.8,2.9,12.51-2.84,21.5-11.6,21.46-24.85,0-8.58-2.14-17-.61-25.58,1.62-9.17,7.21-16.43,16.07-19.57,1.81-.64,1-3.54-.8-2.89Z"/><path class="cls-2" d="M827.12,529.83c-14.09-6.06-20.92,13.24-23.84,23.24-2.39,8.2-2.88,16.21-3.68,24.63-1,10.18-7.77,15.36-15.92,20.45-1.63,1-.13,3.62,1.52,2.59,4.73-3,9.63-6.06,13-10.56,3.8-5,4.25-10.76,4.61-16.82.57-9.5,6.15-48.08,22.74-40.94,1.76.76,3.29-1.82,1.52-2.59Z"/><path class="cls-2" d="M725.34,686.46A491.55,491.55,0,0,1,778,647c1.61-1.05.11-3.65-1.52-2.59a499.38,499.38,0,0,0-53.28,40c-1.46,1.26.67,3.38,2.13,2.12Z"/><path class="cls-2" d="M733,700.5a540.49,540.49,0,0,1,64.66-33.71c1.76-.78.24-3.36-1.52-2.59a541.25,541.25,0,0,0-64.66,33.71c-1.64,1-.14,3.6,1.52,2.59Z"/><path class="cls-2" d="M743.38,716.22q34.29-16.87,69.89-30.81c1.78-.69,1-3.59-.79-2.89q-36,14.07-70.61,31.11c-1.73.85-.22,3.44,1.51,2.59Z"/><path class="cls-2" d="M934.34,53.46A491.55,491.55,0,0,1,987,14c1.61-1.05.11-3.65-1.52-2.59a499.38,499.38,0,0,0-53.28,40c-1.46,1.26.67,3.38,2.13,2.12Z"/><path class="cls-2" d="M942,67.5a540.49,540.49,0,0,1,64.66-33.71c1.76-.78.24-3.36-1.52-2.59a541.25,541.25,0,0,0-64.66,33.71c-1.64,1-.14,3.6,1.52,2.59Z"/><path class="cls-2" d="M952.38,83.22q34.29-16.87,69.89-30.81c1.78-.69,1-3.59-.79-2.89q-36,14.07-70.61,31.11c-1.73.85-.22,3.44,1.51,2.59Z"/><path class="cls-2" d="M953.83,107.16c-12.08,2.88-15.64,17.75-17,28.32-1.87,14.1-2.58,35-20,38.76-1.89.41-1.09,3.3.8,2.9,11.92-2.59,17.93-14,20-25.13,2.4-12.57.72-38.08,17-42,1.87-.45,1.08-3.34-.8-2.89Z"/><path class="cls-2" d="M976.32,114.54c-13.38,4.74-18.92,17-18.86,30.53,0,8.37,3,17.74,0,25.84-2.84,7.67-10.48,11.9-18.05,13.62-1.88.43-1.08,3.32.8,2.9,12.51-2.84,21.5-11.6,21.46-24.85,0-8.58-2.14-17-.61-25.58,1.62-9.17,7.21-16.43,16.07-19.57,1.81-.64,1-3.54-.8-2.89Z"/><path class="cls-2" d="M1007.12,122.83c-14.09-6.06-20.92,13.24-23.84,23.24-2.39,8.2-2.88,16.21-3.68,24.63-1,10.18-7.77,15.36-15.92,20.45-1.63,1-.13,3.62,1.52,2.59,4.73-3,9.63-6.06,13-10.56,3.8-5,4.25-10.76,4.61-16.82.57-9.5,6.15-48.08,22.74-40.94,1.76.76,3.29-1.82,1.52-2.59Z"/><path class="cls-2" d="M929.34,310.46A491.55,491.55,0,0,1,982,271c1.61-1.05.11-3.65-1.52-2.59a499.38,499.38,0,0,0-53.28,40c-1.46,1.26.67,3.38,2.13,2.12Z"/><path class="cls-2" d="M937,324.5a540.49,540.49,0,0,1,64.66-33.71c1.76-.78.24-3.36-1.52-2.59a541.25,541.25,0,0,0-64.66,33.71c-1.64,1-.14,3.6,1.52,2.59Z"/><path class="cls-2" d="M947.38,340.22q34.29-16.87,69.89-30.81c1.78-.69,1-3.59-.79-2.89q-36,14.07-70.61,31.11c-1.73.85-.22,3.44,1.51,2.59Z"/><path class="cls-2" d="M948.83,364.16c-12.08,2.88-15.64,17.75-17,28.32-1.87,14.1-2.58,35-20,38.76-1.89.41-1.09,3.3.8,2.9,11.92-2.59,17.93-14,20-25.13,2.4-12.57.72-38.08,17-42,1.87-.45,1.08-3.34-.8-2.89Z"/><path class="cls-2" d="M971.32,371.54c-13.38,4.74-18.92,17-18.86,30.53,0,8.37,3,17.74,0,25.84-2.84,7.67-10.48,11.9-18.05,13.62-1.88.43-1.08,3.32.8,2.9,12.51-2.84,21.5-11.6,21.46-24.85,0-8.58-2.14-17-.61-25.58,1.62-9.17,7.21-16.43,16.07-19.57,1.81-.64,1-3.54-.8-2.89Z"/><path class="cls-2" d="M1002.12,379.83c-14.09-6.06-20.92,13.24-23.84,23.24-2.39,8.2-2.88,16.21-3.68,24.63-1,10.18-7.77,15.36-15.92,20.45-1.63,1-.13,3.62,1.52,2.59,4.73-2.95,9.63-6.06,13-10.56,3.8-5,4.25-10.76,4.61-16.82.57-9.5,6.15-48.08,22.74-40.94,1.76.76,3.29-1.82,1.52-2.59Z"/><path class="cls-2" d="M919.34,553.46A491.55,491.55,0,0,1,972,514c1.61-1.05.11-3.65-1.52-2.59a499.38,499.38,0,0,0-53.28,40c-1.46,1.26.67,3.38,2.13,2.12Z"/><path class="cls-2" d="M927,567.5a540.49,540.49,0,0,1,64.66-33.71c1.76-.78.24-3.36-1.52-2.59a541.25,541.25,0,0,0-64.66,33.71c-1.64,1-.14,3.6,1.52,2.59Z"/><path class="cls-2" d="M937.38,583.22q34.29-16.87,69.89-30.81c1.78-.69,1-3.59-.79-2.89q-36,14.07-70.61,31.11c-1.73.85-.22,3.44,1.51,2.59Z"/><path class="cls-2" d="M938.83,607.16c-12.08,2.88-15.64,17.75-17,28.32-1.87,14.1-2.58,35-20,38.76-1.89.41-1.09,3.3.8,2.9,11.92-2.59,17.93-14,20-25.13,2.4-12.57.72-38.08,17-42,1.87-.45,1.08-3.34-.8-2.89Z"/><path class="cls-2" d="M961.32,614.54c-13.38,4.74-18.92,17-18.86,30.53,0,8.37,3,17.74,0,25.84-2.84,7.67-10.48,11.9-18.05,13.62-1.88.43-1.08,3.32.8,2.9,12.51-2.84,21.5-11.6,21.46-24.85,0-8.58-2.14-17-.61-25.58,1.62-9.17,7.21-16.43,16.07-19.57,1.81-.64,1-3.54-.8-2.89Z"/><path class="cls-2" d="M992.12,622.83c-14.09-6.06-20.92,13.24-23.84,23.24-2.39,8.2-2.88,16.21-3.68,24.63-1,10.18-7.77,15.36-15.92,20.45-1.63,1-.13,3.62,1.52,2.59,4.73-3,9.63-6.06,13-10.56,3.8-5,4.25-10.76,4.61-16.82.57-9.5,6.15-48.08,22.74-40.94,1.76.76,3.29-1.82,1.52-2.59Z"/><path class="cls-2" d="M1129.83,14.16c-12.08,2.88-15.64,17.75-17,28.32-1.87,14.1-2.58,35-20,38.76-1.89.41-1.09,3.3.8,2.9,11.92-2.59,17.93-14,20-25.13,2.4-12.57.72-38.08,17-42,1.87-.45,1.08-3.34-.8-2.89Z"/><path class="cls-2" d="M1152.32,21.54c-13.38,4.74-18.92,17-18.86,30.53,0,8.37,3,17.74,0,25.84-2.84,7.67-10.48,11.9-18,13.62-1.88.43-1.08,3.32.8,2.9,12.51-2.84,21.5-11.6,21.46-24.85,0-8.58-2.14-17-.61-25.58,1.62-9.17,7.21-16.43,16.07-19.57,1.81-.64,1-3.54-.8-2.89Z"/><path class="cls-2" d="M1183.12,29.83c-14.09-6.06-20.92,13.24-23.84,23.24-2.39,8.2-2.88,16.21-3.68,24.63-1,10.18-7.77,15.36-15.92,20.45-1.63,1-.13,3.62,1.52,2.59,4.73-2.95,9.63-6.06,13-10.56,3.8-5,4.25-10.76,4.61-16.82.57-9.5,6.15-48.08,22.74-40.94,1.76.76,3.29-1.82,1.52-2.59Z"/><path class="cls-2" d="M1081.34,186.46A491.55,491.55,0,0,1,1134,147c1.61-1.05.11-3.65-1.52-2.59a499.38,499.38,0,0,0-53.28,40c-1.46,1.26.67,3.38,2.13,2.12Z"/><path class="cls-2" d="M1089,200.5a540.49,540.49,0,0,1,64.66-33.71c1.76-.78.24-3.36-1.52-2.59a541.25,541.25,0,0,0-64.66,33.71c-1.64,1-.14,3.6,1.52,2.59Z"/><path class="cls-2" d="M1099.38,216.22q34.29-16.87,69.89-30.81c1.78-.69,1-3.59-.79-2.89q-36,14.07-70.61,31.11c-1.73.85-.22,3.44,1.51,2.59Z"/><path class="cls-2" d="M1113.83,276.16c-12.08,2.88-15.64,17.75-17,28.32-1.87,14.1-2.58,35-20,38.76-1.89.41-1.09,3.3.8,2.9,11.92-2.59,17.93-14,20-25.13,2.4-12.57.72-38.08,17-42,1.87-.45,1.08-3.34-.8-2.89Z"/><path class="cls-2" d="M1136.32,283.54c-13.38,4.74-18.92,17-18.86,30.53,0,8.37,3,17.74,0,25.84-2.84,7.67-10.48,11.9-18,13.62-1.88.43-1.08,3.32.8,2.9,12.51-2.84,21.5-11.6,21.46-24.85,0-8.58-2.14-17-.61-25.58,1.62-9.17,7.21-16.43,16.07-19.57,1.81-.64,1-3.54-.8-2.89Z"/><path class="cls-2" d="M1167.12,291.83c-14.09-6.06-20.92,13.24-23.84,23.24-2.39,8.2-2.88,16.21-3.68,24.63-1,10.18-7.77,15.36-15.92,20.45-1.63,1-.13,3.62,1.52,2.59,4.73-2.95,9.63-6.06,13-10.56,3.8-5,4.25-10.76,4.61-16.82.57-9.5,6.15-48.08,22.74-40.94,1.76.76,3.29-1.82,1.52-2.59Z"/><path class="cls-2" d="M1065.34,448.46A491.55,491.55,0,0,1,1118,409c1.61-1.05.11-3.65-1.52-2.59a499.38,499.38,0,0,0-53.28,40c-1.46,1.26.67,3.38,2.13,2.12Z"/><path class="cls-2" d="M1073,462.5a540.49,540.49,0,0,1,64.66-33.71c1.76-.78.24-3.36-1.52-2.59a541.25,541.25,0,0,0-64.66,33.71c-1.64,1-.14,3.6,1.52,2.59Z"/><path class="cls-2" d="M1083.38,478.22q34.29-16.87,69.89-30.81c1.78-.69,1-3.59-.79-2.89q-36,14.07-70.61,31.11c-1.73.85-.22,3.44,1.51,2.59Z"/><path class="cls-2" d="M1097.83,516.16c-12.08,2.88-15.64,17.75-17,28.32-1.87,14.1-2.58,35-20,38.76-1.89.41-1.09,3.3.8,2.9,11.92-2.59,17.93-14,20-25.13,2.4-12.57.72-38.08,17-42,1.87-.45,1.08-3.34-.8-2.89Z"/><path class="cls-2" d="M1120.32,523.54c-13.38,4.74-18.92,17-18.86,30.53,0,8.37,3,17.74,0,25.84-2.84,7.67-10.48,11.9-18,13.62-1.88.43-1.08,3.32.8,2.9,12.51-2.84,21.5-11.6,21.46-24.85,0-8.58-2.14-17-.61-25.58,1.62-9.17,7.21-16.43,16.07-19.57,1.81-.64,1-3.54-.8-2.89Z"/><path class="cls-2" d="M1151.12,531.83c-14.09-6.06-20.92,13.24-23.84,23.24-2.39,8.2-2.88,16.21-3.68,24.63-1,10.18-7.77,15.36-15.92,20.45-1.63,1-.13,3.62,1.52,2.59,4.73-3,9.63-6.06,13-10.56,3.8-5,4.25-10.76,4.61-16.82.57-9.5,6.15-48.08,22.74-40.94,1.76.76,3.29-1.82,1.52-2.59Z"/><path class="cls-2" d="M1049.34,688.46A491.55,491.55,0,0,1,1102,649c1.61-1.05.11-3.65-1.52-2.59a499.38,499.38,0,0,0-53.28,40c-1.46,1.26.67,3.38,2.13,2.12Z"/><path class="cls-2" d="M1057,702.5a540.49,540.49,0,0,1,64.66-33.71c1.76-.78.24-3.36-1.52-2.59a541.25,541.25,0,0,0-64.66,33.71c-1.64,1-.14,3.6,1.52,2.59Z"/><path class="cls-2" d="M1067.38,718.22q34.29-16.87,69.89-30.81c1.78-.69,1-3.59-.79-2.89q-36,14.07-70.61,31.11c-1.73.85-.22,3.44,1.51,2.59Z"/><path class="cls-2" d="M1253.34,63.46A491.55,491.55,0,0,1,1306,24c1.61-1,.11-3.65-1.52-2.59a499.38,499.38,0,0,0-53.28,40c-1.46,1.26.67,3.38,2.13,2.12Z"/><path class="cls-2" d="M1261,77.5a540.49,540.49,0,0,1,64.66-33.71c1.76-.78.24-3.36-1.52-2.59a541.25,541.25,0,0,0-64.66,33.71c-1.64,1-.14,3.6,1.52,2.59Z"/><path class="cls-2" d="M1271.38,93.22q34.29-16.87,69.89-30.81c1.78-.69,1-3.59-.79-2.89q-36,14.07-70.61,31.11c-1.73.85-.22,3.44,1.51,2.59Z"/><path class="cls-2" d="M1272.83,117.16c-12.08,2.88-15.64,17.75-17,28.32-1.87,14.1-2.58,35-20,38.76-1.89.41-1.09,3.3.8,2.9,11.92-2.59,17.93-14,20-25.13,2.4-12.57.72-38.08,17-42,1.87-.45,1.08-3.34-.8-2.89Z"/><path class="cls-2" d="M1295.32,124.54c-13.38,4.74-18.92,17-18.86,30.53,0,8.37,3,17.74,0,25.84-2.84,7.67-10.48,11.9-18,13.62-1.88.43-1.08,3.32.8,2.9,12.51-2.84,21.5-11.6,21.46-24.85,0-8.58-2.14-17-.61-25.58,1.62-9.17,7.21-16.43,16.07-19.57,1.81-.64,1-3.54-.8-2.89Z"/><path class="cls-2" d="M1326.12,132.83c-14.09-6.06-20.92,13.24-23.84,23.24-2.39,8.2-2.88,16.21-3.68,24.63-1,10.18-7.77,15.36-15.92,20.45-1.63,1-.13,3.62,1.52,2.59,4.73-3,9.63-6.06,13-10.56,3.8-5,4.25-10.76,4.61-16.82.57-9.5,6.15-48.08,22.74-40.94,1.76.76,3.29-1.82,1.52-2.59Z"/><path class="cls-2" d="M1248.34,320.46A491.55,491.55,0,0,1,1301,281c1.61-1.05.11-3.65-1.52-2.59a499.38,499.38,0,0,0-53.28,40c-1.46,1.26.67,3.38,2.13,2.12Z"/><path class="cls-2" d="M1256,334.5a540.49,540.49,0,0,1,64.66-33.71c1.76-.78.24-3.36-1.52-2.59a541.25,541.25,0,0,0-64.66,33.71c-1.64,1-.14,3.6,1.52,2.59Z"/><path class="cls-2" d="M1266.38,350.22q34.29-16.87,69.89-30.81c1.78-.69,1-3.59-.79-2.89q-36,14.07-70.61,31.11c-1.73.85-.22,3.44,1.51,2.59Z"/><path class="cls-2" d="M1267.83,374.16c-12.08,2.88-15.64,17.75-17,28.32-1.87,14.1-2.58,35-20,38.76-1.89.41-1.09,3.3.8,2.9,11.92-2.59,17.93-14,20-25.13,2.4-12.57.72-38.08,17-42,1.87-.45,1.08-3.34-.8-2.89Z"/><path class="cls-2" d="M1290.32,381.54c-13.38,4.74-18.92,17-18.86,30.53,0,8.37,3,17.74,0,25.84-2.84,7.67-10.48,11.9-18,13.62-1.88.43-1.08,3.32.8,2.9,12.51-2.84,21.5-11.6,21.46-24.85,0-8.58-2.14-17-.61-25.58,1.62-9.17,7.21-16.43,16.07-19.57,1.81-.64,1-3.54-.8-2.89Z"/><path class="cls-2" d="M1321.12,389.83c-14.09-6.06-20.92,13.24-23.84,23.24-2.39,8.2-2.88,16.21-3.68,24.63-1,10.18-7.77,15.36-15.92,20.45-1.63,1-.13,3.62,1.52,2.59,4.73-2.95,9.63-6.06,13-10.56,3.8-5,4.25-10.76,4.61-16.82.57-9.5,6.15-48.08,22.74-40.94,1.76.76,3.29-1.82,1.52-2.59Z"/><path class="cls-2" d="M1238.34,563.46A491.55,491.55,0,0,1,1291,524c1.61-1.05.11-3.65-1.52-2.59a499.38,499.38,0,0,0-53.28,40c-1.46,1.26.67,3.38,2.13,2.12Z"/><path class="cls-2" d="M1246,577.5a540.49,540.49,0,0,1,64.66-33.71c1.76-.78.24-3.36-1.52-2.59a541.25,541.25,0,0,0-64.66,33.71c-1.64,1-.14,3.6,1.52,2.59Z"/><path class="cls-2" d="M1256.38,593.22q34.29-16.87,69.89-30.81c1.78-.69,1-3.59-.79-2.89q-36,14.07-70.61,31.11c-1.73.85-.22,3.44,1.51,2.59Z"/><path class="cls-2" d="M1257.83,617.16c-12.08,2.88-15.64,17.75-17,28.32-1.87,14.1-2.58,35-20,38.76-1.89.41-1.09,3.3.8,2.9,11.92-2.59,17.93-14,20-25.13,2.4-12.57.72-38.08,17-42,1.87-.45,1.08-3.34-.8-2.89Z"/><path class="cls-2" d="M1280.32,624.54c-13.38,4.74-18.92,17-18.86,30.53,0,8.37,3,17.74,0,25.84-2.84,7.67-10.48,11.9-18,13.62-1.88.43-1.08,3.32.8,2.9,12.51-2.84,21.5-11.6,21.46-24.85,0-8.58-2.14-17-.61-25.58,1.62-9.17,7.21-16.43,16.07-19.57,1.81-.64,1-3.54-.8-2.89Z"/><path class="cls-2" d="M1311.12,632.83c-14.09-6.06-20.92,13.24-23.84,23.24-2.39,8.2-2.88,16.21-3.68,24.63-1,10.18-7.77,15.36-15.92,20.45-1.63,1-.13,3.62,1.52,2.59,4.73-3,9.63-6.06,13-10.56,3.8-5,4.25-10.76,4.61-16.82.57-9.5,6.15-48.08,22.74-40.94,1.76.76,3.29-1.82,1.52-2.59Z"/></g></g></svg>