<svg xmlns="http://www.w3.org/2000/svg" viewBox="0 0 1146.5 71.03"><defs><style>.cls-1{fill:none;stroke:#000;stroke-miterlimit:10;}</style></defs><title>Asset 3</title><g id="Layer_2" data-name="Layer 2"><g id="Layer_1-2" data-name="Layer 1"><line class="cls-1" y1="40.5" x2="500" y2="40.5"/><line class="cls-1" x1="646.5" y1="40.5" x2="1146.5" y2="40.5"/><path d="M609.3,26.84A3.86,3.86,0,0,0,606,24.13l-20.78-1.94L577,2.39a3.79,3.79,0,0,0-7,0l-8.22,19.8L541,24.13a3.87,3.87,0,0,0-3.29,2.71A4,4,0,0,0,538.8,31l15.71,14.18-4.63,21a4,4,0,0,0,1.49,4.06,3.73,3.73,0,0,0,4.21.19l17.91-11,17.92,11a3.73,3.73,0,0,0,4.21-.19,4,4,0,0,0,1.49-4.06l-4.63-21L608.18,31A4,4,0,0,0,609.3,26.84Z"/></g></g></svg>